<?xml version="1.0" encoding="UTF-8" standalone="no"?>
<!-- Created with Inkscape (http://www.inkscape.org/) -->

<svg
   xmlns:dc="http://purl.org/dc/elements/1.1/"
   xmlns:cc="http://creativecommons.org/ns#"
   xmlns:rdf="http://www.w3.org/1999/02/22-rdf-syntax-ns#"
   xmlns:svg="http://www.w3.org/2000/svg"
   xmlns="http://www.w3.org/2000/svg"
   xmlns:sodipodi="http://sodipodi.sourceforge.net/DTD/sodipodi-0.dtd"
   xmlns:inkscape="http://www.inkscape.org/namespaces/inkscape"
   width="16"
   height="16"
   id="svg2"
   version="1.1"
   inkscape:version="0.48.1 r9760"
   sodipodi:docname="carrots.svg">
  <defs
     id="defs4" />
  <sodipodi:namedview
     id="base"
     pagecolor="#ffffff"
     bordercolor="#666666"
     borderopacity="1.0"
     inkscape:pageopacity="0.0"
     inkscape:pageshadow="2"
     inkscape:zoom="15.839192"
     inkscape:cx="-1.7437181"
     inkscape:cy="1.5479669"
     inkscape:document-units="px"
     inkscape:current-layer="layer1"
     showgrid="false"
     inkscape:window-width="1280"
     inkscape:window-height="1000"
     inkscape:window-x="0"
     inkscape:window-y="24"
     inkscape:window-maximized="1" />
  <metadata
     id="metadata7">
    <rdf:RDF>
      <cc:Work
         rdf:about="">
        <dc:format>image/svg+xml</dc:format>
        <dc:type
           rdf:resource="http://purl.org/dc/dcmitype/StillImage" />
        <dc:title></dc:title>
      </cc:Work>
    </rdf:RDF>
  </metadata>
  <g
     inkscape:label="Layer 1"
     inkscape:groupmode="layer"
     id="layer1"
     transform="translate(0,-1036.3622)">
    <path
       style="fill:#ff8500;stroke:none;stroke-width:1px;stroke-linecap:butt;stroke-linejoin:miter;stroke-opacity:1;fill-opacity:1"
       d="m 1.4520943,14.358502 c 0.060789,-0.188231 0.2215573,0.04706 0.3156727,0 0.02662,-0.01331 0.036515,-0.04982 0.063134,-0.06313 0.037646,-0.01882 0.088623,0.01882 0.1262691,0 0.02662,-0.01331 0.036515,-0.04983 0.063134,-0.06313 0.039681,-0.01984 0.2128567,0.01984 0.2525381,0 0.02662,-0.01331 0.0349,-0.05372 0.063135,-0.06313 0.079859,-0.02662 0.1699934,0.01651 0.2525381,0 0.1267831,0.01449 0.2057265,-0.09878 0.3156727,-0.12627 0.040833,-0.01021 0.085436,0.01021 0.126269,0 0.045653,-0.01141 0.081626,-0.04825 0.1262691,-0.06313 0.1879409,-0.06265 -0.1295398,0.149494 0.1894036,-0.06313 0.024763,-0.01651 0.0349,-0.05372 0.063134,-0.06313 0.03993,-0.01331 0.085436,0.01021 0.1262691,0 0.1831048,-0.04578 0.073884,-0.04926 0.1894036,-0.126269 0.039154,-0.0261 0.084179,-0.04209 0.1262691,-0.06314 0.04209,-0.02104 0.080616,-0.05172 0.1262691,-0.06313 0.040833,-0.01021 0.085436,0.01021 0.126269,0 0.1831049,-0.04578 0.073884,-0.04926 0.1894036,-0.126269 0.078309,-0.05221 0.1772458,-0.0698 0.2525382,-0.126269 0.047619,-0.03571 0.076742,-0.09325 0.126269,-0.12627 0.01751,-0.01167 0.044312,0.0094 0.063135,0 0.075761,-0.03788 0.1136421,-0.151522 0.1894036,-0.189403 0.018823,-0.0094 0.048254,0.01488 0.063134,0 0.014881,-0.01488 -0.014881,-0.04825 0,-0.06313 0.014881,-0.01488 0.044312,0.0094 0.063135,0 0.02662,-0.01331 0.036515,-0.04982 0.063135,-0.06313 0.037646,-0.01882 0.088623,0.01882 0.126269,0 0.02662,-0.01331 0.036515,-0.04983 0.063135,-0.06314 0.018823,-0.0094 0.044311,0.0094 0.063135,0 0.02662,-0.01331 0.036515,-0.04982 0.063134,-0.06313 0.018823,-0.0094 0.048254,0.01488 0.063135,0 0.014881,-0.01488 -0.00941,-0.04431 0,-0.06314 0.01331,-0.02662 0.04209,-0.04209 0.063134,-0.06313 0.021045,-0.02104 0.036515,-0.04983 0.063135,-0.06313 0.018823,-0.0094 0.048254,0.01488 0.063135,0 0.014881,-0.01488 -0.014881,-0.04825 0,-0.06313 0.033275,-0.03328 0.087115,-0.03703 0.126269,-0.06314 0.024763,-0.01651 0.038371,-0.04663 0.063135,-0.06313 0.039154,-0.0261 0.087115,-0.03703 0.1262691,-0.06314 0.057472,-0.03831 0.133445,-0.161424 0.1894036,-0.189404 0.018823,-0.0094 0.048254,0.01488 0.063135,0 0.014881,-0.01488 -0.00941,-0.04431 0,-0.06313 0.01331,-0.02662 0.04209,-0.04209 0.063135,-0.06313 0.021045,-0.02105 0.0349,-0.05372 0.063135,-0.06313 0.03993,-0.01331 0.088623,0.01882 0.126269,0 0.018823,-0.0094 -0.00941,-0.04431 0,-0.06314 0.01331,-0.02662 0.036515,-0.04982 0.063135,-0.06313 0.018823,-0.0094 0.044311,0.0094 0.063134,0 0.02662,-0.01331 0.036515,-0.04983 0.063135,-0.06314 0.018823,-0.0094 0.04317,0.0067 0.063135,0 0.044643,-0.01488 0.081626,-0.04825 0.126269,-0.06313 0.019965,-0.0067 0.044312,0.0094 0.063135,0 0.02662,-0.01331 0.036515,-0.04983 0.063135,-0.06313 0.018823,-0.0094 0.044312,0.0094 0.063134,0 0.02662,-0.01331 0.036515,-0.04982 0.063135,-0.06313 0.039681,-0.01984 0.2128566,0.01984 0.2525381,0 0.02662,-0.01331 0.036515,-0.04983 0.063134,-0.06314 0.037646,-0.01882 0.088623,0.01882 0.1262691,0 0.05324,-0.02662 0.073029,-0.09965 0.1262691,-0.126269 0.018823,-0.0094 0.04317,0.0067 0.063135,0 0.044643,-0.01488 0.084179,-0.04209 0.1262691,-0.06313 0.04209,-0.02104 0.087115,-0.03703 0.126269,-0.06313 0.024763,-0.01651 0.0349,-0.05372 0.063135,-0.06314 0.03993,-0.01331 0.091248,0.02335 0.126269,0 0.039154,-0.0261 0.02398,-0.100166 0.063135,-0.126269 0.1894036,-0.126269 0.063135,0.06313 0.1894036,0 0.055958,-0.02798 0.1319313,-0.151088 0.1894036,-0.189403 0.039154,-0.0261 0.087115,-0.03703 0.1262691,-0.06314 0.024763,-0.01651 0.036515,-0.04982 0.063135,-0.06313 0.018823,-0.0094 0.044311,0.0094 0.063134,0 0.02662,-0.01331 0.036515,-0.04983 0.063135,-0.06313 0.018823,-0.0094 0.048253,0.01488 0.063134,0 0.1306276,-0.130627 -0.1996163,0.0051 0.063135,-0.126269 0.018823,-0.0094 0.044312,0.0094 0.063135,0 0.02662,-0.01331 0.04209,-0.04209 0.063135,-0.06313 0.037132,-0.03713 0.2233019,-0.23792 0.2525381,-0.252539 0.087085,-0.04354 0.056472,0.07646 0.1262691,-0.06313 0.00941,-0.01882 -0.014881,-0.04825 0,-0.06313 0.014881,-0.01488 0.048254,0.01488 0.063135,0 0.029762,-0.02976 -0.029762,-0.09651 0,-0.126269 0.029762,-0.029762 0.096507,0.02976 0.1262691,0 0.029762,-0.029762 -0.029762,-0.096507 0,-0.1262688 0.014881,-0.014881 0.044311,0.00941 0.063134,0 0.2627503,-0.1313754 -0.067493,0.00436 0.063135,-0.1262691 0.029762,-0.029762 0.096507,0.029762 0.1262693,0 0.01488,-0.014881 -0.01488,-0.048254 0,-0.063135 0.01488,-0.014881 0.04825,0.014881 0.06313,0 0.01488,-0.014881 -0.01488,-0.048254 0,-0.063135 0.01488,-0.014881 0.04825,0.014881 0.06313,0 0.01488,-0.014881 -0.01488,-0.048253 0,-0.063135 0.01488,-0.014881 0.04431,0.00941 0.06314,0 0.20939,-0.2093909 -0.05952,0.029762 0.126269,-0.063135 0.02662,-0.01331 0.03651,-0.049825 0.06313,-0.063135 0.01882,-0.00941 0.04825,0.014881 0.06313,0 0.03327,-0.033275 0.02986,-0.092994 0.06313,-0.126269 0.01488,-0.014881 0.04825,0.014881 0.06314,0 0.01488,-0.014881 -0.01488,-0.048254 0,-0.063135 0.01488,-0.014881 0.04825,0.014881 0.06313,0 0.130628,-0.1306276 -0.199616,0.00511 0.06313,-0.126269 0.03765,-0.018823 0.09651,0.029762 0.126269,0 0.01488,-0.014881 -0.01488,-0.048254 0,-0.063135 0.01488,-0.014881 0.04562,0.011674 0.06313,0 0.04953,-0.033018 0.07674,-0.093251 0.126269,-0.126269 0.01751,-0.011674 0.04825,0.014881 0.06313,0 0.01488,-0.014881 -0.0094,-0.044312 0,-0.063135 0.01331,-0.02662 0.04983,-0.036515 0.06314,-0.063135 0.01141,-0.022832 0,-0.2717601 0,-0.3156727 0,-0.021045 0.01488,-0.048254 0,-0.063135 -0.01488,-0.014881 -0.04825,0.014881 -0.06314,0 -0.01488,-0.014881 0.0094,-0.044311 0,-0.063135 -0.01331,-0.02662 -0.04983,-0.036515 -0.06313,-0.063135 -0.0094,-0.018823 0.01488,-0.048254 0,-0.063135 -0.01488,-0.014881 -0.04825,0.014881 -0.06313,0 -0.130628,-0.1306276 0.199616,0.00511 -0.06314,-0.1262691 -0.01882,-0.00941 -0.04825,0.014881 -0.06313,0 -0.01488,-0.014881 0.01488,-0.048254 0,-0.063134 -0.01488,-0.014881 -0.04209,0 -0.06314,0 0,-0.021045 0.01488,-0.048254 0,-0.063135 -0.02976,-0.029762 -0.09651,0.029762 -0.126269,0 -0.01488,-0.014881 0.0094,-0.044312 0,-0.063135 -0.01331,-0.02662 -0.04982,-0.036515 -0.06313,-0.063134 -0.0094,-0.018823 0.01488,-0.048254 0,-0.063135 -0.01488,-0.014881 -0.04431,0.00941 -0.06314,0 -0.02662,-0.01331 -0.03651,-0.049825 -0.06313,-0.063135 -0.03765,-0.018823 -0.09651,0.029762 -0.126269,0 -0.01488,-0.014881 0.0094,-0.044311 0,-0.063135 -0.01331,-0.02662 -0.04209,-0.04209 -0.06313,-0.063135 -0.04209,-0.04209 -0.07674,-0.093251 -0.126269,-0.126269 -0.01751,-0.011674 -0.04431,0.00941 -0.06313,0 -0.07576,-0.037881 -0.1136419,-0.1515229 -0.1894033,-0.1894036 -0.037646,-0.018823 -0.088623,0.018823 -0.1262691,0 -0.02662,-0.01331 -0.049825,-0.036515 -0.063135,-0.063135 -0.00941,-0.018823 0.018823,-0.053723 0,-0.063135 -0.037646,-0.018823 -0.088623,0.018823 -0.1262691,0 -0.018823,-0.00941 0.014881,-0.048254 0,-0.063135 -0.029762,-0.029762 -0.088623,0.018823 -0.1262691,0 -0.02662,-0.01331 -0.036515,-0.049825 -0.063135,-0.063135 -0.037646,-0.018823 -0.088623,0.018823 -0.1262691,0 -0.02662,-0.01331 -0.036515,-0.049825 -0.063135,-0.063135 -0.016601,-0.0083 -0.2195238,0 -0.2525381,0 -0.1894036,0 -0.3788072,0 -0.5682108,0 -0.4419418,0 -0.8838835,0 -1.3258253,0 -0.015312,0 -0.1873732,-0.00203 -0.1894036,0 -0.014881,0.014881 0.014881,0.048254 0,0.063135 -0.029762,0.029762 -0.086339,-0.01331 -0.126269,0 -0.044643,0.014881 -0.081626,0.048254 -0.1262691,0.063135 -0.019965,0.00665 -0.044312,-0.00941 -0.063134,0 -0.02662,0.01331 -0.036515,0.049825 -0.063135,0.063135 -0.050508,0.025254 -0.138896,-0.025254 -0.1894036,0 -0.2627508,0.1313754 0.067493,-0.00436 -0.063135,0.1262691 -0.012907,0.012907 -0.1643713,-0.012516 -0.1894036,0 -0.02662,0.01331 -0.036515,0.049825 -0.063134,0.063134 -0.018823,0.00941 -0.048254,-0.014881 -0.063135,0 -0.014881,0.014881 0.00941,0.044312 0,0.063135 -0.00838,0.016763 -0.1726407,0.1810222 -0.1894036,0.1894036 -0.018823,0.00941 -0.044311,-0.00941 -0.063135,0 -0.1703832,0.085192 0.00218,0.028298 -0.063135,0.1262691 -0.033018,0.049527 -0.084179,0.084179 -0.126269,0.1262691 -0.021045,0.021045 -0.049825,0.036515 -0.063135,0.063134 -0.00941,0.018823 0.00941,0.044312 0,0.063135 -0.01331,0.02662 -0.049825,0.036515 -0.063134,0.063135 -0.00941,0.018823 0.014881,0.048254 0,0.063134 -0.014881,0.014881 -0.044311,-0.00941 -0.063135,0 -0.2627508,0.1313754 0.067493,-0.00436 -0.063135,0.1262691 -0.014881,0.014881 -0.048254,-0.014881 -0.063135,0 -0.029762,0.029762 0.018823,0.088623 0,0.1262691 -0.1313754,0.2627508 0.00436,-0.067493 -0.1262691,0.063135 -0.014881,0.014881 0.00941,0.044311 0,0.063135 -0.01331,0.02662 -0.049825,0.036515 -0.063135,0.063135 -0.00941,0.018823 0.00941,0.044311 0,0.063135 -0.01331,0.02662 -0.049825,0.036515 -0.063134,0.063135 -0.018823,0.037646 0.029762,0.096507 0,0.1262691 -0.014881,0.014881 -0.048254,-0.014881 -0.063135,0 -0.014881,0.014881 0.014881,0.048254 0,0.063135 -0.014881,0.014881 -0.048253,-0.014881 -0.063134,0 -0.014881,0.014881 0.00941,0.044311 0,0.063135 -0.01331,0.02662 -0.049825,0.036515 -0.063135,0.063135 -0.00941,0.018823 0.014881,0.048254 0,0.063135 -0.014881,0.014881 -0.048254,-0.014881 -0.063135,0 -0.029762,0.029762 0.018823,0.088623 0,0.1262691 -0.01331,0.02662 -0.049825,0.036515 -0.063135,0.063134 -0.00941,0.018823 0.014881,0.048254 0,0.063135 -0.014881,0.014881 -0.053723,-0.018823 -0.063134,0 -0.018823,0.037646 0.01331,0.086339 0,0.126269 -0.018823,0.056469 -0.093251,0.076742 -0.1262691,0.1262691 -0.026103,0.039154 -0.048254,0.081626 -0.063135,0.1262691 -0.00666,0.019965 0.014881,0.048254 0,0.063135 -0.014881,0.014881 -0.053723,-0.018823 -0.063135,0 -0.1956559,0.3913118 0.1118034,-0.034203 0,0.1894036 -0.01331,0.02662 -0.049825,0.036515 -0.063135,0.063134 -0.00941,0.01882 0.014881,0.04825 0,0.06313 -0.033275,0.03328 -0.1001662,0.02398 -0.1262691,0.06313 -0.023347,0.03502 0.01331,0.08634 0,0.126269 -0.00941,0.02824 -0.049825,0.03651 -0.063135,0.06314 -0.00941,0.01882 0.014881,0.04825 0,0.06313 -0.014881,0.01488 -0.048254,-0.01488 -0.063134,0 -0.1777703,0.0039 -0.016077,0.142346 -0.063135,0.189404 -0.014881,0.01488 -0.048254,-0.01488 -0.063135,0 -0.014881,0.01488 0.00941,0.04431 0,0.06314 -0.02662,0.05324 -0.099649,0.07303 -0.1262691,0.126269 -0.00941,0.01882 0.014881,0.04825 0,0.06313 -0.014881,0.01488 -0.053723,-0.01882 -0.063134,0 -0.018823,0.03765 0.029762,0.09651 0,0.126269 -0.029762,0.02976 -0.088623,-0.01882 -0.1262691,0 -0.018823,0.0094 0.00941,0.04431 0,0.06313 -0.01331,0.02662 -0.049825,0.03651 -0.063134,0.06313 -0.00941,0.01882 0.00941,0.04431 0,0.06313 -0.1313754,0.262751 0.00436,-0.06749 -0.1262691,0.06313 -0.014881,0.01488 0.00941,0.04431 0,0.06314 -0.02662,0.05324 -0.093251,0.07674 -0.1262691,0.126269 -0.026103,0.03915 -0.037032,0.08712 -0.063134,0.126269 -0.016509,0.02476 -0.049825,0.03651 -0.063135,0.06314 -0.00941,0.01882 0.014881,0.04825 0,0.06313 -0.014881,0.01488 -0.048254,-0.01488 -0.063135,0 -0.014881,0.01488 0.00941,0.04431 0,0.06313 -0.01331,0.02662 -0.049825,0.03651 -0.063134,0.06313 -0.00941,0.01882 0.00941,0.04431 0,0.06314 -0.144471,0.288942 0.026167,-0.267906 -0.1262691,0.189403 -0.00665,0.01996 0.014881,0.04825 0,0.06313 -0.014881,0.01488 -0.053723,-0.01882 -0.063135,0 -0.018823,0.03765 0.018823,0.08862 0,0.126269 -0.00941,0.01882 -0.048254,-0.01488 -0.063134,0 -0.033275,0.03327 -0.048254,0.08163 -0.063135,0.126269 -0.00665,0.01997 0.014881,0.04825 0,0.06314 -0.014881,0.01488 -0.048253,-0.01488 -0.063134,0 -0.029762,0.02976 0.029762,0.09651 0,0.126269 -0.014881,0.01488 -0.044311,-0.0094 -0.063134,0 -0.139594,0.0698 -0.019592,0.03918 -0.063135,0.126269 -0.02662,0.05324 -0.099649,0.07303 -0.126269,0.126269 -0.033333,0.06667 0.033333,0.0596 0,0.126269 -0.01331,0.02662 -0.049825,0.03651 -0.063135,0.06313 -0.012516,0.02503 0.012907,0.176497 0,0.189404 -0.014881,0.01488 -0.048253,-0.01488 -0.063134,0 -0.029762,0.02976 0.018823,0.08862 0,0.126269 -0.01331,0.02662 -0.049825,0.03651 -0.063135,0.06313 -0.00941,0.01882 0.00665,0.04317 0,0.06313 -0.014881,0.04464 -0.048254,0.08163 -0.063135,0.126269 -0.00665,0.01996 0.014881,0.04825 0,0.06313 -0.014881,0.01488 -0.048254,-0.01488 -0.063135,0 -0.014881,0.01488 0.014881,0.04825 0,0.06313 -0.014881,0.01488 -0.048254,-0.01488 -0.063134,0 -0.029762,0.02976 0.029762,0.09651 0,0.126269 -0.014881,0.01488 -0.048254,-0.01488 -0.063135,0 -0.031567,0.03157 0.031567,0.157837 0,0.189404 -0.014881,0.01488 -0.048254,-0.01488 -0.063135,0 -0.014881,0.01488 0.014881,0.04825 0,0.06313 -0.014881,0.01488 -0.048254,-0.01488 -0.063134,0 -0.029762,0.02976 0.032866,0.09998 0,0.12627 -0.095822,0.07666 -0.2104485,0.126269 -0.3156727,0.189403 z"
       id="path3768"
       inkscape:connector-curvature="0"
       transform="translate(0,1036.3622)" />
    <path
       style="fill:none;stroke:#007c08;stroke-width:1px;stroke-linecap:butt;stroke-linejoin:miter;stroke-opacity:1"
       d="m 10.038391,7.0348961 c 0.04209,-0.084179 0.08418,-0.1683587 0.126269,-0.2525381 0.06314,-0.084179 0.137198,-0.1611779 0.189404,-0.2525381 0.03302,-0.057781 0.0289,-0.1323378 0.06313,-0.1894036 0.03062,-0.051041 0.09564,-0.075228 0.126269,-0.1262691 0.03424,-0.057066 0.03842,-0.1276138 0.06314,-0.1894036 0.01748,-0.043692 0.04566,-0.082577 0.06313,-0.1262691 0.02472,-0.06179 0.03337,-0.1298798 0.06313,-0.1894036 0.144471,-0.288942 -0.02617,0.2679061 0.126269,-0.1894036 0.0067,-0.019965 -0.0067,-0.04317 0,-0.063135 0.01488,-0.044643 0.04825,-0.081626 0.06313,-0.1262691 0.01997,-0.059895 -0.01996,-0.1295089 0,-0.1894036 0.0094,-0.028235 0.05372,-0.0349 0.06314,-0.063135 0.01331,-0.03993 0,-0.084179 0,-0.1262691 0,-0.021045 -0.0094,-0.044311 0,-0.063135 0.01331,-0.02662 0.05372,-0.0349 0.06313,-0.063135 0.01331,-0.03993 0,-0.084179 0,-0.126269 0,-0.021045 -0.0094,-0.044312 0,-0.063135 0.01331,-0.02662 0.05372,-0.0349 0.06313,-0.063134 0.01131,-0.033942 0,-0.1990852 0,-0.2525381 0,-0.1683588 0,-0.3367175 0,-0.5050763 0,-0.1683588 0,-0.3367175 0,-0.5050763 0,-0.041486 0.01187,-0.1537832 0,-0.1894036 -0.01488,-0.044643 -0.04825,-0.081626 -0.06313,-0.126269 -0.01764,-0.052915 0.02092,-0.2106974 0,-0.2525382 -0.01331,-0.02662 -0.04982,-0.036515 -0.06313,-0.063135 -0.0094,-0.018823 0,-0.04209 0,-0.063135 0,-0.1052242 0,-0.2104484 0,-0.3156726 0,-0.04209 0,-0.084179 0,-0.1262691 0,-0.021045 0.0094,-0.044311 0,-0.063134 -0.07802,-0.156031 -0.06314,0.021793 -0.06314,-0.1262691"
       id="path3770"
       inkscape:connector-curvature="0"
       transform="translate(0,1036.3622)" />
    <path
       style="fill:none;stroke:#00781d;stroke-width:1px;stroke-linecap:butt;stroke-linejoin:miter;stroke-opacity:1"
       d="m 10.796005,7.3505688 c 0.217802,-0.077334 0.364608,-0.2770058 0.568211,-0.3788072 0.01333,-0.00667 0.626278,-0.24916 0.631346,-0.2525381 0.295097,-0.196732 0.209256,-0.2723914 0.441941,-0.5050763 0.05365,-0.053654 0.130153,-0.078868 0.189404,-0.1262691 0.04648,-0.037184 0.07979,-0.089085 0.126269,-0.126269 0.05925,-0.047401 0.135749,-0.072615 0.189404,-0.1262691 0.03327,-0.033275 0.0349,-0.088623 0.06313,-0.1262691 0.03571,-0.047619 0.08909,-0.079789 0.126269,-0.126269 0.186163,-0.232704 0.07138,-0.1189648 0.189404,-0.3156727 0.03904,-0.065065 0.08074,-0.128701 0.126269,-0.1894036 0.03571,-0.047619 0.09965,-0.073029 0.126269,-0.1262691 0.0094,-0.018823 -0.0094,-0.044311 0,-0.063135 0.01331,-0.02662 0.04982,-0.036515 0.06313,-0.063135 0.01882,-0.037646 -0.02976,-0.096507 0,-0.126269 0.01488,-0.014881 0.04825,0.014881 0.06313,0 0.01488,-0.014881 -0.0094,-0.044312 0,-0.063135 0.01331,-0.02662 0.04209,-0.04209 0.06313,-0.063134 0.02105,-0.021045 0.03651,-0.049825 0.06314,-0.063135 0.01882,-0.00941 0.04825,0.014881 0.06313,0 0.01488,-0.014881 -0.0094,-0.044312 0,-0.063135 0.01331,-0.02662 0.04982,-0.036515 0.06313,-0.063135 0.0094,-0.018823 -0.01488,-0.048254 0,-0.063134 0.01488,-0.014881 0.04825,0.014881 0.06314,0 0.03327,-0.033275 0.02986,-0.092994 0.06313,-0.1262691 0.0769,-0.076897 0.141056,-0.029574 0.189404,-0.1262691 0.0094,-0.018823 -0.01488,-0.048254 0,-0.063135 0.02976,-0.029762 0.09651,0.029762 0.126269,0 0.02976,-0.029762 -0.02976,-0.096507 0,-0.1262691 0.02976,-0.029762 0.09651,0.029762 0.126269,0 0.01488,-0.014881 -0.01488,-0.048254 0,-0.063134 0.02976,-0.029762 0.09651,0.029762 0.126269,0 0.01488,-0.014881 -0.01488,-0.048254 0,-0.063135 0.02976,-0.029762 0.09651,0.029762 0.126269,0 0.08418,-0.084179 -0.105224,-0.063135 0.06313,-0.063135"
       id="path3772"
       inkscape:connector-curvature="0"
       transform="translate(0,1036.3622)" />
  </g>
</svg>
