<?xml version="1.0" encoding="UTF-8" standalone="no"?>
<!-- Created with Inkscape (http://www.inkscape.org/) -->

<svg
   xmlns:dc="http://purl.org/dc/elements/1.1/"
   xmlns:cc="http://creativecommons.org/ns#"
   xmlns:rdf="http://www.w3.org/1999/02/22-rdf-syntax-ns#"
   xmlns:svg="http://www.w3.org/2000/svg"
   xmlns="http://www.w3.org/2000/svg"
   xmlns:sodipodi="http://sodipodi.sourceforge.net/DTD/sodipodi-0.dtd"
   xmlns:inkscape="http://www.inkscape.org/namespaces/inkscape"
   width="16"
   height="16"
   id="svg2"
   version="1.1"
   inkscape:version="0.48.1 r9760"
   sodipodi:docname="categories_icons.svg"
   inkscape:export-filename="/home/mattions/projects/ssouk_web/design/icons/garden.png"
   inkscape:export-xdpi="90"
   inkscape:export-ydpi="90">
  <defs
     id="defs4" />
  <sodipodi:namedview
     id="base"
     pagecolor="#ffffff"
     bordercolor="#666666"
     borderopacity="1.0"
     inkscape:pageopacity="0.0"
     inkscape:pageshadow="2"
     inkscape:zoom="22.4"
     inkscape:cx="12.74721"
     inkscape:cy="6.5750475"
     inkscape:document-units="px"
     inkscape:current-layer="layer1"
     showgrid="false"
     inkscape:window-width="1280"
     inkscape:window-height="1000"
     inkscape:window-x="0"
     inkscape:window-y="24"
     inkscape:window-maximized="1" />
  <metadata
     id="metadata7">
    <rdf:RDF>
      <cc:Work
         rdf:about="">
        <dc:format>image/svg+xml</dc:format>
        <dc:type
           rdf:resource="http://purl.org/dc/dcmitype/StillImage" />
        <dc:title></dc:title>
      </cc:Work>
    </rdf:RDF>
  </metadata>
  <g
     inkscape:label="Layer 1"
     inkscape:groupmode="layer"
     id="layer1"
     transform="translate(0,-1036.3622)">
    <g
       id="g3831"
       transform="translate(-20.32932,-2.0834396)">
      <path
         transform="translate(0,1036.3622)"
         inkscape:connector-curvature="0"
         id="path3768"
         d="m 1.4520943,14.358502 c 0.060789,-0.188231 0.2215573,0.04706 0.3156727,0 0.02662,-0.01331 0.036515,-0.04982 0.063134,-0.06313 0.037646,-0.01882 0.088623,0.01882 0.1262691,0 0.02662,-0.01331 0.036515,-0.04983 0.063134,-0.06313 0.039681,-0.01984 0.2128567,0.01984 0.2525381,0 0.02662,-0.01331 0.0349,-0.05372 0.063135,-0.06313 0.079859,-0.02662 0.1699934,0.01651 0.2525381,0 0.1267831,0.01449 0.2057265,-0.09878 0.3156727,-0.12627 0.040833,-0.01021 0.085436,0.01021 0.126269,0 0.045653,-0.01141 0.081626,-0.04825 0.1262691,-0.06313 0.1879409,-0.06265 -0.1295398,0.149494 0.1894036,-0.06313 0.024763,-0.01651 0.0349,-0.05372 0.063134,-0.06313 0.03993,-0.01331 0.085436,0.01021 0.1262691,0 0.1831048,-0.04578 0.073884,-0.04926 0.1894036,-0.126269 0.039154,-0.0261 0.084179,-0.04209 0.1262691,-0.06314 0.04209,-0.02104 0.080616,-0.05172 0.1262691,-0.06313 0.040833,-0.01021 0.085436,0.01021 0.126269,0 0.1831049,-0.04578 0.073884,-0.04926 0.1894036,-0.126269 0.078309,-0.05221 0.1772458,-0.0698 0.2525382,-0.126269 0.047619,-0.03571 0.076742,-0.09325 0.126269,-0.12627 0.01751,-0.01167 0.044312,0.0094 0.063135,0 0.075761,-0.03788 0.1136421,-0.151522 0.1894036,-0.189403 0.018823,-0.0094 0.048254,0.01488 0.063134,0 0.014881,-0.01488 -0.014881,-0.04825 0,-0.06313 0.014881,-0.01488 0.044312,0.0094 0.063135,0 0.02662,-0.01331 0.036515,-0.04982 0.063135,-0.06313 0.037646,-0.01882 0.088623,0.01882 0.126269,0 0.02662,-0.01331 0.036515,-0.04983 0.063135,-0.06314 0.018823,-0.0094 0.044311,0.0094 0.063135,0 0.02662,-0.01331 0.036515,-0.04982 0.063134,-0.06313 0.018823,-0.0094 0.048254,0.01488 0.063135,0 0.014881,-0.01488 -0.00941,-0.04431 0,-0.06314 0.01331,-0.02662 0.04209,-0.04209 0.063134,-0.06313 0.021045,-0.02104 0.036515,-0.04983 0.063135,-0.06313 0.018823,-0.0094 0.048254,0.01488 0.063135,0 0.014881,-0.01488 -0.014881,-0.04825 0,-0.06313 0.033275,-0.03328 0.087115,-0.03703 0.126269,-0.06314 0.024763,-0.01651 0.038371,-0.04663 0.063135,-0.06313 0.039154,-0.0261 0.087115,-0.03703 0.1262691,-0.06314 0.057472,-0.03831 0.133445,-0.161424 0.1894036,-0.189404 0.018823,-0.0094 0.048254,0.01488 0.063135,0 0.014881,-0.01488 -0.00941,-0.04431 0,-0.06313 0.01331,-0.02662 0.04209,-0.04209 0.063135,-0.06313 0.021045,-0.02105 0.0349,-0.05372 0.063135,-0.06313 0.03993,-0.01331 0.088623,0.01882 0.126269,0 0.018823,-0.0094 -0.00941,-0.04431 0,-0.06314 0.01331,-0.02662 0.036515,-0.04982 0.063135,-0.06313 0.018823,-0.0094 0.044311,0.0094 0.063134,0 0.02662,-0.01331 0.036515,-0.04983 0.063135,-0.06314 0.018823,-0.0094 0.04317,0.0067 0.063135,0 0.044643,-0.01488 0.081626,-0.04825 0.126269,-0.06313 0.019965,-0.0067 0.044312,0.0094 0.063135,0 0.02662,-0.01331 0.036515,-0.04983 0.063135,-0.06313 0.018823,-0.0094 0.044312,0.0094 0.063134,0 0.02662,-0.01331 0.036515,-0.04982 0.063135,-0.06313 0.039681,-0.01984 0.2128566,0.01984 0.2525381,0 0.02662,-0.01331 0.036515,-0.04983 0.063134,-0.06314 0.037646,-0.01882 0.088623,0.01882 0.1262691,0 0.05324,-0.02662 0.073029,-0.09965 0.1262691,-0.126269 0.018823,-0.0094 0.04317,0.0067 0.063135,0 0.044643,-0.01488 0.084179,-0.04209 0.1262691,-0.06313 0.04209,-0.02104 0.087115,-0.03703 0.126269,-0.06313 0.024763,-0.01651 0.0349,-0.05372 0.063135,-0.06314 0.03993,-0.01331 0.091248,0.02335 0.126269,0 0.039154,-0.0261 0.02398,-0.100166 0.063135,-0.126269 0.1894036,-0.126269 0.063135,0.06313 0.1894036,0 0.055958,-0.02798 0.1319313,-0.151088 0.1894036,-0.189403 0.039154,-0.0261 0.087115,-0.03703 0.1262691,-0.06314 0.024763,-0.01651 0.036515,-0.04982 0.063135,-0.06313 0.018823,-0.0094 0.044311,0.0094 0.063134,0 0.02662,-0.01331 0.036515,-0.04983 0.063135,-0.06313 0.018823,-0.0094 0.048253,0.01488 0.063134,0 0.1306276,-0.130627 -0.1996163,0.0051 0.063135,-0.126269 0.018823,-0.0094 0.044312,0.0094 0.063135,0 0.02662,-0.01331 0.04209,-0.04209 0.063135,-0.06313 0.037132,-0.03713 0.2233019,-0.23792 0.2525381,-0.252539 0.087085,-0.04354 0.056472,0.07646 0.1262691,-0.06313 0.00941,-0.01882 -0.014881,-0.04825 0,-0.06313 0.014881,-0.01488 0.048254,0.01488 0.063135,0 0.029762,-0.02976 -0.029762,-0.09651 0,-0.126269 0.029762,-0.029762 0.096507,0.02976 0.1262691,0 0.029762,-0.029762 -0.029762,-0.096507 0,-0.1262688 0.014881,-0.014881 0.044311,0.00941 0.063134,0 0.2627503,-0.1313754 -0.067493,0.00436 0.063135,-0.1262691 0.029762,-0.029762 0.096507,0.029762 0.1262693,0 0.01488,-0.014881 -0.01488,-0.048254 0,-0.063135 0.01488,-0.014881 0.04825,0.014881 0.06313,0 0.01488,-0.014881 -0.01488,-0.048254 0,-0.063135 0.01488,-0.014881 0.04825,0.014881 0.06313,0 0.01488,-0.014881 -0.01488,-0.048253 0,-0.063135 0.01488,-0.014881 0.04431,0.00941 0.06314,0 0.20939,-0.2093909 -0.05952,0.029762 0.126269,-0.063135 0.02662,-0.01331 0.03651,-0.049825 0.06313,-0.063135 0.01882,-0.00941 0.04825,0.014881 0.06313,0 0.03327,-0.033275 0.02986,-0.092994 0.06313,-0.126269 0.01488,-0.014881 0.04825,0.014881 0.06314,0 0.01488,-0.014881 -0.01488,-0.048254 0,-0.063135 0.01488,-0.014881 0.04825,0.014881 0.06313,0 0.130628,-0.1306276 -0.199616,0.00511 0.06313,-0.126269 0.03765,-0.018823 0.09651,0.029762 0.126269,0 0.01488,-0.014881 -0.01488,-0.048254 0,-0.063135 0.01488,-0.014881 0.04562,0.011674 0.06313,0 0.04953,-0.033018 0.07674,-0.093251 0.126269,-0.126269 0.01751,-0.011674 0.04825,0.014881 0.06313,0 0.01488,-0.014881 -0.0094,-0.044312 0,-0.063135 0.01331,-0.02662 0.04983,-0.036515 0.06314,-0.063135 0.01141,-0.022832 0,-0.2717601 0,-0.3156727 0,-0.021045 0.01488,-0.048254 0,-0.063135 -0.01488,-0.014881 -0.04825,0.014881 -0.06314,0 -0.01488,-0.014881 0.0094,-0.044311 0,-0.063135 -0.01331,-0.02662 -0.04983,-0.036515 -0.06313,-0.063135 -0.0094,-0.018823 0.01488,-0.048254 0,-0.063135 -0.01488,-0.014881 -0.04825,0.014881 -0.06313,0 -0.130628,-0.1306276 0.199616,0.00511 -0.06314,-0.1262691 -0.01882,-0.00941 -0.04825,0.014881 -0.06313,0 -0.01488,-0.014881 0.01488,-0.048254 0,-0.063134 -0.01488,-0.014881 -0.04209,0 -0.06314,0 0,-0.021045 0.01488,-0.048254 0,-0.063135 -0.02976,-0.029762 -0.09651,0.029762 -0.126269,0 -0.01488,-0.014881 0.0094,-0.044312 0,-0.063135 -0.01331,-0.02662 -0.04982,-0.036515 -0.06313,-0.063134 -0.0094,-0.018823 0.01488,-0.048254 0,-0.063135 -0.01488,-0.014881 -0.04431,0.00941 -0.06314,0 -0.02662,-0.01331 -0.03651,-0.049825 -0.06313,-0.063135 -0.03765,-0.018823 -0.09651,0.029762 -0.126269,0 -0.01488,-0.014881 0.0094,-0.044311 0,-0.063135 -0.01331,-0.02662 -0.04209,-0.04209 -0.06313,-0.063135 -0.04209,-0.04209 -0.07674,-0.093251 -0.126269,-0.126269 -0.01751,-0.011674 -0.04431,0.00941 -0.06313,0 -0.07576,-0.037881 -0.1136419,-0.1515229 -0.1894033,-0.1894036 -0.037646,-0.018823 -0.088623,0.018823 -0.1262691,0 -0.02662,-0.01331 -0.049825,-0.036515 -0.063135,-0.063135 -0.00941,-0.018823 0.018823,-0.053723 0,-0.063135 -0.037646,-0.018823 -0.088623,0.018823 -0.1262691,0 -0.018823,-0.00941 0.014881,-0.048254 0,-0.063135 -0.029762,-0.029762 -0.088623,0.018823 -0.1262691,0 -0.02662,-0.01331 -0.036515,-0.049825 -0.063135,-0.063135 -0.037646,-0.018823 -0.088623,0.018823 -0.1262691,0 -0.02662,-0.01331 -0.036515,-0.049825 -0.063135,-0.063135 -0.016601,-0.0083 -0.2195238,0 -0.2525381,0 -0.1894036,0 -0.3788072,0 -0.5682108,0 -0.4419418,0 -0.8838835,0 -1.3258253,0 -0.015312,0 -0.1873732,-0.00203 -0.1894036,0 -0.014881,0.014881 0.014881,0.048254 0,0.063135 -0.029762,0.029762 -0.086339,-0.01331 -0.126269,0 -0.044643,0.014881 -0.081626,0.048254 -0.1262691,0.063135 -0.019965,0.00665 -0.044312,-0.00941 -0.063134,0 -0.02662,0.01331 -0.036515,0.049825 -0.063135,0.063135 -0.050508,0.025254 -0.138896,-0.025254 -0.1894036,0 -0.2627508,0.1313754 0.067493,-0.00436 -0.063135,0.1262691 -0.012907,0.012907 -0.1643713,-0.012516 -0.1894036,0 -0.02662,0.01331 -0.036515,0.049825 -0.063134,0.063134 -0.018823,0.00941 -0.048254,-0.014881 -0.063135,0 -0.014881,0.014881 0.00941,0.044312 0,0.063135 -0.00838,0.016763 -0.1726407,0.1810222 -0.1894036,0.1894036 -0.018823,0.00941 -0.044311,-0.00941 -0.063135,0 -0.1703832,0.085192 0.00218,0.028298 -0.063135,0.1262691 -0.033018,0.049527 -0.084179,0.084179 -0.126269,0.1262691 -0.021045,0.021045 -0.049825,0.036515 -0.063135,0.063134 -0.00941,0.018823 0.00941,0.044312 0,0.063135 -0.01331,0.02662 -0.049825,0.036515 -0.063134,0.063135 -0.00941,0.018823 0.014881,0.048254 0,0.063134 -0.014881,0.014881 -0.044311,-0.00941 -0.063135,0 -0.2627508,0.1313754 0.067493,-0.00436 -0.063135,0.1262691 -0.014881,0.014881 -0.048254,-0.014881 -0.063135,0 -0.029762,0.029762 0.018823,0.088623 0,0.1262691 -0.1313754,0.2627508 0.00436,-0.067493 -0.1262691,0.063135 -0.014881,0.014881 0.00941,0.044311 0,0.063135 -0.01331,0.02662 -0.049825,0.036515 -0.063135,0.063135 -0.00941,0.018823 0.00941,0.044311 0,0.063135 -0.01331,0.02662 -0.049825,0.036515 -0.063134,0.063135 -0.018823,0.037646 0.029762,0.096507 0,0.1262691 -0.014881,0.014881 -0.048254,-0.014881 -0.063135,0 -0.014881,0.014881 0.014881,0.048254 0,0.063135 -0.014881,0.014881 -0.048253,-0.014881 -0.063134,0 -0.014881,0.014881 0.00941,0.044311 0,0.063135 -0.01331,0.02662 -0.049825,0.036515 -0.063135,0.063135 -0.00941,0.018823 0.014881,0.048254 0,0.063135 -0.014881,0.014881 -0.048254,-0.014881 -0.063135,0 -0.029762,0.029762 0.018823,0.088623 0,0.1262691 -0.01331,0.02662 -0.049825,0.036515 -0.063135,0.063134 -0.00941,0.018823 0.014881,0.048254 0,0.063135 -0.014881,0.014881 -0.053723,-0.018823 -0.063134,0 -0.018823,0.037646 0.01331,0.086339 0,0.126269 -0.018823,0.056469 -0.093251,0.076742 -0.1262691,0.1262691 -0.026103,0.039154 -0.048254,0.081626 -0.063135,0.1262691 -0.00666,0.019965 0.014881,0.048254 0,0.063135 -0.014881,0.014881 -0.053723,-0.018823 -0.063135,0 -0.1956559,0.3913118 0.1118034,-0.034203 0,0.1894036 -0.01331,0.02662 -0.049825,0.036515 -0.063135,0.063134 -0.00941,0.01882 0.014881,0.04825 0,0.06313 -0.033275,0.03328 -0.1001662,0.02398 -0.1262691,0.06313 -0.023347,0.03502 0.01331,0.08634 0,0.126269 -0.00941,0.02824 -0.049825,0.03651 -0.063135,0.06314 -0.00941,0.01882 0.014881,0.04825 0,0.06313 -0.014881,0.01488 -0.048254,-0.01488 -0.063134,0 -0.1777703,0.0039 -0.016077,0.142346 -0.063135,0.189404 -0.014881,0.01488 -0.048254,-0.01488 -0.063135,0 -0.014881,0.01488 0.00941,0.04431 0,0.06314 -0.02662,0.05324 -0.099649,0.07303 -0.1262691,0.126269 -0.00941,0.01882 0.014881,0.04825 0,0.06313 -0.014881,0.01488 -0.053723,-0.01882 -0.063134,0 -0.018823,0.03765 0.029762,0.09651 0,0.126269 -0.029762,0.02976 -0.088623,-0.01882 -0.1262691,0 -0.018823,0.0094 0.00941,0.04431 0,0.06313 -0.01331,0.02662 -0.049825,0.03651 -0.063134,0.06313 -0.00941,0.01882 0.00941,0.04431 0,0.06313 -0.1313754,0.262751 0.00436,-0.06749 -0.1262691,0.06313 -0.014881,0.01488 0.00941,0.04431 0,0.06314 -0.02662,0.05324 -0.093251,0.07674 -0.1262691,0.126269 -0.026103,0.03915 -0.037032,0.08712 -0.063134,0.126269 -0.016509,0.02476 -0.049825,0.03651 -0.063135,0.06314 -0.00941,0.01882 0.014881,0.04825 0,0.06313 -0.014881,0.01488 -0.048254,-0.01488 -0.063135,0 -0.014881,0.01488 0.00941,0.04431 0,0.06313 -0.01331,0.02662 -0.049825,0.03651 -0.063134,0.06313 -0.00941,0.01882 0.00941,0.04431 0,0.06314 -0.144471,0.288942 0.026167,-0.267906 -0.1262691,0.189403 -0.00665,0.01996 0.014881,0.04825 0,0.06313 -0.014881,0.01488 -0.053723,-0.01882 -0.063135,0 -0.018823,0.03765 0.018823,0.08862 0,0.126269 -0.00941,0.01882 -0.048254,-0.01488 -0.063134,0 -0.033275,0.03327 -0.048254,0.08163 -0.063135,0.126269 -0.00665,0.01997 0.014881,0.04825 0,0.06314 -0.014881,0.01488 -0.048253,-0.01488 -0.063134,0 -0.029762,0.02976 0.029762,0.09651 0,0.126269 -0.014881,0.01488 -0.044311,-0.0094 -0.063134,0 -0.139594,0.0698 -0.019592,0.03918 -0.063135,0.126269 -0.02662,0.05324 -0.099649,0.07303 -0.126269,0.126269 -0.033333,0.06667 0.033333,0.0596 0,0.126269 -0.01331,0.02662 -0.049825,0.03651 -0.063135,0.06313 -0.012516,0.02503 0.012907,0.176497 0,0.189404 -0.014881,0.01488 -0.048253,-0.01488 -0.063134,0 -0.029762,0.02976 0.018823,0.08862 0,0.126269 -0.01331,0.02662 -0.049825,0.03651 -0.063135,0.06313 -0.00941,0.01882 0.00665,0.04317 0,0.06313 -0.014881,0.04464 -0.048254,0.08163 -0.063135,0.126269 -0.00665,0.01996 0.014881,0.04825 0,0.06313 -0.014881,0.01488 -0.048254,-0.01488 -0.063135,0 -0.014881,0.01488 0.014881,0.04825 0,0.06313 -0.014881,0.01488 -0.048254,-0.01488 -0.063134,0 -0.029762,0.02976 0.029762,0.09651 0,0.126269 -0.014881,0.01488 -0.048254,-0.01488 -0.063135,0 -0.031567,0.03157 0.031567,0.157837 0,0.189404 -0.014881,0.01488 -0.048254,-0.01488 -0.063135,0 -0.014881,0.01488 0.014881,0.04825 0,0.06313 -0.014881,0.01488 -0.048254,-0.01488 -0.063134,0 -0.029762,0.02976 0.032866,0.09998 0,0.12627 -0.095822,0.07666 -0.2104485,0.126269 -0.3156727,0.189403 z"
         style="fill:#ff8500;fill-opacity:1;stroke:none" />
      <path
         transform="translate(0,1036.3622)"
         inkscape:connector-curvature="0"
         id="path3770"
         d="m 10.038391,7.0348961 c 0.04209,-0.084179 0.08418,-0.1683587 0.126269,-0.2525381 0.06314,-0.084179 0.137198,-0.1611779 0.189404,-0.2525381 0.03302,-0.057781 0.0289,-0.1323378 0.06313,-0.1894036 0.03062,-0.051041 0.09564,-0.075228 0.126269,-0.1262691 0.03424,-0.057066 0.03842,-0.1276138 0.06314,-0.1894036 0.01748,-0.043692 0.04566,-0.082577 0.06313,-0.1262691 0.02472,-0.06179 0.03337,-0.1298798 0.06313,-0.1894036 0.144471,-0.288942 -0.02617,0.2679061 0.126269,-0.1894036 0.0067,-0.019965 -0.0067,-0.04317 0,-0.063135 0.01488,-0.044643 0.04825,-0.081626 0.06313,-0.1262691 0.01997,-0.059895 -0.01996,-0.1295089 0,-0.1894036 0.0094,-0.028235 0.05372,-0.0349 0.06314,-0.063135 0.01331,-0.03993 0,-0.084179 0,-0.1262691 0,-0.021045 -0.0094,-0.044311 0,-0.063135 0.01331,-0.02662 0.05372,-0.0349 0.06313,-0.063135 0.01331,-0.03993 0,-0.084179 0,-0.126269 0,-0.021045 -0.0094,-0.044312 0,-0.063135 0.01331,-0.02662 0.05372,-0.0349 0.06313,-0.063134 0.01131,-0.033942 0,-0.1990852 0,-0.2525381 0,-0.1683588 0,-0.3367175 0,-0.5050763 0,-0.1683588 0,-0.3367175 0,-0.5050763 0,-0.041486 0.01187,-0.1537832 0,-0.1894036 -0.01488,-0.044643 -0.04825,-0.081626 -0.06313,-0.126269 -0.01764,-0.052915 0.02092,-0.2106974 0,-0.2525382 -0.01331,-0.02662 -0.04982,-0.036515 -0.06313,-0.063135 -0.0094,-0.018823 0,-0.04209 0,-0.063135 0,-0.1052242 0,-0.2104484 0,-0.3156726 0,-0.04209 0,-0.084179 0,-0.1262691 0,-0.021045 0.0094,-0.044311 0,-0.063134 -0.07802,-0.156031 -0.06314,0.021793 -0.06314,-0.1262691"
         style="fill:none;stroke:#007c08;stroke-width:1px;stroke-linecap:butt;stroke-linejoin:miter;stroke-opacity:1" />
      <path
         transform="translate(0,1036.3622)"
         inkscape:connector-curvature="0"
         id="path3772"
         d="m 10.796005,7.3505688 c 0.217802,-0.077334 0.364608,-0.2770058 0.568211,-0.3788072 0.01333,-0.00667 0.626278,-0.24916 0.631346,-0.2525381 0.295097,-0.196732 0.209256,-0.2723914 0.441941,-0.5050763 0.05365,-0.053654 0.130153,-0.078868 0.189404,-0.1262691 0.04648,-0.037184 0.07979,-0.089085 0.126269,-0.126269 0.05925,-0.047401 0.135749,-0.072615 0.189404,-0.1262691 0.03327,-0.033275 0.0349,-0.088623 0.06313,-0.1262691 0.03571,-0.047619 0.08909,-0.079789 0.126269,-0.126269 0.186163,-0.232704 0.07138,-0.1189648 0.189404,-0.3156727 0.03904,-0.065065 0.08074,-0.128701 0.126269,-0.1894036 0.03571,-0.047619 0.09965,-0.073029 0.126269,-0.1262691 0.0094,-0.018823 -0.0094,-0.044311 0,-0.063135 0.01331,-0.02662 0.04982,-0.036515 0.06313,-0.063135 0.01882,-0.037646 -0.02976,-0.096507 0,-0.126269 0.01488,-0.014881 0.04825,0.014881 0.06313,0 0.01488,-0.014881 -0.0094,-0.044312 0,-0.063135 0.01331,-0.02662 0.04209,-0.04209 0.06313,-0.063134 0.02105,-0.021045 0.03651,-0.049825 0.06314,-0.063135 0.01882,-0.00941 0.04825,0.014881 0.06313,0 0.01488,-0.014881 -0.0094,-0.044312 0,-0.063135 0.01331,-0.02662 0.04982,-0.036515 0.06313,-0.063135 0.0094,-0.018823 -0.01488,-0.048254 0,-0.063134 0.01488,-0.014881 0.04825,0.014881 0.06314,0 0.03327,-0.033275 0.02986,-0.092994 0.06313,-0.1262691 0.0769,-0.076897 0.141056,-0.029574 0.189404,-0.1262691 0.0094,-0.018823 -0.01488,-0.048254 0,-0.063135 0.02976,-0.029762 0.09651,0.029762 0.126269,0 0.02976,-0.029762 -0.02976,-0.096507 0,-0.1262691 0.02976,-0.029762 0.09651,0.029762 0.126269,0 0.01488,-0.014881 -0.01488,-0.048254 0,-0.063134 0.02976,-0.029762 0.09651,0.029762 0.126269,0 0.01488,-0.014881 -0.01488,-0.048254 0,-0.063135 0.02976,-0.029762 0.09651,0.029762 0.126269,0 0.08418,-0.084179 -0.105224,-0.063135 0.06313,-0.063135"
         style="fill:none;stroke:#00781d;stroke-width:1px;stroke-linecap:butt;stroke-linejoin:miter;stroke-opacity:1" />
    </g>
    <g
       id="g3859"
       transform="translate(-21.655145,14.962885)">
      <path
         transform="translate(0,1036.3622)"
         inkscape:connector-curvature="0"
         id="path3836"
         d="M 5.8715117,7.8556451 C 5.8570057,7.6760497 5.6383837,7.6637894 5.555839,7.5399724 5.5297361,7.500818 5.5259793,7.4469782 5.4927045,7.4137033 c -0.014881,-0.014881 -0.04317,0.00666 -0.063135,0 -0.044643,-0.014881 -0.081626,-0.048253 -0.126269,-0.063135 -0.019965,-0.00665 -0.044312,0.00941 -0.063135,0 -0.02662,-0.01331 -0.0349,-0.053723 -0.063135,-0.063134 -0.035915,-0.011972 -0.2562102,0 -0.3156727,0 -0.033014,0 -0.2359374,-0.0083 -0.2525381,0 -0.05324,0.02662 -0.0698,0.107446 -0.1262691,0.126269 -0.03993,0.01331 -0.086339,-0.01331 -0.126269,0 -0.028235,0.00941 -0.036515,0.049825 -0.063135,0.063135 -0.059524,0.029762 -0.1276138,0.038419 -0.1894036,0.063135 -0.043692,0.017477 -0.082577,0.045658 -0.126269,0.063135 -0.06179,0.024716 -0.1276139,0.038419 -0.1894036,0.063135 -0.043692,0.017477 -0.080616,0.051721 -0.1262691,0.063135 -0.040833,0.010208 -0.085436,-0.010208 -0.1262691,0 C 3.3827126,7.7675833 3.4087786,7.8244433 3.2829941,7.9187819 3.2453481,7.9470169 3.1958791,7.9558139 3.156725,7.9819169 3.131962,7.9984259 3.118354,8.0285429 3.09359,8.0450519 3.015281,8.0972579 2.9193606,8.1191149 2.8410518,8.171321 2.7915248,8.204339 2.7643098,8.264572 2.7147828,8.29759 2.6756288,8.323693 2.6146166,8.32157 2.5885137,8.360725 c -0.023347,0.035021 0.010208,0.085436 0,0.126269 -0.076218,0.3048732 -0.030003,-0.00313 -0.1262691,0.1894036 -0.00961,0.019214 0,0.1609705 0,0.1894036 0,0.1262691 0,0.2525382 0,0.3788072 0,0.1894036 0,0.3788072 0,0.5682108 0,0.063135 -0.015312,0.1281542 0,0.1894038 0.011413,0.04565 0.051721,0.08062 0.063135,0.126269 0.013435,0.05374 -0.018122,0.27943 0,0.315673 0.01331,0.02662 0.046626,0.03837 0.063134,0.06314 0.1795088,0.269263 -0.083672,-0.02054 0.1894036,0.252538 0.04209,0.04209 0.099649,0.07303 0.1262691,0.126269 0.038805,0.07761 0.030909,0.171974 0.063135,0.252538 0.011053,0.02763 0.046626,0.03837 0.063134,0.06313 0.026103,0.03916 0.04209,0.08418 0.063135,0.126269 0.04209,0.08418 0.084179,0.168359 0.126269,0.252539 0.04209,0.08418 0.084179,0.168358 0.1262691,0.252538 0.021045,0.04209 0.051721,0.08062 0.063134,0.126269 0.020417,0.08167 -0.020417,0.170872 0,0.252538 0.011413,0.04565 0.04209,0.08418 0.063135,0.126269 0.021045,0.04209 0.037032,0.08712 0.063134,0.126269 0.016509,0.02476 0.046626,0.03837 0.063135,0.06314 0.1318681,0.197802 -0.0056,0.05474 0.126269,0.252538 0.053583,0.08037 0.1941926,0.174744 0.2525382,0.252538 0.028235,0.03765 0.037032,0.08712 0.063134,0.126269 0.016509,0.02476 0.046626,0.03837 0.063135,0.06313 0.026103,0.03915 0.02986,0.093 0.063135,0.12627 0.033275,0.03327 0.087115,0.03703 0.126269,0.06313 0.049527,0.03302 0.073029,0.09965 0.1262691,0.126269 0.018823,0.0094 0.044311,-0.0094 0.063134,0 0.022222,0.01111 0.1040469,0.115158 0.1262691,0.126269 0.037646,0.01882 0.086339,-0.01331 0.1262691,0 0.044643,0.01488 0.080616,0.05172 0.126269,0.06314 0.040833,0.01021 0.086339,-0.01331 0.1262691,0 0.028235,0.0094 0.0349,0.05372 0.063135,0.06313 0.059895,0.01997 0.129509,-0.01996 0.1894036,0 0.044643,0.01488 0.080616,0.05172 0.1262691,0.06314 0.1020825,0.02552 0.2118801,-0.0173 0.3156727,0 0.065644,0.01094 0.1237594,0.05219 0.1894036,0.06313 0.062276,0.01038 0.1262691,0 0.1894036,0 0.084179,0 0.1683587,0 0.2525381,0 0.6734351,0 1.3468701,0 2.0203051,0 0.6103005,0 1.220601,0 1.8309012,0 0.126269,0 0.252538,0 0.378807,0 0.105224,0 0.212492,0.02064 0.315673,0 0.111129,-0.02223 0.205041,-0.101684 0.315673,-0.126269 0.08217,-0.01826 0.168358,0 0.252538,0 0.105224,0 0.210448,0 0.315672,0 0.04209,0 0.08634,0.01331 0.126269,0 0.02824,-0.0094 0.0349,-0.05372 0.06314,-0.06313 0.07986,-0.02662 0.172679,0.02662 0.252538,0 0.02824,-0.0094 0.03651,-0.04983 0.06314,-0.06314 0.01882,-0.0094 0.04825,0.01488 0.06313,0 0.01488,-0.01488 -0.0094,-0.04431 0,-0.06313 0.01331,-0.02662 0.04209,-0.04209 0.06313,-0.06313 0.06313,-0.06313 0.126269,-0.126269 0.189403,-0.189403 0.02104,-0.02104 0.04663,-0.03837 0.06313,-0.06313 0.0261,-0.03915 0.03703,-0.08712 0.06313,-0.126269 0.01651,-0.02476 0.04982,-0.03651 0.06313,-0.06314 0.0094,-0.01882 0,-0.04209 0,-0.06313 0,-0.04209 -0.01021,-0.08544 0,-0.126269 0.01141,-0.04565 0.05172,-0.08062 0.06313,-0.126269 0.01021,-0.04083 0,-0.08418 0,-0.126269 0,-0.04209 0,-0.08418 0,-0.126269 0,-0.168359 0,-0.336718 0,-0.505077 0,-0.0631 -0.0135,-0.261659 0,-0.315672 0.01614,-0.06456 0.04699,-0.124841 0.06314,-0.189404 0.0198,-0.07919 -0.01685,-0.231423 0,-0.315673 0.01702,-0.08508 0.04612,-0.167453 0.06313,-0.252538 0.01238,-0.06191 0,-0.126269 0,-0.189403 0,-0.105225 0,-0.210449 0,-0.315673 0,-0.05169 -0.01364,-0.274767 0,-0.315673 0.01488,-0.04464 0.05172,-0.08062 0.06313,-0.126269 0.01021,-0.040833 0,-0.084179 0,-0.1262692 0,-0.1473139 0,-0.2946278 0,-0.4419418 0,-0.04209 -0.01021,-0.085436 0,-0.126269 0.01141,-0.045653 0.05172,-0.080616 0.06314,-0.1262691 0.01241,-0.049663 0,-0.313152 0,-0.3788072 0,-0.073341 0.01431,-0.2584383 0,-0.3156727 -0.01141,-0.045653 -0.04209,-0.084179 -0.06314,-0.126269 -0.02104,-0.04209 -0.03703,-0.087115 -0.06313,-0.1262691 -0.01651,-0.024763 -0.04983,-0.036515 -0.06313,-0.063134 -0.0094,-0.018823 0.0094,-0.044312 0,-0.063135 -0.0084,-0.016763 -0.172641,-0.1810221 -0.189404,-0.1894036 -0.01882,-0.00941 -0.04825,0.014881 -0.06313,0 -0.02976,-0.029762 0.02976,-0.096507 0,-0.126269 -3.36e-4,-3.354e-4 -0.187293,5.276e-4 -0.189404,0 -0.04565,-0.011413 -0.08102,-0.050207 -0.126269,-0.063135 -0.415893,-0.1188266 -0.251446,0.0075 -0.69448,-0.1894036 -0.06934,-0.030817 -0.11966,-0.096379 -0.189403,-0.1262691 -0.159509,-0.068361 -0.342586,-0.065335 -0.505077,-0.126269 -0.08812,-0.033046 -0.16025,-0.1078115 -0.252538,-0.1262691 -0.123817,-0.024763 -0.25331,0.013944 -0.378807,0 -0.06614,-0.00735 -0.123523,-0.053723 -0.189404,-0.063135 -0.08333,-0.011905 -0.168358,0 -0.2525374,0 -0.063134,0 -0.126269,0 -0.1894036,0 -0.04209,0 -0.086339,0.01331 -0.126269,0 C 9.50507,7.0886355 9.49679,7.0482205 9.47017,7.0349105 c -0.0033,-0.00165 -0.1861006,-0.00165 -0.1894036,0 -0.02662,0.01331 -0.036515,0.049825 -0.063135,0.063135 -0.018823,0.00941 -0.044311,-0.00941 -0.063135,0 -0.02662,0.01331 -0.0349,0.053723 -0.063135,0.063135 -0.03993,0.01331 -0.091248,-0.023347 -0.126269,0 -0.039154,0.026103 -0.02986,0.092994 -0.063135,0.1262691 -0.033275,0.033275 -0.087115,0.037032 -0.126269,0.063134 -0.024763,0.016509 -0.04209,0.04209 -0.063135,0.063135 -0.021045,0.021045 -0.046626,0.038371 -0.063135,0.063135 -0.026103,0.039154 -0.037032,0.087115 -0.063135,0.126269 -0.016509,0.024763 -0.04209,0.04209 -0.063135,0.063135 -0.021045,0.04209 -0.037032,0.087115 -0.063135,0.1262691 -0.016509,0.024763 -0.046626,0.038371 -0.063135,0.063135 -0.026103,0.039154 -0.048254,0.081626 -0.063135,0.1262691 -0.01331,0.03993 0.029762,0.096507 0,0.126269 -0.014881,0.014881 -0.048254,-0.014881 -0.063135,0 -0.014881,0.014881 0.00941,0.044312 0,0.063135 -0.02662,0.05324 -0.099649,0.073029 -0.1262691,0.126269 -0.00941,0.018823 0.014881,0.048254 0,0.063135 -0.014881,0.014881 -0.04209,0 -0.063135,0 -0.063135,0 -0.1262691,0 -0.1894036,0 -0.2104485,0 -0.4208969,0 -0.6313454,0 -0.2946278,0 -0.5892556,0 -0.8838834,0 -0.069613,0 -0.3334364,0.011343 -0.3788072,0 -0.028873,-0.00722 -0.036515,-0.049825 -0.063135,-0.063135 -0.025032,-0.012516 -0.1764966,0.012907 -0.1894036,0 -0.014881,-0.014881 0.014881,-0.048254 0,-0.063135 C 5.5919013,8.081111 5.6525345,8.2532264 5.555839,8.1081832 5.5297361,8.0690288 5.5137493,8.0240038 5.4927045,7.9819142 5.4716596,7.9398245 5.4444509,7.9002879 5.4295699,7.8556451 5.4021308,7.7733277 5.390273,7.6865385 5.3664354,7.6031069 5.3648161,7.5974393 5.2403711,7.2257327 5.2401663,7.2242997 c -0.011905,-0.083333 0,-0.1683587 0,-0.2525381 0,-0.1262691 0,-0.2525381 0,-0.3788072 0,-0.063135 0,-0.1262691 0,-0.1894036 0,-0.04209 0.010208,-0.085436 0,-0.1262691 -0.011413,-0.045653 -0.048254,-0.081626 -0.063135,-0.126269 -0.013635,-0.040906 0,-0.2639845 0,-0.3156727"
         style="fill:#009a25;fill-opacity:1;stroke:#05e71a;stroke-width:1px;stroke-linecap:butt;stroke-linejoin:miter;stroke-opacity:1" />
      <path
         transform="translate(0,1036.3622)"
         inkscape:connector-curvature="0"
         id="path3838"
         d="M 7.1342024,8.1713178 C 6.8320912,7.4160397 7.1822842,8.3636451 6.9447988,7.4137033 6.9173122,7.3037571 6.8572594,7.2045374 6.8185297,7.0980307 6.7730439,6.9729448 6.714142,6.8505118 6.6922606,6.7192235 6.5578045,5.9124867 6.8493299,6.7690231 6.6291261,5.9616091 6.599307,5.8522724 6.5274417,5.7565676 6.502857,5.6459364 c -0.018261,-0.082175 0,-0.1683588 0,-0.2525381 0,-0.1052243 0,-0.2104485 0,-0.3156727 0,-0.036378 -0.011505,-0.2926617 0,-0.3156727 0.01331,-0.02662 0.049825,-0.036515 0.063135,-0.063134 0.00941,-0.018823 -0.00941,-0.044312 0,-0.063135 0.01331,-0.02662 0.049825,-0.036515 0.063134,-0.063134 0.00941,-0.018823 -0.00941,-0.044311 0,-0.063135 0.01331,-0.02662 0.046626,-0.038371 0.063135,-0.063135 0.026103,-0.039154 0.037032,-0.087115 0.063135,-0.126269 0.016509,-0.024763 0.04209,-0.04209 0.063135,-0.063135 0.063135,-0.063134 0.1262691,-0.126269 0.1894036,-0.1894036 0.021045,-0.021045 0.046626,-0.038371 0.063134,-0.063135 0.026103,-0.039154 0.02986,-0.092994 0.063135,-0.1262691 0.014881,-0.014881 0.044311,0.00941 0.063134,0 0.02662,-0.01331 0.04209,-0.04209 0.063135,-0.063134 0.021045,-0.021045 0.04209,-0.04209 0.063135,-0.063135 0.144757,-0.1447571 -0.03993,0.02662 0.1894036,-0.1262691 0.024763,-0.016509 0.036515,-0.049825 0.063134,-0.063134 0.037646,-0.018823 0.088623,0.018823 0.1262691,0 0.02662,-0.01331 0.036515,-0.049825 0.063135,-0.063135 0.018823,-0.00941 0.04209,0 0.063135,0 0.06358,0 0.3438927,0.011638 0.3788072,0 0.028235,-0.00941 0.038371,-0.046626 0.063135,-0.063135 0.039154,-0.026103 0.087115,-0.037032 0.1262691,-0.063134 0.024763,-0.016509 0.038371,-0.046626 0.063135,-0.063135 0.039154,-0.026103 0.084179,-0.04209 0.1262691,-0.063134 0.04209,-0.021045 0.081626,-0.048254 0.126269,-0.063134 0.019965,-0.00666 0.044311,0.00941 0.063135,0 0.2627508,-0.1313755 -0.067493,0.00436 0.063135,-0.1262691 0.014881,-0.014881 0.048254,0.014881 0.063134,0 0.014881,-0.014881 -0.014881,-0.048254 0,-0.063135 0.029762,-0.029762 0.096507,0.029762 0.1262691,0 0.02806,-0.02806 -0.049105,-0.1192542 0.063135,-0.063135 0.1354847,0.067742 0.00291,0.068946 0.063135,0.1894036 0.00941,0.018823 0.048254,-0.014881 0.063135,0 0.1306276,0.1306276 -0.1996163,-0.00511 0.063135,0.1262691 0.018823,0.00941 0.048254,-0.014881 0.063135,0 0.029762,0.029762 -0.018823,0.088623 0,0.1262691 0.01331,0.02662 0.049825,0.036515 0.063135,0.063134 0.0083,0.016601 0,0.2195238 0,0.2525381 0,0.021045 0.018823,0.053723 0,0.063135 -0.037646,0.018823 -0.085436,-0.010208 -0.1262691,0 -0.045653,0.011413 -0.080616,0.051721 -0.126269,0.063135 -0.053741,0.013435 -0.2794292,-0.018122 -0.3156727,0 -0.02662,0.01331 -0.036515,0.049825 -0.063135,0.063134 -0.018823,0.00941 -0.044312,-0.00941 -0.063135,0 -0.016763,0.00838 -0.1810221,0.1726407 -0.1894036,0.1894036 -0.00941,0.018823 0.014881,0.048254 0,0.063135 -0.014881,0.014881 -0.048254,-0.014881 -0.063135,0 -0.014881,0.014881 0.014881,0.048254 0,0.063135 -0.014881,0.014881 -0.044312,-0.00941 -0.063135,0 -0.2627509,0.1313754 0.067493,-0.00436 -0.063135,0.1262691 -0.033275,0.033275 -0.092994,0.02986 -0.1262691,0.063134 -0.014881,0.014881 0.00941,0.044312 0,0.063135 -0.02662,0.05324 -0.093251,0.076742 -0.126269,0.1262691 -0.026103,0.039154 -0.037032,0.087115 -0.063135,0.1262691 -0.016509,0.024763 -0.049825,0.036515 -0.063134,0.063134 -0.00941,0.018823 0.00665,0.04317 0,0.063135 -0.014881,0.044643 -0.048254,0.081626 -0.063135,0.1262691 -0.00666,0.019965 0.014881,0.048254 0,0.063135 -0.014881,0.014881 -0.053723,-0.018823 -0.063135,0 -0.018823,0.037646 0.01331,0.086339 0,0.1262691 -0.00941,0.028235 -0.049825,0.036515 -0.063135,0.063134 -0.00941,0.018823 0.00941,0.044312 0,0.063135 -0.01331,0.02662 -0.053723,0.0349 -0.063135,0.063134 -0.01331,0.03993 0.01331,0.086339 0,0.1262691 -0.00941,0.028235 -0.049825,0.036515 -0.063135,0.063135 -0.018823,0.037646 0.018823,0.088623 0,0.1262691 -0.01331,0.02662 -0.049825,0.036515 -0.063135,0.063135 -0.019841,0.039681 0.019841,0.2128567 0,0.2525382 -0.01331,0.02662 -0.053723,0.0349 -0.063134,0.063134 -0.01331,0.03993 0,0.084179 0,0.1262691 0,0.021045 0.00941,0.044311 0,0.063135 -0.01331,0.02662 -0.049825,0.036515 -0.063135,0.063134 -0.00941,0.018823 0,0.04209 0,0.063135 0,0.1052242 0,0.2104484 0,0.3156726 0,0.021045 0,0.04209 0,0.063135 0,0.021045 0.00941,0.044311 0,0.063135 -0.01331,0.02662 -0.049825,0.036515 -0.063134,0.063134 -0.00941,0.018823 0,0.04209 0,0.063135 0,0.021045 0,0.04209 0,0.063134 0,0.1052242 0,0.2104485 0,0.3156727 0,0.04209 0,0.084179 0,0.126269 0,0.021045 0.00941,0.044312 0,0.063135 -0.01331,0.02662 -0.049825,0.036515 -0.063135,0.063135 -0.019915,0.03983 0.019915,0.275843 0,0.3156727 C 7.2687293,7.965403 7.1973382,8.0660949 7.1342037,8.1713192 z"
         style="fill:none;stroke:#000000;stroke-width:1px;stroke-linecap:butt;stroke-linejoin:miter;stroke-opacity:1" />
    </g>
    <text
       xml:space="preserve"
       style="font-size:6px;font-style:normal;font-variant:normal;font-weight:normal;font-stretch:normal;text-align:start;line-height:125%;letter-spacing:0px;word-spacing:0px;writing-mode:lr-tb;text-anchor:start;fill:#000000;fill-opacity:1;stroke:none;font-family:Sans;-inkscape-font-specification:Sans"
       x="-643.45642"
       y="832.9743"
       id="text3888"
       sodipodi:linespacing="125%"
       transform="matrix(0.77794359,-0.62833412,0.62833412,0.77794359,0,0)"><tspan
         sodipodi:role="line"
         id="tspan3890"
         x="-643.45642"
         y="832.9743">Dayry</tspan></text>
    <text
       xml:space="preserve"
       style="font-size:6px;font-style:normal;font-variant:normal;font-weight:normal;font-stretch:normal;text-align:start;line-height:125%;letter-spacing:0px;word-spacing:0px;writing-mode:lr-tb;text-anchor:start;fill:#000000;fill-opacity:1;stroke:none;font-family:Sans;-inkscape-font-specification:Sans"
       x="-672.84387"
       y="828.9801"
       id="text3888-1"
       sodipodi:linespacing="125%"
       transform="matrix(0.77794359,-0.62833412,0.62833412,0.77794359,0,0)"><tspan
         sodipodi:role="line"
         id="tspan3890-1"
         x="-672.84387"
         y="828.9801">MEAT</tspan></text>
    <text
       xml:space="preserve"
       style="font-size:6px;font-style:normal;font-variant:normal;font-weight:normal;font-stretch:normal;text-align:start;line-height:125%;letter-spacing:0px;word-spacing:0px;writing-mode:lr-tb;text-anchor:start;fill:#000000;fill-opacity:1;stroke:none;font-family:Sans;-inkscape-font-specification:Sans"
       x="-660.16626"
       y="839.07843"
       id="text3888-9"
       sodipodi:linespacing="125%"
       transform="matrix(0.77794359,-0.62833412,0.62833412,0.77794359,0,0)"><tspan
         sodipodi:role="line"
         id="tspan3890-2"
         x="-660.16626"
         y="839.07843">FISH</tspan></text>
    <path
       style="fill:none;stroke:#000000;stroke-width:1px;stroke-linecap:butt;stroke-linejoin:miter;stroke-opacity:1"
       d="m 21.785714,1031.4693 3.928572,9.7769 4.464286,0 c 1.473814,0 2.977235,-11.2948 2.410714,-10.2233"
       id="path3969"
       inkscape:connector-curvature="0"
       sodipodi:nodetypes="ccsc" />
    <path
       sodipodi:type="arc"
       style="color:#000000;fill:none;stroke:#000000;stroke-width:1;stroke-linecap:butt;stroke-miterlimit:4;stroke-opacity:1;stroke-dasharray:none;stroke-dashoffset:0;marker:none;visibility:visible;display:inline;overflow:visible;enable-background:accumulate"
       id="path3973"
       sodipodi:cx="8.0580359"
       sodipodi:cy="2.875"
       sodipodi:rx="5.46875"
       sodipodi:ry="2.0535715"
       d="m 13.526786,2.875 a 5.46875,2.0535715 0 1 1 -10.9375001,0 5.46875,2.0535715 0 1 1 10.9375001,0 z"
       transform="translate(19.0625,1028.1033)" />
    <g
       id="g4002"
       transform="translate(17.276786,11.830357)">
      <path
         sodipodi:nodetypes="ccccc"
         inkscape:connector-curvature="0"
         id="path3996"
         d="m 5.1339286,1045.4426 3.2589288,4.375 c 1.369048,-0.2679 3.0417746,1.4825 4.0178566,-1.8304 l -2.9017856,-4.2411 z"
         style="fill:none;stroke:#000000;stroke-width:1px;stroke-linecap:butt;stroke-linejoin:miter;stroke-opacity:1" />
      <path
         sodipodi:nodetypes="cc"
         inkscape:connector-curvature="0"
         id="path3998"
         d="m 7.9017857,1044.4604 -3.9285714,-5.4911"
         style="fill:none;stroke:#000000;stroke-width:1px;stroke-linecap:butt;stroke-linejoin:miter;stroke-opacity:1" />
      <path
         sodipodi:nodetypes="ccc"
         inkscape:connector-curvature="0"
         id="path4000"
         d="m 1.9196428,1040.4426 1.634771,-0.8142 2.7402292,-1.5966"
         style="fill:none;stroke:#000000;stroke-width:1px;stroke-linecap:butt;stroke-linejoin:miter;stroke-opacity:1" />
    </g>
    <text
       xml:space="preserve"
       style="font-size:6px;font-style:normal;font-variant:normal;font-weight:normal;font-stretch:normal;text-align:start;line-height:125%;letter-spacing:0px;word-spacing:0px;writing-mode:lr-tb;text-anchor:start;fill:#000000;fill-opacity:1;stroke:none;font-family:Sans;-inkscape-font-specification:Sans"
       x="-658.35101"
       y="818.99396"
       id="text3888-1-2"
       sodipodi:linespacing="125%"
       transform="matrix(0.77794359,-0.62833412,0.62833412,0.77794359,0,0)"><tspan
         sodipodi:role="line"
         id="tspan3890-1-5"
         x="-658.35101"
         y="818.99396">Other</tspan></text>
  </g>
</svg>
