<?xml version="1.0" encoding="UTF-8" standalone="no"?>
<!-- Created with Inkscape (http://www.inkscape.org/) -->

<svg
   xmlns:dc="http://purl.org/dc/elements/1.1/"
   xmlns:cc="http://creativecommons.org/ns#"
   xmlns:rdf="http://www.w3.org/1999/02/22-rdf-syntax-ns#"
   xmlns:svg="http://www.w3.org/2000/svg"
   xmlns="http://www.w3.org/2000/svg"
   xmlns:sodipodi="http://sodipodi.sourceforge.net/DTD/sodipodi-0.dtd"
   xmlns:inkscape="http://www.inkscape.org/namespaces/inkscape"
   width="30"
   height="30"
   id="svg2"
   version="1.1"
   inkscape:version="0.48.1 r9760"
   sodipodi:docname="categories_icons.svg"
   inkscape:export-filename="/home/mattions/projects/ssouk_root/ssouk_web/design/icons/vegetables_30x30.png"
   inkscape:export-xdpi="90"
   inkscape:export-ydpi="90">
  <defs
     id="defs4" />
  <sodipodi:namedview
     id="base"
     pagecolor="#ffffff"
     bordercolor="#666666"
     borderopacity="1.0"
     inkscape:pageopacity="0.0"
     inkscape:pageshadow="2"
     inkscape:zoom="11.2"
     inkscape:cx="-7.7085336"
     inkscape:cy="10.880342"
     inkscape:document-units="px"
     inkscape:current-layer="layer1"
     showgrid="false"
     inkscape:window-width="1280"
     inkscape:window-height="776"
     inkscape:window-x="0"
     inkscape:window-y="24"
     inkscape:window-maximized="1" />
  <metadata
     id="metadata7">
    <rdf:RDF>
      <cc:Work
         rdf:about="">
        <dc:format>image/svg+xml</dc:format>
        <dc:type
           rdf:resource="http://purl.org/dc/dcmitype/StillImage" />
        <dc:title></dc:title>
      </cc:Work>
    </rdf:RDF>
  </metadata>
  <g
     inkscape:label="Layer 1"
     inkscape:groupmode="layer"
     id="layer1"
     transform="translate(0,-1022.3622)">
    <g
       id="g3112"
       transform="matrix(1,0,0,1.0513803,-0.28315721,-53.024073)">
      <path
         sodipodi:nodetypes="cccccccczcc"
         inkscape:connector-curvature="0"
         id="path3768"
         d="m 12.852938,1051.1075 c 3.474907,-2.6307 6.056912,-14.2196 7.935488,-19.8328 0.01201,-0.039 0.09878,-0.039 0.102062,-0.079 -0.129066,-0.056 -0.05014,-0.1765 -0.07418,-0.2611 -1.354442,-1.0906 -1.90662,-0.7706 -4.156444,-0.6224 -2.230053,0.6865 -5.250087,2.9495 -6.254073,5.144 0.0099,0.034 -0.02642,0.477 -0.04182,0.5101 -0.0173,0.037 -0.08477,0.041 -0.102069,0.079 -0.156538,0.3357 0.66255,4.3738 1.636687,6.0648 0.974137,1.6909 -0.478814,6.0379 0.954336,8.9984 z"
         style="fill:#ff8500;fill-opacity:1;stroke:none" />
      <g
         transform="translate(0.625,7.9464286)"
         id="g3108">
        <path
           sodipodi:nodetypes="cc"
           style="fill:none;stroke:#007c08;stroke-width:0.97525918px;stroke-linecap:butt;stroke-linejoin:miter;stroke-opacity:1"
           d="m 15.17214,1022.2697 c -0.414729,-2.5587 -2.868044,-3.9543 -5.6213136,-5.2493"
           id="path3770"
           inkscape:connector-curvature="0" />
        <path
           sodipodi:nodetypes="cc"
           style="fill:none;stroke:#00781d;stroke-width:0.97525918px;stroke-linecap:butt;stroke-linejoin:miter;stroke-opacity:1"
           d="m 16.837603,1021.9642 c -0.473114,-1.7684 2.358802,-3.438 1.420951,-6.4517"
           id="path3772"
           inkscape:connector-curvature="0" />
      </g>
    </g>
    <g
       id="g3859"
       transform="matrix(2.5330462,0,0,2.5330462,33.710395,-1572.0927)">
      <path
         transform="translate(0,1036.3622)"
         inkscape:connector-curvature="0"
         id="path3836"
         d="M 5.8715117,7.8556451 C 5.8570057,7.6760497 5.6383837,7.6637894 5.555839,7.5399724 5.5297361,7.500818 5.5259793,7.4469782 5.4927045,7.4137033 c -0.014881,-0.014881 -0.04317,0.00666 -0.063135,0 -0.044643,-0.014881 -0.081626,-0.048253 -0.126269,-0.063135 -0.019965,-0.00665 -0.044312,0.00941 -0.063135,0 -0.02662,-0.01331 -0.0349,-0.053723 -0.063135,-0.063134 -0.035915,-0.011972 -0.2562102,0 -0.3156727,0 -0.033014,0 -0.2359374,-0.0083 -0.2525381,0 -0.05324,0.02662 -0.0698,0.107446 -0.1262691,0.126269 -0.03993,0.01331 -0.086339,-0.01331 -0.126269,0 -0.028235,0.00941 -0.036515,0.049825 -0.063135,0.063135 -0.059524,0.029762 -0.1276138,0.038419 -0.1894036,0.063135 -0.043692,0.017477 -0.082577,0.045658 -0.126269,0.063135 -0.06179,0.024716 -0.1276139,0.038419 -0.1894036,0.063135 -0.043692,0.017477 -0.080616,0.051721 -0.1262691,0.063135 -0.040833,0.010208 -0.085436,-0.010208 -0.1262691,0 C 3.3827126,7.7675833 3.4087786,7.8244433 3.2829941,7.9187819 3.2453481,7.9470169 3.1958791,7.9558139 3.156725,7.9819169 3.131962,7.9984259 3.118354,8.0285429 3.09359,8.0450519 3.015281,8.0972579 2.9193606,8.1191149 2.8410518,8.171321 2.7915248,8.204339 2.7643098,8.264572 2.7147828,8.29759 2.6756288,8.323693 2.6146166,8.32157 2.5885137,8.360725 c -0.023347,0.035021 0.010208,0.085436 0,0.126269 -0.076218,0.3048732 -0.030003,-0.00313 -0.1262691,0.1894036 -0.00961,0.019214 0,0.1609705 0,0.1894036 0,0.1262691 0,0.2525382 0,0.3788072 0,0.1894036 0,0.3788072 0,0.5682108 0,0.063135 -0.015312,0.1281542 0,0.1894038 0.011413,0.04565 0.051721,0.08062 0.063135,0.126269 0.013435,0.05374 -0.018122,0.27943 0,0.315673 0.01331,0.02662 0.046626,0.03837 0.063134,0.06314 0.1795088,0.269263 -0.083672,-0.02054 0.1894036,0.252538 0.04209,0.04209 0.099649,0.07303 0.1262691,0.126269 0.038805,0.07761 0.030909,0.171974 0.063135,0.252538 0.011053,0.02763 0.046626,0.03837 0.063134,0.06313 0.026103,0.03916 0.04209,0.08418 0.063135,0.126269 0.04209,0.08418 0.084179,0.168359 0.126269,0.252539 0.04209,0.08418 0.084179,0.168358 0.1262691,0.252538 0.021045,0.04209 0.051721,0.08062 0.063134,0.126269 0.020417,0.08167 -0.020417,0.170872 0,0.252538 0.011413,0.04565 0.04209,0.08418 0.063135,0.126269 0.021045,0.04209 0.037032,0.08712 0.063134,0.126269 0.016509,0.02476 0.046626,0.03837 0.063135,0.06314 0.1318681,0.197802 -0.0056,0.05474 0.126269,0.252538 0.053583,0.08037 0.1941926,0.174744 0.2525382,0.252538 0.028235,0.03765 0.037032,0.08712 0.063134,0.126269 0.016509,0.02476 0.046626,0.03837 0.063135,0.06313 0.026103,0.03915 0.02986,0.093 0.063135,0.12627 0.033275,0.03327 0.087115,0.03703 0.126269,0.06313 0.049527,0.03302 0.073029,0.09965 0.1262691,0.126269 0.018823,0.0094 0.044311,-0.0094 0.063134,0 0.022222,0.01111 0.1040469,0.115158 0.1262691,0.126269 0.037646,0.01882 0.086339,-0.01331 0.1262691,0 0.044643,0.01488 0.080616,0.05172 0.126269,0.06314 0.040833,0.01021 0.086339,-0.01331 0.1262691,0 0.028235,0.0094 0.0349,0.05372 0.063135,0.06313 0.059895,0.01997 0.129509,-0.01996 0.1894036,0 0.044643,0.01488 0.080616,0.05172 0.1262691,0.06314 0.1020825,0.02552 0.2118801,-0.0173 0.3156727,0 0.065644,0.01094 0.1237594,0.05219 0.1894036,0.06313 0.062276,0.01038 0.1262691,0 0.1894036,0 0.084179,0 0.1683587,0 0.2525381,0 0.6734351,0 1.3468701,0 2.0203051,0 0.6103005,0 1.220601,0 1.8309012,0 0.126269,0 0.252538,0 0.378807,0 0.105224,0 0.212492,0.02064 0.315673,0 0.111129,-0.02223 0.205041,-0.101684 0.315673,-0.126269 0.08217,-0.01826 0.168358,0 0.252538,0 0.105224,0 0.210448,0 0.315672,0 0.04209,0 0.08634,0.01331 0.126269,0 0.02824,-0.0094 0.0349,-0.05372 0.06314,-0.06313 0.07986,-0.02662 0.172679,0.02662 0.252538,0 0.02824,-0.0094 0.03651,-0.04983 0.06314,-0.06314 0.01882,-0.0094 0.04825,0.01488 0.06313,0 0.01488,-0.01488 -0.0094,-0.04431 0,-0.06313 0.01331,-0.02662 0.04209,-0.04209 0.06313,-0.06313 0.06313,-0.06313 0.126269,-0.126269 0.189403,-0.189403 0.02104,-0.02104 0.04663,-0.03837 0.06313,-0.06313 0.0261,-0.03915 0.03703,-0.08712 0.06313,-0.126269 0.01651,-0.02476 0.04982,-0.03651 0.06313,-0.06314 0.0094,-0.01882 0,-0.04209 0,-0.06313 0,-0.04209 -0.01021,-0.08544 0,-0.126269 0.01141,-0.04565 0.05172,-0.08062 0.06313,-0.126269 0.01021,-0.04083 0,-0.08418 0,-0.126269 0,-0.04209 0,-0.08418 0,-0.126269 0,-0.168359 0,-0.336718 0,-0.505077 0,-0.0631 -0.0135,-0.261659 0,-0.315672 0.01614,-0.06456 0.04699,-0.124841 0.06314,-0.189404 0.0198,-0.07919 -0.01685,-0.231423 0,-0.315673 0.01702,-0.08508 0.04612,-0.167453 0.06313,-0.252538 0.01238,-0.06191 0,-0.126269 0,-0.189403 0,-0.105225 0,-0.210449 0,-0.315673 0,-0.05169 -0.01364,-0.274767 0,-0.315673 0.01488,-0.04464 0.05172,-0.08062 0.06313,-0.126269 0.01021,-0.040833 0,-0.084179 0,-0.1262692 0,-0.1473139 0,-0.2946278 0,-0.4419418 0,-0.04209 -0.01021,-0.085436 0,-0.126269 0.01141,-0.045653 0.05172,-0.080616 0.06314,-0.1262691 0.01241,-0.049663 0,-0.313152 0,-0.3788072 0,-0.073341 0.01431,-0.2584383 0,-0.3156727 -0.01141,-0.045653 -0.04209,-0.084179 -0.06314,-0.126269 -0.02104,-0.04209 -0.03703,-0.087115 -0.06313,-0.1262691 -0.01651,-0.024763 -0.04983,-0.036515 -0.06313,-0.063134 -0.0094,-0.018823 0.0094,-0.044312 0,-0.063135 -0.0084,-0.016763 -0.172641,-0.1810221 -0.189404,-0.1894036 -0.01882,-0.00941 -0.04825,0.014881 -0.06313,0 -0.02976,-0.029762 0.02976,-0.096507 0,-0.126269 -3.36e-4,-3.354e-4 -0.187293,5.276e-4 -0.189404,0 -0.04565,-0.011413 -0.08102,-0.050207 -0.126269,-0.063135 -0.415893,-0.1188266 -0.251446,0.0075 -0.69448,-0.1894036 -0.06934,-0.030817 -0.11966,-0.096379 -0.189403,-0.1262691 -0.159509,-0.068361 -0.342586,-0.065335 -0.505077,-0.126269 -0.08812,-0.033046 -0.16025,-0.1078115 -0.252538,-0.1262691 -0.123817,-0.024763 -0.25331,0.013944 -0.378807,0 -0.06614,-0.00735 -0.123523,-0.053723 -0.189404,-0.063135 -0.08333,-0.011905 -0.168358,0 -0.2525374,0 -0.063134,0 -0.126269,0 -0.1894036,0 -0.04209,0 -0.086339,0.01331 -0.126269,0 C 9.50507,7.0886355 9.49679,7.0482205 9.47017,7.0349105 c -0.0033,-0.00165 -0.1861006,-0.00165 -0.1894036,0 -0.02662,0.01331 -0.036515,0.049825 -0.063135,0.063135 -0.018823,0.00941 -0.044311,-0.00941 -0.063135,0 -0.02662,0.01331 -0.0349,0.053723 -0.063135,0.063135 -0.03993,0.01331 -0.091248,-0.023347 -0.126269,0 -0.039154,0.026103 -0.02986,0.092994 -0.063135,0.1262691 -0.033275,0.033275 -0.087115,0.037032 -0.126269,0.063134 -0.024763,0.016509 -0.04209,0.04209 -0.063135,0.063135 -0.021045,0.021045 -0.046626,0.038371 -0.063135,0.063135 -0.026103,0.039154 -0.037032,0.087115 -0.063135,0.126269 -0.016509,0.024763 -0.04209,0.04209 -0.063135,0.063135 -0.021045,0.04209 -0.037032,0.087115 -0.063135,0.1262691 -0.016509,0.024763 -0.046626,0.038371 -0.063135,0.063135 -0.026103,0.039154 -0.048254,0.081626 -0.063135,0.1262691 -0.01331,0.03993 0.029762,0.096507 0,0.126269 -0.014881,0.014881 -0.048254,-0.014881 -0.063135,0 -0.014881,0.014881 0.00941,0.044312 0,0.063135 -0.02662,0.05324 -0.099649,0.073029 -0.1262691,0.126269 -0.00941,0.018823 0.014881,0.048254 0,0.063135 -0.014881,0.014881 -0.04209,0 -0.063135,0 -0.063135,0 -0.1262691,0 -0.1894036,0 -0.2104485,0 -0.4208969,0 -0.6313454,0 -0.2946278,0 -0.5892556,0 -0.8838834,0 -0.069613,0 -0.3334364,0.011343 -0.3788072,0 -0.028873,-0.00722 -0.036515,-0.049825 -0.063135,-0.063135 -0.025032,-0.012516 -0.1764966,0.012907 -0.1894036,0 -0.014881,-0.014881 0.014881,-0.048254 0,-0.063135 C 5.5919013,8.081111 5.6525345,8.2532264 5.555839,8.1081832 5.5297361,8.0690288 5.5137493,8.0240038 5.4927045,7.9819142 5.4716596,7.9398245 5.4444509,7.9002879 5.4295699,7.8556451 5.4021308,7.7733277 5.390273,7.6865385 5.3664354,7.6031069 5.3648161,7.5974393 5.2403711,7.2257327 5.2401663,7.2242997"
         style="fill:#009a25;fill-opacity:1;stroke:#05e71a;stroke-width:0.39478159px;stroke-linecap:butt;stroke-linejoin:miter;stroke-opacity:1"
         sodipodi:nodetypes="cssccccscscsssscsssssssscsssccscssccssscssccccccsccccccccccccsssssssssccccscsscccsccsssccccssccssccscccccssccssssscssscscccccscscscscsssccssssscsscssssc" />
      <path
         transform="translate(0,1036.3622)"
         inkscape:connector-curvature="0"
         id="path3838"
         d="M 7.1342024,8.1713178 C 6.8320912,7.4160397 7.1822842,8.3636451 6.9447988,7.4137033 6.9173122,7.3037571 6.8572594,7.2045374 6.8185297,7.0980307 6.7730439,6.9729448 6.714142,6.8505118 6.6922606,6.7192235 6.5578045,5.9124867 6.8493299,6.7690231 6.6291261,5.9616091 6.599307,5.8522724 6.5274417,5.7565676 6.502857,5.6459364 c -0.018261,-0.082175 0,-0.1683588 0,-0.2525381 0,-0.1052243 0,-0.2104485 0,-0.3156727 0,-0.036378 -0.011505,-0.2926617 0,-0.3156727 0.01331,-0.02662 0.049825,-0.036515 0.063135,-0.063134 0.00941,-0.018823 -0.00941,-0.044312 0,-0.063135 0.01331,-0.02662 0.049825,-0.036515 0.063134,-0.063134 0.00941,-0.018823 -0.00941,-0.044311 0,-0.063135 0.01331,-0.02662 0.046626,-0.038371 0.063135,-0.063135 0.026103,-0.039154 0.037032,-0.087115 0.063135,-0.126269 0.016509,-0.024763 0.04209,-0.04209 0.063135,-0.063135 0.063135,-0.063134 0.1262691,-0.126269 0.1894036,-0.1894036 0.021045,-0.021045 0.046626,-0.038371 0.063134,-0.063135 0.026103,-0.039154 0.02986,-0.092994 0.063135,-0.1262691 0.014881,-0.014881 0.044311,0.00941 0.063134,0 0.02662,-0.01331 0.04209,-0.04209 0.063135,-0.063134 0.021045,-0.021045 0.04209,-0.04209 0.063135,-0.063135 0.144757,-0.1447571 -0.03993,0.02662 0.1894036,-0.1262691 0.024763,-0.016509 0.036515,-0.049825 0.063134,-0.063134 0.037646,-0.018823 0.088623,0.018823 0.1262691,0 0.02662,-0.01331 0.036515,-0.049825 0.063135,-0.063135 0.018823,-0.00941 0.04209,0 0.063135,0 0.06358,0 0.3438927,0.011638 0.3788072,0 0.028235,-0.00941 0.038371,-0.046626 0.063135,-0.063135 0.039154,-0.026103 0.087115,-0.037032 0.1262691,-0.063134 0.024763,-0.016509 0.038371,-0.046626 0.063135,-0.063135 0.039154,-0.026103 0.084179,-0.04209 0.1262691,-0.063134 0.04209,-0.021045 0.081626,-0.048254 0.126269,-0.063134 0.019965,-0.00666 0.044311,0.00941 0.063135,0 0.2627508,-0.1313755 -0.067493,0.00436 0.063135,-0.1262691 0.014881,-0.014881 0.048254,0.014881 0.063134,0 0.014881,-0.014881 -0.014881,-0.048254 0,-0.063135 0.029762,-0.029762 0.096507,0.029762 0.1262691,0 0.02806,-0.02806 -0.049105,-0.1192542 0.063135,-0.063135 0.1354847,0.067742 0.00291,0.068946 0.063135,0.1894036 0.00941,0.018823 0.048254,-0.014881 0.063135,0 0.1306276,0.1306276 -0.1996163,-0.00511 0.063135,0.1262691 0.018823,0.00941 0.048254,-0.014881 0.063135,0 0.029762,0.029762 -0.018823,0.088623 0,0.1262691 0.01331,0.02662 0.049825,0.036515 0.063135,0.063134 0.0083,0.016601 0,0.2195238 0,0.2525381 0,0.021045 0.018823,0.053723 0,0.063135 -0.037646,0.018823 -0.085436,-0.010208 -0.1262691,0 -0.045653,0.011413 -0.080616,0.051721 -0.126269,0.063135 -0.053741,0.013435 -0.2794292,-0.018122 -0.3156727,0 -0.02662,0.01331 -0.036515,0.049825 -0.063135,0.063134 -0.018823,0.00941 -0.044312,-0.00941 -0.063135,0 -0.016763,0.00838 -0.1810221,0.1726407 -0.1894036,0.1894036 -0.00941,0.018823 0.014881,0.048254 0,0.063135 -0.014881,0.014881 -0.048254,-0.014881 -0.063135,0 -0.014881,0.014881 0.014881,0.048254 0,0.063135 -0.014881,0.014881 -0.044312,-0.00941 -0.063135,0 -0.2627509,0.1313754 0.067493,-0.00436 -0.063135,0.1262691 -0.033275,0.033275 -0.092994,0.02986 -0.1262691,0.063134 -0.014881,0.014881 0.00941,0.044312 0,0.063135 -0.02662,0.05324 -0.093251,0.076742 -0.126269,0.1262691 -0.026103,0.039154 -0.037032,0.087115 -0.063135,0.1262691 -0.016509,0.024763 -0.049825,0.036515 -0.063134,0.063134 -0.00941,0.018823 0.00665,0.04317 0,0.063135 -0.014881,0.044643 -0.048254,0.081626 -0.063135,0.1262691 -0.00666,0.019965 0.014881,0.048254 0,0.063135 -0.014881,0.014881 -0.053723,-0.018823 -0.063135,0 -0.018823,0.037646 0.01331,0.086339 0,0.1262691 -0.00941,0.028235 -0.049825,0.036515 -0.063135,0.063134 -0.00941,0.018823 0.00941,0.044312 0,0.063135 -0.01331,0.02662 -0.053723,0.0349 -0.063135,0.063134 -0.01331,0.03993 0.01331,0.086339 0,0.1262691 -0.00941,0.028235 -0.049825,0.036515 -0.063135,0.063135 -0.018823,0.037646 0.018823,0.088623 0,0.1262691 -0.01331,0.02662 -0.049825,0.036515 -0.063135,0.063135 -0.019841,0.039681 0.019841,0.2128567 0,0.2525382 -0.01331,0.02662 -0.053723,0.0349 -0.063134,0.063134 -0.01331,0.03993 0,0.084179 0,0.1262691 0,0.021045 0.00941,0.044311 0,0.063135 -0.01331,0.02662 -0.049825,0.036515 -0.063135,0.063134 -0.00941,0.018823 0,0.04209 0,0.063135 0,0.1052242 0,0.2104484 0,0.3156726 0,0.021045 0,0.04209 0,0.063135 0,0.021045 0.00941,0.044311 0,0.063135 -0.01331,0.02662 -0.049825,0.036515 -0.063134,0.063134 -0.00941,0.018823 0,0.04209 0,0.063135 0,0.021045 0,0.04209 0,0.063134 0,0.1052242 0,0.2104485 0,0.3156727 0,0.04209 0,0.084179 0,0.126269 0,0.021045 0.00941,0.044312 0,0.063135 -0.01331,0.02662 -0.049825,0.036515 -0.063135,0.063135 -0.019915,0.03983 0.019915,0.275843 0,0.3156727 C 7.2687293,7.965403 7.1973382,8.0660949 7.1342037,8.1713192 z"
         style="fill:none;stroke:#000000;stroke-width:0.39478159px;stroke-linecap:butt;stroke-linejoin:miter;stroke-opacity:1" />
    </g>
    <text
       xml:space="preserve"
       style="font-size:6px;font-style:normal;font-variant:normal;font-weight:normal;font-stretch:normal;text-align:start;line-height:125%;letter-spacing:0px;word-spacing:0px;writing-mode:lr-tb;text-anchor:start;fill:#000000;fill-opacity:1;stroke:none;font-family:Sans;-inkscape-font-specification:Sans"
       x="-686.34985"
       y="880.96533"
       id="text3888"
       sodipodi:linespacing="125%"
       transform="matrix(0.77794359,-0.62833412,0.62833412,0.77794359,0,0)"><tspan
         sodipodi:role="line"
         id="tspan3890"
         x="-686.34985"
         y="880.96533">Dayry</tspan></text>
    <text
       xml:space="preserve"
       style="font-size:6px;font-style:normal;font-variant:normal;font-weight:normal;font-stretch:normal;text-align:start;line-height:125%;letter-spacing:0px;word-spacing:0px;writing-mode:lr-tb;text-anchor:start;fill:#000000;fill-opacity:1;stroke:none;font-family:Sans;-inkscape-font-specification:Sans"
       x="-715.7373"
       y="876.97113"
       id="text3888-1"
       sodipodi:linespacing="125%"
       transform="matrix(0.77794359,-0.62833412,0.62833412,0.77794359,0,0)"><tspan
         sodipodi:role="line"
         id="tspan3890-1"
         x="-715.7373"
         y="876.97113">MEAT</tspan></text>
    <text
       xml:space="preserve"
       style="font-size:6px;font-style:normal;font-variant:normal;font-weight:normal;font-stretch:normal;text-align:start;line-height:125%;letter-spacing:0px;word-spacing:0px;writing-mode:lr-tb;text-anchor:start;fill:#000000;fill-opacity:1;stroke:none;font-family:Sans;-inkscape-font-specification:Sans"
       x="-695.73987"
       y="872.32275"
       id="text3888-9"
       sodipodi:linespacing="125%"
       transform="matrix(0.77794359,-0.62833412,0.62833412,0.77794359,0,0)"><tspan
         sodipodi:role="line"
         id="tspan3890-2"
         x="-695.73987"
         y="872.32275">FISH</tspan></text>
    <path
       style="fill:none;stroke:#000000;stroke-width:1px;stroke-linecap:butt;stroke-linejoin:miter;stroke-opacity:1"
       d="m 15,1079.6836 3.928572,9.7769 4.464286,0 c 1.473814,0 2.977235,-11.2948 2.410714,-10.2233"
       id="path3969"
       inkscape:connector-curvature="0"
       sodipodi:nodetypes="ccsc" />
    <path
       sodipodi:type="arc"
       style="color:#000000;fill:none;stroke:#000000;stroke-width:1;stroke-linecap:butt;stroke-miterlimit:4;stroke-opacity:1;stroke-dasharray:none;stroke-dashoffset:0;marker:none;visibility:visible;display:inline;overflow:visible;enable-background:accumulate"
       id="path3973"
       sodipodi:cx="8.0580359"
       sodipodi:cy="2.875"
       sodipodi:rx="5.46875"
       sodipodi:ry="2.0535715"
       d="m 13.526786,2.875 c 0,1.1341562 -2.448443,2.0535715 -5.4687501,2.0535715 -3.0203073,0 -5.46875,-0.9194153 -5.46875,-2.0535715 0,-1.1341562 2.4484427,-2.05357146 5.46875,-2.05357146 3.0203071,0 5.4687501,0.91941526 5.4687501,2.05357146 z"
       transform="translate(12.276786,1076.3176)" />
    <g
       id="g4002"
       transform="translate(10.491072,60.044643)">
      <path
         sodipodi:nodetypes="ccccc"
         inkscape:connector-curvature="0"
         id="path3996"
         d="m 5.1339286,1045.4426 3.2589288,4.375 c 1.369048,-0.2679 3.0417746,1.4825 4.0178566,-1.8304 l -2.9017856,-4.2411 z"
         style="fill:none;stroke:#000000;stroke-width:1px;stroke-linecap:butt;stroke-linejoin:miter;stroke-opacity:1" />
      <path
         sodipodi:nodetypes="cc"
         inkscape:connector-curvature="0"
         id="path3998"
         d="m 7.9017857,1044.4604 -3.9285714,-5.4911"
         style="fill:none;stroke:#000000;stroke-width:1px;stroke-linecap:butt;stroke-linejoin:miter;stroke-opacity:1" />
      <path
         sodipodi:nodetypes="ccc"
         inkscape:connector-curvature="0"
         id="path4000"
         d="m 1.9196428,1040.4426 1.634771,-0.8142 2.7402292,-1.5966"
         style="fill:none;stroke:#000000;stroke-width:1px;stroke-linecap:butt;stroke-linejoin:miter;stroke-opacity:1" />
    </g>
    <text
       xml:space="preserve"
       style="font-size:6px;font-style:normal;font-variant:normal;font-weight:normal;font-stretch:normal;text-align:start;line-height:125%;letter-spacing:0px;word-spacing:0px;writing-mode:lr-tb;text-anchor:start;fill:#000000;fill-opacity:1;stroke:none;font-family:Sans;-inkscape-font-specification:Sans"
       x="-693.92462"
       y="852.23828"
       id="text3888-1-2"
       sodipodi:linespacing="125%"
       transform="matrix(0.77794359,-0.62833412,0.62833412,0.77794359,0,0)"><tspan
         sodipodi:role="line"
         id="tspan3890-1-5"
         x="-693.92462"
         y="852.23828">Other</tspan></text>
  </g>
</svg>
