<?xml version="1.0" encoding="utf-8"?>
<!-- Generator: Adobe Illustrator 14.0.0, SVG Export Plug-In . SVG Version: 6.00 Build 43363)  -->
<!DOCTYPE svg PUBLIC "-//W3C//DTD SVG 1.1//EN" "http://www.w3.org/Graphics/SVG/1.1/DTD/svg11.dtd">
<svg version="1.1" xmlns="http://www.w3.org/2000/svg" xmlns:xlink="http://www.w3.org/1999/xlink" x="0px" y="0px"
	 width="426.667px" height="380.666px" viewBox="0 0 426.667 380.666" enable-background="new 0 0 426.667 380.666"
	 xml:space="preserve">
<g id="Layer_3">
	<rect x="37.112" y="16.667" fill-rule="evenodd" clip-rule="evenodd" width="345.757" height="374"/>
</g>
<g id="Layer_2">
	<path fill-rule="evenodd" clip-rule="evenodd" fill="#FFFFFF" d="M238.775,5.703c-0.489,7.416-8.375-4.313-16.62,0
		c28.814,105.256,153.32,114.816,169.524,232.683c-8.766,5.535-7.023,13.248-16.62,3.324c11.985,12.072,21.196,23.652,9.972,43.212
		c19.641,23.745,1.359,58.46-3.324,86.424c0.605,4.611,10.934-8.697,23.27-3.324c-12.932,52.002-8.387,108.266-3.322,166.203
		c-6.279,2.488-2.307,9.92-9.975,3.322c5.447,60.449,19.021,115.957,13.297,182.822c-111.694,5.291-263.168-1.455-382.264,6.648
		c-4.33-132.318,10.98-247.799-6.647-362.32c-0.56-7.207,11.79-1.506,16.62-3.323c-20.949-83.233-7.342-165.968,39.888-216.062
		c39.754-42.164,88.14-60.312,116.342-116.341c3.354-6.667,3.395-20.649,16.62-23.269c-18.917-5.787,2.968-12.077,13.296-6.648
		c-2.436,5.92-6.044,0.479-9.972,0c-1.553,7.093,4.75,6.332,9.972,6.648c6.31-8.572-3.812-13.541,0-16.62
		c3.752-10.68,9.489,3.201,6.648,9.972c6.843-0.914,3.129-12.382,9.973-13.296C242.121-13.403,222.413,3.368,238.775,5.703z
		 M192.238,427.858c-23.935-3.984-107.971-11.414-132.961-3.326C107.289,421.948,145.434,429.231,192.238,427.858z M75.897,441.151
		c32.208-0.242,60.228,0.33,89.75,0c-13.418,0.148,31.249-1.992,29.916-3.324c-8.417-8.416-47.509,0-59.833,0
		c-29.256,0-64.948-3.736-69.804,3.324C69.249,441.151,72.572,441.151,75.897,441.151z M195.562,451.124
		c-39.428,1.51-97.438-13.031-129.638,3.324C97.873,450.679,159,459.933,195.562,451.124z M69.249,464.421
		c42.23-2.322,87.392,10.084,126.313,0C163.144,458.921,90.593,458.921,69.249,464.421z M235.451,477.718
		c36.562,0,73.129,0,109.693,0C330.088,470.825,250.102,473.218,235.451,477.718z M69.249,477.718
		c41.219-4,100.617,7.068,126.313-3.326C156.643,476.489,91.597,470.12,69.249,477.718z M69.249,491.013
		c39.503-2.678,103.16,5.076,126.313-3.324C156.643,489.786,91.597,483.417,69.249,491.013z M92.518,497.661
		c-63.136,1.012,21.807,6.648,39.889,6.648c25.644,0,61.096,2.568,56.508-3.324C151.98,502.956,126.807,497.11,92.518,497.661z
		 M165.646,510.956c-32.906-2.314-126.966-1.012-83.101,3.324c23.117,2.285,87.572,7.619,113.017,0
		C184.033,516.2,176.048,511.687,165.646,510.956z M65.925,524.253c36.063,9.363,93.352-2.494,129.638,6.646
		C165.472,515.563,107.05,528.558,65.925,524.253z M142.377,540.874c14.085,0,68.326-0.326,39.889-3.326
		c-36.139-3.814-89.053-2.15-116.341,3.326C89.513,540.874,116.609,540.874,142.377,540.874z M195.562,550.847
		c-45.451,1.129-82.748-5.893-129.638-3.324C94.908,560.661,161.079,554.28,195.562,550.847z M65.925,567.464
		c42.115-2.201,93.059,4.42,129.638-3.324C160.675,561.112,95.205,554.03,65.925,567.464z M195.562,577.437
		c-36.286-4.727-93.575-6.117-129.638,0C94.589,581.001,157.829,584.298,195.562,577.437z M195.562,587.407
		c-42.115,2.207-93.059-4.414-129.638,3.324C100.813,593.765,166.282,600.847,195.562,587.407z M195.562,607.351
		c-28.983-13.139-95.154-6.756-129.638-3.324C111.802,602.47,153.004,605.593,195.562,607.351z M132.406,614.001
		c-23.814,0-61.175-5.402-63.157,6.648c30.532-2.41,87.121-0.463,129.638,0C188.734,608.755,158.121,614.001,132.406,614.001z
		 M188.915,633.944c-21.053,0-42.104,0-63.156,0c-19.985,2.174-48.7-4.375-63.158,3.324
		C103.607,635.067,153.444,641.688,188.915,633.944z M178.942,653.89c39.544-0.475-13.241-5.916-29.917-6.648
		c-29.577-1.301-67.289-1.385-79.776,3.324C92.989,655.79,140.812,653.362,178.942,653.89z M69.249,663.86
		c43.136-2.117,89.676,10.023,129.638,0C165.373,658.36,91.688,658.36,69.249,663.86z M195.562,680.479
		c-28.983-13.139-95.154-6.756-129.638-3.322C111.802,675.599,153.004,678.722,195.562,680.479z M295.281,683.806
		c-15.575,2.154-39.801-4.344-49.859,3.322C261,684.979,285.225,691.479,295.281,683.806z M69.249,690.452
		c40.579-2.662,105.418,5.053,129.638-3.324C158.865,689.233,92.696,682.851,69.249,690.452z M198.887,700.425
		c-22.16,0-44.321,0-66.48,0c-21.091,2.184-50.92-4.381-66.481,3.324C109.148,701.542,161.2,708.171,198.887,700.425z
		 M135.729,717.046c17.089,0,66.569,2.344,56.509-3.324c-44.577,3.771-95.251-7.137-126.313,3.324
		C83.26,717.046,111.361,717.046,135.729,717.046z"/>
</g>
<g id="Layer_4">
	<rect x="-5" y="211.333" fill-rule="evenodd" clip-rule="evenodd" fill="#FFFFFF" width="426.667" height="179.333"/>
</g>
<g id="Layer_1">
	<text transform="matrix(1 0 0 1 77.9482 193.0146)"><tspan x="0" y="0" font-family="'Herculanum'" font-size="42">sustainable</tspan><tspan x="-43.111" y="153.8" fill="#D47237" font-family="'Impact'" font-size="159">S</tspan><tspan x="39.106" y="153.8" fill="#D9AA55" font-family="'Impact'" font-size="159">O</tspan><tspan x="125.982" y="153.8" fill="#9EA663" font-family="'Impact'" font-size="159">U</tspan><tspan x="212.935" y="153.8" fill="#735871" font-family="'Impact'" font-size="159">K</tspan></text>
	<path fill-rule="evenodd" clip-rule="evenodd" fill="#D13F1C" d="M63.339,265.063c1.809,0,3.621,0,5.43,0c0.725,0,1.45,0,2.171,0
		c3.017,1.697,6.328,3.087,8.691,5.433c1.567,1.697,2.283,4.23,3.255,6.517c0.238,3.971,1.494,4.171,0,7.601
		c0,0.365,0,0.731,0,1.084c-1.915,0.99-3.361,2.439-4.343,4.348c-2.551,0.354-4.077,1.721-7.604,1.084
		c-4.39-1.402-7.928-3.653-10.859-6.517c0.003-1.084-0.881-1.284-1.087-2.168c0.003-1.084-0.878-1.296-1.084-2.168
		c0-0.365,0-0.73,0-1.084c0-2.18,0-4.349,0-6.517C57.609,268.033,61.062,267.138,63.339,265.063z M70.94,280.277
		c-8.603-0.354-2.242-10.688-5.43-11.949C61.852,273.147,66.149,284,70.94,280.277z M70.94,288.962
		c5.397,1.013,10.326-4.101,8.691-6.517C76.876,284.755,73.694,286.652,70.94,288.962z"/>
	<path fill-rule="evenodd" clip-rule="evenodd" fill="#D13F1C" d="M46.755,237.161c0.913-0.212,1.291-0.961,2.703-0.675
		c1.353,0,2.705,0,4.056,0c3.255,0.576,6.014,1.649,8.114,3.38c0.143,0.759,0.75,1.053,1.351,1.352c0,0.226,0,0.451,0,0.677
		c1.67,1.711,2.256,4.505,3.38,6.759c-0.085,2.79,1.175,4.235,0.676,7.437c-0.95,0.178-0.77,1.483-1.352,2.028
		c-0.611,1.192-1.513,2.094-2.705,2.705c-0.413,0.039-0.799,0.101-0.675,0.676c-1.652,0.6-2.932,1.576-5.408,1.352
		c-0.677,0-1.354,0-2.029,0c-1.278,0.151-1.493-0.763-2.705-0.677c-0.572-1.004-2.176-0.977-3.379-1.351
		c-0.039-0.413-0.102-0.802-0.677-0.677c-0.679,0.002-0.805-0.546-1.352-0.675c0-0.225,0-0.451,0-0.676
		c-0.974-0.378-1.65-1.055-2.028-2.029c-1.113-1.139-1.469-3.039-2.703-4.057c0-0.225,0-0.451,0-0.675
		c-0.152-0.526-0.02-1.335-0.677-1.353c0-1.577,0-3.154,0-4.731c0.484-1.996,0.772-4.188,2.028-5.409
		c0.61-1.192,1.511-2.094,2.703-2.705C46.49,237.799,46.879,237.737,46.755,237.161z M54.191,252.036
		c-6.325-1.509-2.597-9.575-2.705-12.846C45.757,241.342,48.165,254.422,54.191,252.036z M58.924,247.979
		c0.204-1.783-0.937-2.219-2.705-2.027C55.667,248.37,57.659,249.307,58.924,247.979z M58.248,256.767
		c-1.351,5.034-12.897,3.479,0.677,4.057c1.74-1.435,5.469-4.418,4.731-6.085C62.379,255.942,60.925,256.967,58.248,256.767z"/>
	<path fill-rule="evenodd" clip-rule="evenodd" fill="#D13F1C" d="M89.054,286.73c1.809,0,3.621,0,5.43,0c0.725,0,1.45,0,2.171,0
		c3.017,1.697,6.328,3.087,8.691,5.433c1.567,1.697,2.283,4.23,3.255,6.517c0.238,3.971,1.494,4.171,0,7.6c0,0.365,0,0.731,0,1.085
		c-1.915,0.989-3.361,2.438-4.343,4.349c-2.551,0.354-4.077,1.721-7.604,1.084c-4.39-1.402-7.928-3.653-10.859-6.518
		c0.003-1.084-0.881-1.283-1.087-2.168c0.003-1.084-0.878-1.296-1.084-2.168c0-0.365,0-0.73,0-1.084c0-2.18,0-4.349,0-6.517
		C83.324,289.7,86.777,288.804,89.054,286.73z M96.655,301.943c-8.603-0.354-2.242-10.688-5.43-11.949
		C87.567,294.814,91.865,305.667,96.655,301.943z M96.655,310.629c5.397,1.013,10.326-4.102,8.691-6.518
		C102.591,306.422,99.41,308.318,96.655,310.629z"/>
	<path fill-rule="evenodd" clip-rule="evenodd" fill="#D13F1C" d="M90.361,316.396c1.49,0,2.982,0,4.472,0c0.597,0,1.194,0,1.788,0
		c2.484,1.397,5.211,2.543,7.157,4.475c1.291,1.397,1.88,3.484,2.681,5.366c0.196,3.271,1.23,3.436,0,6.26c0,0.301,0,0.602,0,0.893
		c-1.577,0.815-2.768,2.01-3.577,3.581c-2.101,0.291-3.357,1.417-6.262,0.893c-3.615-1.155-6.529-3.008-8.943-5.366
		c0.002-0.893-0.726-1.059-0.895-1.785c0.002-0.894-0.723-1.068-0.893-1.786c0-0.301,0-0.602,0-0.893c0-1.796,0-3.581,0-5.367
		C85.643,318.842,88.486,318.104,90.361,316.396z M96.621,328.925c-7.084-0.291-1.846-8.803-4.472-9.841
		C89.137,323.053,92.676,331.991,96.621,328.925z M96.621,336.077c4.445,0.834,8.503-3.377,7.157-5.366
		C101.51,332.612,98.89,334.175,96.621,336.077z"/>
	<path fill-rule="evenodd" clip-rule="evenodd" fill="#D13F1C" d="M49.005,305.396c1.809,0,3.621,0,5.43,0c0.725,0,1.45,0,2.171,0
		c3.017,1.697,6.328,3.088,8.691,5.433c1.567,1.696,2.283,4.23,3.255,6.517c0.238,3.971,1.494,4.172,0,7.601
		c0,0.365,0,0.731,0,1.085c-1.915,0.989-3.361,2.438-4.343,4.348c-2.551,0.354-4.077,1.721-7.604,1.084
		c-4.39-1.402-7.928-3.652-10.859-6.517c0.003-1.084-0.881-1.284-1.087-2.168c0.003-1.085-0.878-1.296-1.084-2.169
		c0-0.365,0-0.73,0-1.084c0-2.18,0-4.348,0-6.516C43.275,308.366,46.729,307.471,49.005,305.396z M56.606,320.609
		c-8.603-0.354-2.242-10.688-5.43-11.949C47.518,313.48,51.816,324.334,56.606,320.609z M56.606,329.295
		c5.397,1.014,10.326-4.102,8.691-6.517C62.542,325.088,59.361,326.984,56.606,329.295z"/>
	<path fill-rule="evenodd" clip-rule="evenodd" fill="#D13F1C" d="M89.054,230.063c1.809,0,3.621,0,5.43,0c0.725,0,1.45,0,2.171,0
		c3.017,1.697,6.328,3.087,8.691,5.433c1.567,1.697,2.283,4.23,3.255,6.517c0.238,3.971,1.494,4.171,0,7.601
		c0,0.365,0,0.731,0,1.084c-1.915,0.99-3.361,2.439-4.343,4.348c-2.551,0.354-4.077,1.721-7.604,1.084
		c-4.39-1.402-7.928-3.653-10.859-6.517c0.003-1.084-0.881-1.284-1.087-2.168c0.003-1.084-0.878-1.296-1.084-2.168
		c0-0.365,0-0.73,0-1.084c0-2.18,0-4.349,0-6.517C83.324,233.033,86.777,232.138,89.054,230.063z M96.655,245.277
		c-8.603-0.354-2.242-10.688-5.43-11.949C87.566,238.147,91.864,249,96.655,245.277z M96.655,253.962
		c5.397,1.013,10.326-4.101,8.691-6.517C102.591,249.755,99.409,251.652,96.655,253.962z"/>
	<path fill-rule="evenodd" clip-rule="evenodd" fill="#D13F1C" d="M71.035,329.396c1.289,0,2.581,0,3.869,0c0.516,0,1.033,0,1.547,0
		c2.15,1.209,4.51,2.201,6.193,3.871c1.117,1.211,1.627,3.016,2.32,4.644c0.17,2.831,1.064,2.975,0,5.418c0,0.261,0,0.521,0,0.772
		c-1.365,0.705-2.396,1.738-3.095,3.099c-1.818,0.251-2.905,1.226-5.418,0.772c-3.128-1-5.649-2.603-7.738-4.644
		c0.002-0.772-0.628-0.916-0.775-1.545c0.002-0.773-0.625-0.925-0.772-1.546c0-0.261,0-0.521,0-0.772c0-1.555,0-3.099,0-4.645
		C66.952,331.512,69.413,330.873,71.035,329.396z M76.452,340.237c-6.13-0.252-1.597-7.617-3.87-8.516
		C69.975,335.156,73.038,342.891,76.452,340.237z M76.452,346.427c3.847,0.722,7.358-2.923,6.193-4.644
		C80.682,343.429,78.415,344.78,76.452,346.427z"/>
	<path fill-rule="evenodd" clip-rule="evenodd" fill="#D13F1C" d="M64.702,220.062c1.289,0,2.581,0,3.869,0c0.516,0,1.033,0,1.547,0
		c2.15,1.209,4.51,2.201,6.193,3.871c1.117,1.211,1.627,3.016,2.32,4.644c0.17,2.831,1.064,2.975,0,5.418c0,0.261,0,0.521,0,0.772
		c-1.365,0.705-2.396,1.738-3.095,3.099c-1.818,0.251-2.905,1.226-5.418,0.772c-3.128-1-5.649-2.603-7.738-4.644
		c0.002-0.772-0.628-0.916-0.775-1.545c0.002-0.773-0.625-0.925-0.772-1.546c0-0.261,0-0.521,0-0.772c0-1.555,0-3.099,0-4.645
		C60.618,222.179,63.079,221.54,64.702,220.062z M70.118,230.904c-6.13-0.252-1.597-7.617-3.87-8.516
		C63.642,225.823,66.705,233.558,70.118,230.904z M70.118,237.094c3.847,0.722,7.358-2.923,6.193-4.644
		C74.349,234.096,72.081,235.447,70.118,237.094z"/>
	<path fill-rule="evenodd" clip-rule="evenodd" fill="#CE893A" d="M172.184,260.947c4.521-3.222,9.48,0.995,13.688,1.783
		c0.881,0.31,1.501,0.885,2.382,1.189c0.333,0.858,0.927,1.453,1.786,1.788c0.113,0.484,0.597,0.594,0.594,1.188
		c0,0.794,0,1.589,0,2.383c-0.775-1.408-3.778-0.588-3.571-2.978c-1.624-0.433-1.198,1.182-2.38,1.188
		c-5.114-1.989-14.016-0.406-13.093,6.549c0-0.595,0-1.189,0-1.783c-0.639-1.543-2.153-2.215-2.381-4.166c0-1.388,0-2.776,0-4.171
		c0.555-0.433,0.901-1.079,1.189-1.783C171.248,261.994,171.402,261.154,172.184,260.947z M170.398,268.09
		c-0.217-6.754,9.429-6.587,11.902-4.171C179.898,258.223,166.973,261.199,170.398,268.09z"/>
	<path fill-rule="evenodd" clip-rule="evenodd" fill="#7A8539" d="M191.826,270.466c-0.989-1.498-3.51-1.117-5.357-2.977
		c-0.933,0.213,0.52,1.053-0.597,1.195c-0.53-0.265-1.062-0.523-1.188-1.195c1.182-0.006,0.756-1.621,2.38-1.188
		c-0.207,2.39,2.796,1.569,3.571,2.978c0-0.794,0-1.589,0-2.383c0.646,0.148,0.404,1.188,1.192,1.194
		C191.826,268.877,191.826,269.672,191.826,270.466z"/>
	<path fill-rule="evenodd" clip-rule="evenodd" fill="#CE893A" d="M185.872,268.684c1.117-0.142-0.336-0.981,0.597-1.195
		c1.847,1.86,4.368,1.479,5.357,2.977c3.229,1.918,3.229,9.99,0,11.902c-0.484,0.116-0.594,0.6-1.192,0.6
		c-1.918,0.859-4.991,0.562-7.736,0.594c6.016,0.058,9.977-8.744,4.166-11.901c4.479,5.095-0.811,9.99-5.356,11.307
		c-0.397,0-0.794,0-1.192,0c-0.536-1.052-1.33-1.847-2.38-2.383C184.877,280.579,186.663,274.503,185.872,268.684z"/>
	<path fill-rule="evenodd" clip-rule="evenodd" fill="#E5B261" d="M185.872,268.684c0.791,5.819-0.994,11.895-7.737,11.901
		c-0.481-0.116-0.594-0.594-1.188-0.594c-0.397,0-0.794,0-1.192,0c-1.182-1.201-2.815-1.943-3.571-3.571
		c0.135-1.123-0.671-1.311-0.594-2.382c-0.923-6.955,7.979-8.538,13.093-6.549C184.809,268.161,185.342,268.419,185.872,268.684z"/>
	<path fill-rule="evenodd" clip-rule="evenodd" fill="#CE893A" d="M172.184,289.125c4.521-3.222,9.48,0.995,13.688,1.783
		c0.881,0.31,1.501,0.885,2.382,1.189c0.333,0.858,0.927,1.453,1.786,1.788c0.113,0.484,0.597,0.594,0.594,1.188
		c0,0.794,0,1.589,0,2.383c-0.775-1.408-3.778-0.588-3.571-2.978c-1.624-0.433-1.198,1.182-2.38,1.188
		c-5.114-1.989-14.016-0.406-13.093,6.549c0-0.595,0-1.188,0-1.782c-0.639-1.544-2.153-2.215-2.381-4.166c0-1.388,0-2.776,0-4.171
		c0.555-0.433,0.901-1.079,1.189-1.783C171.248,290.171,171.402,289.332,172.184,289.125z M170.398,296.268
		c-0.217-6.754,9.429-6.587,11.902-4.171C179.898,286.4,166.973,289.377,170.398,296.268z"/>
	<path fill-rule="evenodd" clip-rule="evenodd" fill="#7A8539" d="M191.826,298.644c-0.989-1.498-3.51-1.117-5.357-2.977
		c-0.933,0.213,0.52,1.053-0.597,1.195c-0.53-0.265-1.062-0.523-1.188-1.195c1.182-0.006,0.756-1.621,2.38-1.188
		c-0.207,2.39,2.796,1.569,3.571,2.978c0-0.794,0-1.589,0-2.383c0.646,0.148,0.404,1.188,1.192,1.194
		C191.826,297.055,191.826,297.85,191.826,298.644z"/>
	<path fill-rule="evenodd" clip-rule="evenodd" fill="#CE893A" d="M185.872,296.862c1.117-0.142-0.336-0.981,0.597-1.195
		c1.847,1.86,4.368,1.479,5.357,2.977c3.229,1.918,3.229,9.991,0,11.902c-0.484,0.116-0.594,0.601-1.192,0.601
		c-1.918,0.859-4.991,0.562-7.736,0.594c6.016,0.059,9.977-8.744,4.166-11.901c4.479,5.095-0.811,9.99-5.356,11.308
		c-0.397,0-0.794,0-1.192,0c-0.536-1.053-1.33-1.848-2.38-2.383C184.877,308.757,186.663,302.681,185.872,296.862z"/>
	<path fill-rule="evenodd" clip-rule="evenodd" fill="#E5B261" d="M185.872,296.862c0.791,5.819-0.994,11.895-7.737,11.902
		c-0.481-0.116-0.594-0.594-1.188-0.594c-0.397,0-0.794,0-1.192,0c-1.182-1.201-2.815-1.943-3.571-3.572
		c0.135-1.123-0.671-1.311-0.594-2.382c-0.923-6.955,7.979-8.538,13.093-6.549C184.809,296.339,185.342,296.597,185.872,296.862z"/>
	<path fill-rule="evenodd" clip-rule="evenodd" fill="#CE893A" d="M128.517,291.096c4.521-3.222,9.48,0.995,13.688,1.783
		c0.881,0.31,1.501,0.885,2.382,1.189c0.333,0.858,0.927,1.453,1.786,1.788c0.113,0.484,0.597,0.594,0.594,1.188
		c0,0.794,0,1.589,0,2.383c-0.775-1.408-3.778-0.588-3.571-2.978c-1.624-0.433-1.198,1.182-2.38,1.188
		c-5.114-1.989-14.016-0.406-13.093,6.549c0-0.595,0-1.188,0-1.782c-0.639-1.544-2.153-2.215-2.381-4.166c0-1.388,0-2.776,0-4.171
		c0.555-0.433,0.901-1.079,1.189-1.783C127.581,292.142,127.735,291.303,128.517,291.096z M126.731,298.238
		c-0.217-6.754,9.429-6.587,11.902-4.171C136.231,288.371,123.306,291.348,126.731,298.238z"/>
	<path fill-rule="evenodd" clip-rule="evenodd" fill="#7A8539" d="M148.159,300.615c-0.989-1.498-3.51-1.117-5.357-2.978
		c-0.933,0.213,0.52,1.053-0.597,1.195c-0.53-0.265-1.062-0.523-1.188-1.195c1.182-0.006,0.756-1.621,2.38-1.188
		c-0.207,2.39,2.796,1.569,3.571,2.978c0-0.794,0-1.589,0-2.383c0.646,0.148,0.404,1.188,1.192,1.194
		C148.159,299.026,148.159,299.82,148.159,300.615z"/>
	<path fill-rule="evenodd" clip-rule="evenodd" fill="#CE893A" d="M142.205,298.833c1.117-0.142-0.336-0.981,0.597-1.195
		c1.847,1.86,4.368,1.479,5.357,2.978c3.229,1.918,3.229,9.99,0,11.901c-0.484,0.116-0.594,0.601-1.192,0.601
		c-1.918,0.859-4.991,0.562-7.736,0.594c6.016,0.059,9.977-8.744,4.166-11.901c4.479,5.095-0.811,9.99-5.356,11.308
		c-0.397,0-0.794,0-1.192,0c-0.536-1.053-1.33-1.848-2.38-2.383C141.21,310.728,142.996,304.651,142.205,298.833z"/>
	<path fill-rule="evenodd" clip-rule="evenodd" fill="#E5B261" d="M142.205,298.833c0.791,5.819-0.994,11.895-7.737,11.902
		c-0.481-0.116-0.594-0.594-1.188-0.594c-0.397,0-0.794,0-1.192,0c-1.182-1.201-2.815-1.943-3.571-3.572
		c0.135-1.123-0.671-1.311-0.594-2.382c-0.923-6.955,7.979-8.538,13.093-6.549C141.142,298.31,141.675,298.568,142.205,298.833z"/>
	<path fill-rule="evenodd" clip-rule="evenodd" fill="#CE893A" d="M128.517,262.916c4.521-3.222,9.48,0.995,13.688,1.783
		c0.881,0.31,1.501,0.885,2.382,1.189c0.333,0.858,0.927,1.453,1.786,1.788c0.113,0.484,0.597,0.594,0.594,1.188
		c0,0.794,0,1.589,0,2.383c-0.775-1.408-3.778-0.588-3.571-2.978c-1.624-0.433-1.198,1.182-2.38,1.188
		c-5.114-1.989-14.016-0.406-13.093,6.549c0-0.595,0-1.189,0-1.783c-0.639-1.543-2.153-2.215-2.381-4.166c0-1.388,0-2.776,0-4.171
		c0.555-0.433,0.901-1.079,1.189-1.783C127.581,263.962,127.735,263.123,128.517,262.916z M126.731,270.058
		c-0.217-6.754,9.429-6.587,11.902-4.171C136.231,260.191,123.306,263.167,126.731,270.058z"/>
	<path fill-rule="evenodd" clip-rule="evenodd" fill="#7A8539" d="M148.159,272.435c-0.989-1.498-3.51-1.117-5.357-2.977
		c-0.933,0.213,0.52,1.053-0.597,1.195c-0.53-0.265-1.062-0.523-1.188-1.195c1.182-0.006,0.756-1.621,2.38-1.188
		c-0.207,2.39,2.796,1.569,3.571,2.978c0-0.794,0-1.589,0-2.383c0.646,0.148,0.404,1.188,1.192,1.194
		C148.159,270.846,148.159,271.64,148.159,272.435z"/>
	<path fill-rule="evenodd" clip-rule="evenodd" fill="#CE893A" d="M142.205,270.652c1.117-0.142-0.336-0.981,0.597-1.195
		c1.847,1.86,4.368,1.479,5.357,2.977c3.229,1.918,3.229,9.99,0,11.902c-0.484,0.116-0.594,0.6-1.192,0.6
		c-1.918,0.859-4.991,0.562-7.736,0.594c6.016,0.058,9.977-8.744,4.166-11.901c4.479,5.095-0.811,9.99-5.356,11.307
		c-0.397,0-0.794,0-1.192,0c-0.536-1.052-1.33-1.847-2.38-2.383C141.21,282.547,142.996,276.471,142.205,270.652z"/>
	<path fill-rule="evenodd" clip-rule="evenodd" fill="#E5B261" d="M142.205,270.652c0.791,5.819-0.994,11.895-7.737,11.901
		c-0.481-0.116-0.594-0.594-1.188-0.594c-0.397,0-0.794,0-1.192,0c-1.182-1.201-2.815-1.943-3.571-3.571
		c0.135-1.123-0.671-1.311-0.594-2.382c-0.923-6.955,7.979-8.538,13.093-6.549C141.142,270.129,141.675,270.388,142.205,270.652z"/>
	<path fill-rule="evenodd" clip-rule="evenodd" fill="#CE893A" d="M131.847,237.517c4.107-2.927,8.613,0.904,12.437,1.62
		c0.801,0.282,1.364,0.804,2.165,1.081c0.303,0.78,0.842,1.32,1.623,1.625c0.102,0.439,0.542,0.54,0.539,1.08
		c0,0.722,0,1.443,0,2.165c-0.704-1.279-3.432-0.534-3.244-2.705c-1.476-0.393-1.088,1.074-2.163,1.079
		c-4.646-1.807-12.735-0.369-11.896,5.95c0-0.54,0-1.08,0-1.62c-0.581-1.402-1.957-2.012-2.163-3.785c0-1.261,0-2.522,0-3.79
		c0.504-0.394,0.818-0.98,1.081-1.62C130.997,238.467,131.137,237.705,131.847,237.517z M130.225,244.006
		c-0.197-6.137,8.567-5.985,10.814-3.79C138.856,235.041,127.112,237.746,130.225,244.006z"/>
	<path fill-rule="evenodd" clip-rule="evenodd" fill="#7A8539" d="M149.693,246.166c-0.898-1.361-3.189-1.015-4.867-2.705
		c-0.848,0.194,0.473,0.957-0.542,1.086c-0.481-0.241-0.965-0.475-1.08-1.086c1.074-0.005,0.687-1.472,2.163-1.079
		c-0.188,2.171,2.54,1.426,3.244,2.705c0-0.722,0-1.443,0-2.165c0.587,0.134,0.368,1.079,1.083,1.085
		C149.693,244.722,149.693,245.444,149.693,246.166z"/>
	<path fill-rule="evenodd" clip-rule="evenodd" fill="#CE893A" d="M144.284,244.546c1.015-0.129-0.305-0.892,0.542-1.086
		c1.678,1.69,3.969,1.344,4.867,2.705c2.934,1.743,2.934,9.077,0,10.814c-0.44,0.105-0.54,0.545-1.083,0.545
		c-1.743,0.781-4.535,0.511-7.029,0.54c5.466,0.053,9.065-7.945,3.785-10.814c4.069,4.63-0.737,9.077-4.867,10.274
		c-0.361,0-0.722,0-1.083,0c-0.487-0.956-1.208-1.678-2.163-2.165C143.38,255.354,145.002,249.833,144.284,244.546z"/>
	<path fill-rule="evenodd" clip-rule="evenodd" fill="#E5B261" d="M144.284,244.546c0.719,5.287-0.903,10.808-7.03,10.813
		c-0.437-0.105-0.54-0.54-1.08-0.54c-0.361,0-0.722,0-1.083,0c-1.074-1.091-2.558-1.766-3.245-3.245
		c0.123-1.021-0.61-1.191-0.54-2.165c-0.838-6.319,7.25-7.757,11.896-5.95C143.318,244.071,143.802,244.306,144.284,244.546z"/>
	<path fill-rule="evenodd" clip-rule="evenodd" fill="#CE893A" d="M174.227,236.424c4.107-2.927,8.613,0.904,12.437,1.62
		c0.801,0.282,1.364,0.804,2.165,1.081c0.303,0.78,0.842,1.32,1.623,1.625c0.102,0.439,0.542,0.54,0.539,1.08
		c0,0.722,0,1.443,0,2.165c-0.704-1.279-3.432-0.534-3.244-2.705c-1.476-0.393-1.088,1.074-2.163,1.079
		c-4.646-1.807-12.735-0.369-11.896,5.95c0-0.54,0-1.08,0-1.62c-0.581-1.402-1.957-2.012-2.163-3.785c0-1.261,0-2.522,0-3.79
		c0.504-0.394,0.818-0.98,1.081-1.62C173.376,237.375,173.516,236.612,174.227,236.424z M172.604,242.914
		c-0.197-6.137,8.567-5.985,10.814-3.79C181.235,233.948,169.492,236.653,172.604,242.914z"/>
	<path fill-rule="evenodd" clip-rule="evenodd" fill="#7A8539" d="M192.073,245.073c-0.898-1.361-3.189-1.015-4.867-2.705
		c-0.848,0.194,0.473,0.957-0.542,1.086c-0.481-0.241-0.965-0.475-1.08-1.086c1.074-0.005,0.687-1.472,2.163-1.079
		c-0.188,2.171,2.54,1.426,3.244,2.705c0-0.722,0-1.443,0-2.165c0.587,0.134,0.368,1.079,1.083,1.085
		C192.073,243.629,192.073,244.351,192.073,245.073z"/>
	<path fill-rule="evenodd" clip-rule="evenodd" fill="#CE893A" d="M186.663,243.454c1.015-0.129-0.305-0.892,0.542-1.086
		c1.678,1.69,3.969,1.344,4.867,2.705c2.934,1.743,2.934,9.077,0,10.814c-0.44,0.105-0.54,0.545-1.083,0.545
		c-1.743,0.781-4.535,0.511-7.029,0.54c5.466,0.053,9.065-7.945,3.785-10.814c4.069,4.63-0.737,9.077-4.867,10.274
		c-0.361,0-0.722,0-1.083,0c-0.487-0.956-1.208-1.678-2.163-2.165C185.76,254.261,187.382,248.741,186.663,243.454z"/>
	<path fill-rule="evenodd" clip-rule="evenodd" fill="#E5B261" d="M186.663,243.454c0.719,5.287-0.903,10.808-7.03,10.813
		c-0.437-0.105-0.54-0.54-1.08-0.54c-0.361,0-0.722,0-1.083,0c-1.074-1.091-2.558-1.766-3.245-3.245
		c0.123-1.021-0.61-1.191-0.54-2.165c-0.838-6.319,7.25-7.757,11.896-5.95C185.698,242.979,186.182,243.213,186.663,243.454z"/>
	<path fill-rule="evenodd" clip-rule="evenodd" fill="#CE893A" d="M170.962,317.456c4.107-2.927,8.613,0.904,12.437,1.62
		c0.801,0.281,1.364,0.804,2.165,1.08c0.303,0.779,0.842,1.32,1.623,1.625c0.102,0.439,0.542,0.539,0.539,1.08
		c0,0.721,0,1.443,0,2.164c-0.704-1.279-3.432-0.533-3.244-2.705c-1.476-0.393-1.088,1.074-2.163,1.08
		c-4.646-1.807-12.735-0.369-11.896,5.949c0-0.539,0-1.08,0-1.619c-0.581-1.402-1.957-2.012-2.163-3.785c0-1.26,0-2.521,0-3.789
		c0.504-0.394,0.818-0.98,1.081-1.62C170.111,318.406,170.251,317.645,170.962,317.456z M169.339,323.945
		c-0.197-6.137,8.567-5.984,10.814-3.789C177.971,314.98,166.227,317.686,169.339,323.945z"/>
	<path fill-rule="evenodd" clip-rule="evenodd" fill="#7A8539" d="M188.808,326.105c-0.898-1.361-3.189-1.016-4.867-2.705
		c-0.848,0.193,0.473,0.956-0.542,1.086c-0.481-0.241-0.965-0.476-1.08-1.086c1.074-0.006,0.687-1.473,2.163-1.08
		c-0.188,2.172,2.54,1.426,3.244,2.705c0-0.721,0-1.443,0-2.164c0.587,0.134,0.368,1.078,1.083,1.084
		C188.808,324.662,188.808,325.383,188.808,326.105z"/>
	<path fill-rule="evenodd" clip-rule="evenodd" fill="#CE893A" d="M183.398,324.486c1.015-0.13-0.305-0.893,0.542-1.086
		c1.678,1.689,3.969,1.344,4.867,2.705c2.934,1.742,2.934,9.076,0,10.813c-0.44,0.104-0.54,0.546-1.083,0.546
		c-1.743,0.78-4.535,0.511-7.029,0.539c5.466,0.053,9.065-7.944,3.785-10.813c4.069,4.63-0.737,9.077-4.867,10.274
		c-0.361,0-0.722,0-1.083,0c-0.487-0.957-1.208-1.678-2.163-2.166C182.495,335.293,184.117,329.773,183.398,324.486z"/>
	<path fill-rule="evenodd" clip-rule="evenodd" fill="#E5B261" d="M183.398,324.486c0.719,5.287-0.903,10.807-7.03,10.812
		c-0.437-0.104-0.54-0.539-1.08-0.539c-0.361,0-0.722,0-1.083,0c-1.074-1.092-2.558-1.766-3.245-3.244
		c0.123-1.021-0.61-1.191-0.54-2.166c-0.838-6.318,7.25-7.756,11.896-5.949C182.433,324.011,182.917,324.245,183.398,324.486z"/>
	<path fill-rule="evenodd" clip-rule="evenodd" fill="#CE893A" d="M130.206,317.455c4.107-2.927,8.613,0.904,12.437,1.62
		c0.801,0.282,1.364,0.804,2.165,1.081c0.303,0.779,0.842,1.319,1.623,1.624c0.102,0.439,0.542,0.54,0.539,1.08
		c0,0.722,0,1.443,0,2.165c-0.704-1.279-3.432-0.534-3.244-2.705c-1.476-0.393-1.088,1.074-2.163,1.079
		c-4.646-1.807-12.735-0.369-11.896,5.95c0-0.54,0-1.08,0-1.619c-0.581-1.402-1.957-2.013-2.163-3.785c0-1.261,0-2.522,0-3.789
		c0.504-0.395,0.818-0.98,1.081-1.621C129.355,318.406,129.495,317.644,130.206,317.455z M128.583,323.945
		c-0.197-6.137,8.567-5.984,10.814-3.789C137.214,314.98,125.471,317.685,128.583,323.945z"/>
	<path fill-rule="evenodd" clip-rule="evenodd" fill="#7A8539" d="M148.052,326.104c-0.898-1.36-3.189-1.015-4.867-2.705
		c-0.848,0.194,0.473,0.956-0.542,1.086c-0.481-0.241-0.965-0.476-1.08-1.086c1.074-0.005,0.687-1.472,2.163-1.079
		c-0.188,2.171,2.54,1.426,3.244,2.705c0-0.722,0-1.443,0-2.165c0.587,0.134,0.368,1.079,1.083,1.085
		C148.052,324.661,148.052,325.383,148.052,326.104z"/>
	<path fill-rule="evenodd" clip-rule="evenodd" fill="#CE893A" d="M142.642,324.485c1.015-0.13-0.305-0.892,0.542-1.086
		c1.678,1.69,3.969,1.345,4.867,2.705c2.934,1.743,2.934,9.077,0,10.813c-0.44,0.105-0.54,0.546-1.083,0.546
		c-1.743,0.78-4.535,0.511-7.029,0.54c5.466,0.053,9.065-7.945,3.785-10.814c4.069,4.631-0.737,9.078-4.867,10.274
		c-0.361,0-0.722,0-1.083,0c-0.487-0.956-1.208-1.678-2.163-2.165C141.739,335.293,143.361,329.772,142.642,324.485z"/>
	<path fill-rule="evenodd" clip-rule="evenodd" fill="#E5B261" d="M142.642,324.485c0.719,5.287-0.903,10.808-7.03,10.813
		c-0.437-0.105-0.54-0.539-1.08-0.539c-0.361,0-0.722,0-1.083,0c-1.074-1.092-2.558-1.766-3.245-3.245
		c0.123-1.021-0.61-1.19-0.54-2.165c-0.838-6.319,7.25-7.757,11.896-5.95C141.677,324.01,142.161,324.244,142.642,324.485z"/>
	<path fill-rule="evenodd" clip-rule="evenodd" fill="#CE893A" d="M154.057,221.613c3.287-2.342,6.893,0.724,9.953,1.296
		c0.641,0.226,1.092,0.644,1.732,0.865c0.242,0.624,0.674,1.056,1.299,1.3c0.082,0.352,0.434,0.432,0.432,0.864
		c0,0.578,0,1.155,0,1.732c-0.563-1.023-2.747-0.427-2.596-2.165c-1.181-0.315-0.871,0.859-1.731,0.863
		c-3.719-1.446-10.191-0.295-9.521,4.762c0-0.432,0-0.864,0-1.296c-0.465-1.122-1.566-1.61-1.731-3.029c0-1.009,0-2.019,0-3.033
		c0.404-0.315,0.655-0.785,0.865-1.296C153.376,222.375,153.488,221.764,154.057,221.613z M152.759,226.807
		c-0.158-4.912,6.856-4.79,8.654-3.033C159.666,219.632,150.268,221.797,152.759,226.807z"/>
	<path fill-rule="evenodd" clip-rule="evenodd" fill="#7A8539" d="M168.339,228.535c-0.719-1.089-2.552-0.812-3.895-2.165
		c-0.679,0.155,0.378,0.766-0.435,0.869c-0.385-0.192-0.772-0.38-0.864-0.869c0.86-0.004,0.55-1.178,1.731-0.863
		c-0.151,1.737,2.033,1.141,2.596,2.165c0-0.577,0-1.155,0-1.732c0.47,0.107,0.294,0.863,0.867,0.868
		C168.339,227.38,168.339,227.958,168.339,228.535z"/>
	<path fill-rule="evenodd" clip-rule="evenodd" fill="#CE893A" d="M164.01,227.239c0.812-0.104-0.244-0.714,0.435-0.869
		c1.343,1.353,3.176,1.076,3.895,2.165c2.348,1.395,2.348,7.264,0,8.654c-0.352,0.084-0.432,0.437-0.867,0.437
		c-1.395,0.625-3.629,0.409-5.625,0.432c4.374,0.042,7.254-6.358,3.029-8.654c3.256,3.705-0.59,7.265-3.895,8.222
		c-0.289,0-0.578,0-0.867,0c-0.39-0.765-0.967-1.343-1.73-1.733C163.287,235.889,164.585,231.471,164.01,227.239z"/>
	<path fill-rule="evenodd" clip-rule="evenodd" fill="#E5B261" d="M164.01,227.239c0.575,4.231-0.723,8.649-5.625,8.654
		c-0.35-0.084-0.432-0.432-0.864-0.432c-0.289,0-0.578,0-0.866,0c-0.859-0.873-2.047-1.413-2.597-2.597
		c0.099-0.816-0.488-0.953-0.432-1.732c-0.671-5.058,5.802-6.208,9.521-4.762C163.237,226.859,163.625,227.047,164.01,227.239z"/>
	<path fill-rule="evenodd" clip-rule="evenodd" fill="#CE893A" d="M156.057,329.946c3.287-2.343,6.893,0.724,9.953,1.296
		c0.641,0.227,1.092,0.645,1.732,0.865c0.242,0.624,0.674,1.057,1.299,1.301c0.082,0.352,0.434,0.432,0.432,0.863
		c0,0.578,0,1.156,0,1.732c-0.563-1.023-2.747-0.427-2.596-2.164c-1.181-0.314-0.871,0.859-1.731,0.863
		c-3.719-1.445-10.191-0.295-9.521,4.762c0-0.432,0-0.863,0-1.296c-0.465-1.122-1.566-1.61-1.731-3.028c0-1.01,0-2.02,0-3.033
		c0.404-0.314,0.655-0.785,0.865-1.297C155.376,330.707,155.488,330.098,156.057,329.946z M154.759,335.141
		c-0.158-4.912,6.856-4.79,8.654-3.033C161.666,327.965,152.268,330.13,154.759,335.141z"/>
	<path fill-rule="evenodd" clip-rule="evenodd" fill="#CE893A" d="M166.01,335.572c0.812-0.104-0.244-0.714,0.435-0.869
		c1.343,1.354,3.176,1.076,3.895,2.165c2.348,1.396,2.348,7.265,0,8.654c-0.352,0.084-0.432,0.437-0.867,0.437
		c-1.395,0.625-3.629,0.409-5.625,0.432c4.374,0.043,7.254-6.357,3.029-8.654c3.256,3.705-0.59,7.266-3.895,8.223
		c-0.289,0-0.578,0-0.867,0c-0.39-0.766-0.967-1.343-1.73-1.732C165.287,344.222,166.585,339.804,166.01,335.572z"/>
	<path fill-rule="evenodd" clip-rule="evenodd" fill="#E5B261" d="M166.01,335.572c0.575,4.231-0.723,8.649-5.625,8.654
		c-0.35-0.084-0.432-0.432-0.864-0.432c-0.289,0-0.578,0-0.866,0c-0.859-0.873-2.047-1.414-2.597-2.598
		c0.099-0.816-0.488-0.953-0.432-1.732c-0.671-5.057,5.802-6.207,9.521-4.762C165.237,335.192,165.625,335.38,166.01,335.572z"/>
	<path fill-rule="evenodd" clip-rule="evenodd" fill="#C6D864" d="M272.643,224.518c1.146-0.124,1.886,0.162,1.754,1.313
		c-1.658,1,1.51,0.78,1.754,1.318c0.236,1.551-0.372,2.26-1.315,2.631c-0.353,0.232-0.712,0.457-1.315,0.438
		c0.393,0.775,1.78,0.556,1.315,2.193c-0.81,1.437-1.326,2.194-2.631,2.194c1.03,2.603-2.014,2.745-1.315,5.699
		c-0.585,0-1.169,0-1.754,0c-0.95,0.243,1.485,1.694,0,2.632c-1.193,1.289-1.688,3.277-4.384,3.068c-0.147,0-0.293,0-0.439,0
		c-0.155-0.576-0.772-0.69-0.876-1.318c-1.029-3.23,1.764-4.834,1.315-7.893c0.504-0.519,0.496-1.546,0.438-2.632
		c0.624-0.837,1.354-1.564,2.192-2.188c-1.009-0.347,0.753-1.537,0.876-2.193c0-0.438,0-0.881,0-1.318
		c0.922-0.362,1.709-1.804,2.631-0.875c-0.447-1.908,0.906-2.017,1.315-3.069C272.35,224.518,272.497,224.518,272.643,224.518z
		 M267.381,241.618c0.573-5.776-1.872,2.502-1.315,3.068C265.955,243.117,267.382,243.083,267.381,241.618z M267.819,238.549
		c0.18-0.881,1.086-3.255,0-3.944C267.317,235.157,266.939,238.059,267.819,238.549z"/>
	<path fill-rule="evenodd" clip-rule="evenodd" fill="#7A8539" d="M257.735,233.287c1.207-0.837,2.23-1.861,3.069-3.069
		c0.56-0.025,0.608-0.562,1.316-0.438c0.104,0.623,0.722,0.737,0.876,1.313c-0.81,0.067-0.269,1.484-0.876,1.756
		c0.583,0.438,1.631,0.414,1.754,1.312c0.001,0.443-0.356,0.524-0.438,0.88c-0.373-0.08-0.414,0.171-0.439,0.438
		c0.431,0.59,1.17,0.875,1.755,1.313c0.448,3.059-2.345,4.663-1.315,7.893c-0.929-1.261-1.942-2.441-1.755-4.825
		c-1.01,1.889-1.241-2.231-1.753-3.506c-0.62,0.328-0.37,6.305-1.315,3.949c0.816,2.032,3.485,0.928,3.508,4.382
		c-1.24,0.361-1.136-0.619-2.193-0.438c-0.873-0.442-1.873-0.756-2.192-1.756c-1.105-0.823,0.921-2.274-0.877-2.631
		c0.123-0.704-0.415-0.752-0.438-1.312c1.077-0.976,0.7-2.027,0-3.069C256.677,234.566,257.34,234.062,257.735,233.287z"/>
	<path fill-rule="evenodd" clip-rule="evenodd" fill="#3E5523" d="M269.135,242.936c0.816-1.818,4.172-1.09,3.508-4.387
		c1.842,1.412,2.762-1.128,3.07-2.631c2.265,1.941-3.057,3.592-0.877,4.824c-1.865,1.931-5.803,1.793-6.578,4.825
		c-1.956,0.38-2.522,2.155-3.069,3.944c-0.196,1.412-0.669,2.545-2.631,2.193c-0.881-0.895,0.194-0.86,0.438-1.755
		c-0.275-1.333,0.561-3.778-0.438-4.382c0-0.147,0-0.295,0-0.443c0.081-0.371-0.171-0.414-0.438-0.438
		c-0.023-3.455-2.692-2.351-3.508-4.382c0.945,2.356,0.695-3.621,1.315-3.949c0.513,1.275,0.743,5.396,1.753,3.506
		c-0.188,2.384,0.826,3.564,1.755,4.825c0.104,0.628,0.722,0.742,0.876,1.318c-1.201-1.347-1.041,1.294-0.438,1.75
		c0.587-0.285,0.816-0.937,0.877-1.75C267.447,246.213,267.941,244.225,269.135,242.936z"/>
	<path fill-rule="evenodd" clip-rule="evenodd" fill="#95A645" d="M268.258,245.567c0.774-3.031,4.713-2.894,6.578-4.825
		c-2.18-1.232,3.142-2.883,0.877-4.824c-0.308,1.503-1.228,4.043-3.07,2.631c0.665,3.297-2.691,2.568-3.508,4.387
		c1.485-0.938-0.95-2.389,0-2.632c0.585,0,1.169,0,1.754,0c-0.699-2.954,2.345-3.097,1.315-5.699c1.305,0,1.821-0.757,2.631-2.194
		c0.873-0.685,2.241-2.189,3.069-0.438c0.05-1.561,1.452-1.766,3.07-1.755c1.551,2.292-1.617,3.087-0.439,5.262
		c-1.208,1.014-0.271,1.451-0.439,3.507c-0.39,0.195-0.784,0.385-0.876,0.875c-1.193,0.667-0.17,3.597-3.069,3.511
		c-0.97,0.342-1.098,1.532-1.754,2.194c-0.638-0.243-2.266,0.509-2.192-0.443c-0.41,0.323-0.666,0.799-0.878,1.318
		C270.343,247.375,268.438,246.756,268.258,245.567z"/>
	<path fill-rule="evenodd" clip-rule="evenodd" fill="#561730" d="M262.12,249.949c0.292,0,0.584,0,0.876,0
		c-0.244,0.895-1.319,0.86-0.438,1.755c1.961,0.353,2.435-0.781,2.631-2.193c1.973,0.508,3.686,1.285,3.946,3.506
		c0,0.438,0,0.88,0,1.318c0,0.143,0,0.291,0,0.438c-0.593,0.428-0.875,1.17-1.316,1.755c-1.093,0.219-1.801,0.828-2.63,1.314
		c-0.917-0.186-1.162,0.299-1.754,0.437c-1.08,0.966-2.871,1.223-3.07,3.069c-0.476-0.105-0.297-0.871-0.876-0.875
		c0.14-1.018-0.07-1.685-0.438-2.194c-0.377-0.352-0.26-1.199-0.877-1.313c0.055-0.79-0.537-0.928-0.438-1.755
		c0-0.585,0-1.171,0-1.756c0.228-0.647,0.648-1.104,0.876-1.751c0.39-0.195,0.784-0.385,0.877-0.88
		c0.267-0.023,0.52-0.061,0.438-0.438c0.146,0,0.293,0,0.438,0C260.958,250.248,261.203,249.764,262.12,249.949z M266.066,256.086
		c1.815,0.195,3.24-3.125,1.315-3.944c-0.049,0.828-1.45,0.305-1.315,1.313C267.042,253.641,266.408,255.782,266.066,256.086z"/>
	<path fill-rule="evenodd" clip-rule="evenodd" fill="#9A8D92" d="M266.066,253.455c-0.135-1.008,1.267-0.485,1.315-1.313
		c1.924,0.818,0.5,4.139-1.315,3.944C266.408,255.782,267.042,253.641,266.066,253.455z"/>
	<path fill-rule="evenodd" clip-rule="evenodd" fill="#C6D864" d="M232.121,259.778c1.146-0.124,1.886,0.162,1.754,1.313
		c-1.658,1,1.51,0.78,1.754,1.318c0.236,1.551-0.372,2.26-1.315,2.631c-0.353,0.232-0.712,0.457-1.315,0.438
		c0.393,0.775,1.78,0.556,1.315,2.193c-0.81,1.437-1.326,2.194-2.631,2.194c1.03,2.603-2.014,2.745-1.315,5.699
		c-0.585,0-1.169,0-1.754,0c-0.95,0.243,1.485,1.694,0,2.632c-1.193,1.289-1.688,3.277-4.384,3.068c-0.147,0-0.293,0-0.439,0
		c-0.155-0.576-0.772-0.69-0.876-1.318c-1.029-3.23,1.764-4.834,1.315-7.893c0.504-0.519,0.496-1.546,0.438-2.632
		c0.624-0.837,1.354-1.564,2.192-2.188c-1.009-0.347,0.753-1.537,0.876-2.193c0-0.438,0-0.881,0-1.318
		c0.922-0.362,1.709-1.804,2.631-0.875c-0.447-1.908,0.906-2.017,1.315-3.069C231.828,259.778,231.975,259.778,232.121,259.778z
		 M226.859,276.878c0.573-5.776-1.872,2.502-1.315,3.068C225.433,278.376,226.86,278.343,226.859,276.878z M227.297,273.809
		c0.18-0.881,1.086-3.255,0-3.944C226.795,270.417,226.417,273.318,227.297,273.809z"/>
	<path fill-rule="evenodd" clip-rule="evenodd" fill="#7A8539" d="M217.213,268.547c1.207-0.837,2.23-1.861,3.069-3.069
		c0.56-0.025,0.608-0.562,1.316-0.438c0.104,0.623,0.722,0.737,0.876,1.313c-0.81,0.067-0.269,1.484-0.876,1.756
		c0.583,0.438,1.631,0.414,1.754,1.312c0.001,0.443-0.356,0.524-0.438,0.88c-0.373-0.08-0.414,0.171-0.439,0.438
		c0.431,0.59,1.17,0.875,1.755,1.313c0.448,3.059-2.345,4.663-1.315,7.893c-0.929-1.261-1.942-2.441-1.755-4.825
		c-1.01,1.889-1.241-2.231-1.753-3.506c-0.62,0.328-0.37,6.305-1.315,3.949c0.816,2.032,3.485,0.928,3.508,4.382
		c-1.24,0.361-1.136-0.619-2.193-0.438c-0.873-0.442-1.873-0.756-2.192-1.756c-1.105-0.823,0.921-2.274-0.877-2.631
		c0.123-0.704-0.415-0.752-0.438-1.312c1.077-0.976,0.7-2.027,0-3.069C216.155,269.826,216.818,269.322,217.213,268.547z"/>
	<path fill-rule="evenodd" clip-rule="evenodd" fill="#3E5523" d="M228.613,278.196c0.816-1.818,4.172-1.09,3.508-4.387
		c1.842,1.412,2.762-1.128,3.07-2.631c2.265,1.941-3.057,3.592-0.877,4.824c-1.865,1.931-5.803,1.793-6.578,4.825
		c-1.956,0.38-2.522,2.155-3.069,3.944c-0.196,1.412-0.669,2.545-2.631,2.193c-0.881-0.895,0.194-0.86,0.438-1.755
		c-0.275-1.333,0.561-3.778-0.438-4.382c0-0.147,0-0.295,0-0.443c0.081-0.371-0.171-0.414-0.438-0.438
		c-0.023-3.455-2.692-2.351-3.508-4.382c0.945,2.356,0.695-3.621,1.315-3.949c0.513,1.275,0.743,5.396,1.753,3.506
		c-0.188,2.384,0.826,3.564,1.755,4.825c0.104,0.628,0.722,0.742,0.876,1.318c-1.201-1.347-1.041,1.294-0.438,1.75
		c0.587-0.285,0.816-0.937,0.877-1.75C226.925,281.473,227.419,279.484,228.613,278.196z"/>
	<path fill-rule="evenodd" clip-rule="evenodd" fill="#95A645" d="M227.736,280.827c0.774-3.031,4.713-2.894,6.578-4.825
		c-2.18-1.232,3.142-2.883,0.877-4.824c-0.308,1.503-1.228,4.043-3.07,2.631c0.665,3.297-2.691,2.568-3.508,4.387
		c1.485-0.938-0.95-2.389,0-2.632c0.585,0,1.169,0,1.754,0c-0.699-2.954,2.345-3.097,1.315-5.699c1.305,0,1.821-0.757,2.631-2.194
		c0.873-0.685,2.241-2.189,3.069-0.438c0.05-1.561,1.452-1.766,3.07-1.755c1.551,2.292-1.617,3.087-0.439,5.262
		c-1.208,1.014-0.271,1.451-0.439,3.507c-0.39,0.195-0.784,0.385-0.876,0.875c-1.193,0.667-0.17,3.597-3.069,3.511
		c-0.97,0.342-1.098,1.532-1.754,2.194c-0.638-0.243-2.266,0.509-2.192-0.443c-0.41,0.323-0.666,0.799-0.878,1.318
		C229.821,282.634,227.917,282.016,227.736,280.827z"/>
	<path fill-rule="evenodd" clip-rule="evenodd" fill="#561730" d="M221.598,285.208c0.292,0,0.584,0,0.876,0
		c-0.244,0.895-1.319,0.86-0.438,1.755c1.961,0.353,2.435-0.781,2.631-2.193c1.973,0.508,3.686,1.285,3.946,3.506
		c0,0.438,0,0.88,0,1.318c0,0.143,0,0.291,0,0.438c-0.593,0.428-0.875,1.17-1.316,1.755c-1.093,0.219-1.801,0.828-2.63,1.314
		c-0.917-0.186-1.162,0.299-1.754,0.437c-1.08,0.966-2.871,1.223-3.07,3.069c-0.476-0.105-0.297-0.871-0.876-0.875
		c0.14-1.018-0.07-1.685-0.438-2.194c-0.377-0.352-0.26-1.199-0.877-1.313c0.055-0.79-0.537-0.928-0.438-1.755
		c0-0.585,0-1.171,0-1.756c0.228-0.647,0.648-1.104,0.876-1.751c0.39-0.195,0.784-0.385,0.877-0.88
		c0.267-0.023,0.52-0.061,0.438-0.438c0.146,0,0.293,0,0.438,0C220.437,285.508,220.681,285.023,221.598,285.208z M225.544,291.346
		c1.815,0.195,3.24-3.125,1.315-3.944c-0.049,0.828-1.45,0.305-1.315,1.313C226.52,288.9,225.886,291.042,225.544,291.346z"/>
	<path fill-rule="evenodd" clip-rule="evenodd" fill="#9A8D92" d="M225.544,288.715c-0.135-1.008,1.267-0.485,1.315-1.313
		c1.924,0.818,0.5,4.139-1.315,3.944C225.886,291.042,226.52,288.9,225.544,288.715z"/>
	<path fill-rule="evenodd" clip-rule="evenodd" fill="#C6D864" d="M274.562,289.404c1.146-0.124,1.886,0.162,1.754,1.313
		c-1.658,1,1.51,0.78,1.754,1.318c0.236,1.551-0.372,2.26-1.315,2.631c-0.353,0.232-0.712,0.457-1.315,0.438
		c0.393,0.775,1.78,0.556,1.315,2.193c-0.81,1.437-1.326,2.194-2.631,2.194c1.03,2.603-2.014,2.745-1.315,5.699
		c-0.585,0-1.169,0-1.754,0c-0.95,0.243,1.485,1.694,0,2.632c-1.193,1.289-1.688,3.277-4.384,3.068c-0.147,0-0.293,0-0.439,0
		c-0.155-0.576-0.772-0.689-0.876-1.318c-1.029-3.23,1.764-4.834,1.315-7.893c0.504-0.519,0.496-1.547,0.438-2.632
		c0.624-0.837,1.354-1.564,2.192-2.188c-1.009-0.347,0.753-1.537,0.876-2.193c0-0.438,0-0.881,0-1.318
		c0.922-0.362,1.709-1.804,2.631-0.875c-0.447-1.908,0.906-2.017,1.315-3.069C274.269,289.404,274.416,289.404,274.562,289.404z
		 M269.3,306.504c0.573-5.775-1.872,2.502-1.315,3.068C267.874,308.003,269.301,307.97,269.3,306.504z M269.738,303.436
		c0.18-0.881,1.086-3.255,0-3.944C269.236,300.043,268.858,302.945,269.738,303.436z"/>
	<path fill-rule="evenodd" clip-rule="evenodd" fill="#7A8539" d="M259.654,298.173c1.207-0.837,2.23-1.861,3.069-3.069
		c0.56-0.025,0.608-0.562,1.316-0.438c0.104,0.623,0.722,0.737,0.876,1.313c-0.81,0.067-0.269,1.484-0.876,1.756
		c0.583,0.438,1.631,0.414,1.754,1.312c0.001,0.443-0.356,0.524-0.438,0.88c-0.373-0.08-0.414,0.171-0.439,0.438
		c0.431,0.59,1.17,0.876,1.755,1.313c0.448,3.059-2.345,4.662-1.315,7.893c-0.929-1.26-1.942-2.44-1.755-4.824
		c-1.01,1.889-1.241-2.23-1.753-3.506c-0.62,0.328-0.37,6.305-1.315,3.948c0.816,2.032,3.485,0.928,3.508,4.382
		c-1.24,0.361-1.136-0.618-2.193-0.438c-0.873-0.441-1.873-0.756-2.192-1.756c-1.105-0.822,0.921-2.273-0.877-2.631
		c0.123-0.704-0.415-0.752-0.438-1.312c1.077-0.976,0.7-2.027,0-3.069C258.596,299.453,259.259,298.948,259.654,298.173z"/>
	<path fill-rule="evenodd" clip-rule="evenodd" fill="#3E5523" d="M271.054,307.822c0.816-1.818,4.172-1.09,3.508-4.387
		c1.842,1.412,2.762-1.128,3.07-2.631c2.265,1.941-3.057,3.592-0.877,4.824c-1.865,1.931-5.803,1.793-6.578,4.824
		c-1.956,0.381-2.522,2.154-3.069,3.944c-0.196,1.412-0.669,2.546-2.631,2.192c-0.881-0.895,0.194-0.859,0.438-1.755
		c-0.275-1.333,0.561-3.778-0.438-4.382c0-0.147,0-0.295,0-0.443c0.081-0.37-0.171-0.413-0.438-0.438
		c-0.023-3.454-2.692-2.35-3.508-4.382c0.945,2.356,0.695-3.62,1.315-3.948c0.513,1.275,0.743,5.395,1.753,3.506
		c-0.188,2.384,0.826,3.564,1.755,4.824c0.104,0.629,0.722,0.742,0.876,1.318c-1.201-1.347-1.041,1.295-0.438,1.75
		c0.587-0.285,0.816-0.937,0.877-1.75C269.366,311.1,269.86,309.111,271.054,307.822z"/>
	<path fill-rule="evenodd" clip-rule="evenodd" fill="#95A645" d="M270.177,310.453c0.774-3.031,4.713-2.894,6.578-4.824
		c-2.18-1.232,3.142-2.883,0.877-4.824c-0.308,1.503-1.228,4.043-3.07,2.631c0.665,3.297-2.691,2.568-3.508,4.387
		c1.485-0.938-0.95-2.389,0-2.632c0.585,0,1.169,0,1.754,0c-0.699-2.954,2.345-3.097,1.315-5.699c1.305,0,1.821-0.757,2.631-2.194
		c0.873-0.685,2.241-2.189,3.069-0.438c0.05-1.561,1.452-1.766,3.07-1.755c1.551,2.292-1.617,3.087-0.439,5.262
		c-1.208,1.014-0.271,1.45-0.439,3.507c-0.39,0.195-0.784,0.385-0.876,0.875c-1.193,0.666-0.17,3.598-3.069,3.512
		c-0.97,0.342-1.098,1.531-1.754,2.193c-0.638-0.242-2.266,0.51-2.192-0.443c-0.41,0.324-0.666,0.8-0.878,1.318
		C272.262,312.261,270.357,311.643,270.177,310.453z"/>
	<path fill-rule="evenodd" clip-rule="evenodd" fill="#561730" d="M264.039,314.835c0.292,0,0.584,0,0.876,0
		c-0.244,0.896-1.319,0.86-0.438,1.755c1.961,0.354,2.435-0.78,2.631-2.192c1.973,0.509,3.686,1.284,3.946,3.507
		c0,0.438,0,0.879,0,1.317c0,0.143,0,0.29,0,0.438c-0.593,0.428-0.875,1.17-1.316,1.754c-1.093,0.22-1.801,0.828-2.63,1.314
		c-0.917-0.186-1.162,0.299-1.754,0.438c-1.08,0.966-2.871,1.223-3.07,3.068c-0.476-0.104-0.297-0.871-0.876-0.875
		c0.14-1.018-0.07-1.685-0.438-2.193c-0.377-0.353-0.26-1.199-0.877-1.313c0.055-0.79-0.537-0.929-0.438-1.755
		c0-0.586,0-1.171,0-1.756c0.228-0.647,0.648-1.104,0.876-1.752c0.39-0.195,0.784-0.385,0.877-0.88
		c0.267-0.023,0.52-0.062,0.438-0.438c0.146,0,0.293,0,0.438,0C262.877,315.135,263.122,314.65,264.039,314.835z M267.985,320.973
		c1.815,0.195,3.24-3.126,1.315-3.944c-0.049,0.828-1.45,0.305-1.315,1.313C268.96,318.527,268.327,320.668,267.985,320.973z"/>
	<path fill-rule="evenodd" clip-rule="evenodd" fill="#9A8D92" d="M267.985,318.342c-0.135-1.009,1.267-0.485,1.315-1.313
		c1.924,0.818,0.5,4.14-1.315,3.944C268.327,320.668,268.96,318.527,267.985,318.342z"/>
	<path fill-rule="evenodd" clip-rule="evenodd" fill="#3E5523" d="M223.393,225.386c0.836,0.653,2.284,0.694,2.791,1.675
		c-0.872,1.44-3.007-2.185-3.349,1.116c1.161-0.625,1.184-0.603,0.559,0.559c0.106,0.451,0.56,0.556,0.559,1.116
		c0.542-0.015,0.433-0.683,0.557-1.116c1.831,0.31,0.853,2.159-1.116,1.673c0.106,0.453,0.56,0.557,0.559,1.117
		c1.826,1.29-2.759-1.643-0.559,0.558c-0.997,1.593-1.56-2.084,0-2.232c-0.197-0.733-0.983-0.878-1.116-1.674
		c-1.566,0.007,1.329,1.523-1.116,1.116c0.246-1.614,1.177-2.544,2.791-2.791C223.845,226.049,223.391,225.947,223.393,225.386z"/>
	<path fill-rule="evenodd" clip-rule="evenodd" fill="#3E5523" d="M222.834,225.386c-0.362,0.567-1.283,0.577-1.116,1.675
		c-1.064-0.238-1.01-1.596-2.791-1.118c2.889,1.386,2.297,7.513-1.674,8.933c-0.542-0.015-0.434-0.685-0.558-1.118
		c0-0.371,0-0.743,0-1.116c0-1.489,0-2.978,0-4.465c-0.003-0.561,0.452-0.665,0.558-1.116
		C218.603,226.106,220.631,223.727,222.834,225.386z M217.252,234.317c2.589-0.792,1.425-3.371,2.791-6.14
		C218.942,228.959,217.735,231.42,217.252,234.317z"/>
	<path fill-rule="evenodd" clip-rule="evenodd" fill="#586631" d="M223.393,225.386c-0.002,0.561,0.453,0.663,0.559,1.116
		c-1.614,0.247-2.545,1.176-2.791,2.791c2.445,0.407-0.45-1.108,1.116-1.116c0.133,0.796,0.919,0.941,1.116,1.674
		c-1.56,0.148-0.997,3.825,0,2.232c-2.2-2.2,2.385,0.732,0.559-0.558c0.001-0.56-0.453-0.665-0.559-1.117
		c1.968,0.486,2.946-1.363,1.116-1.673c-0.124,0.433-0.015,1.101-0.557,1.116c0.001-0.56-0.453-0.665-0.559-1.116
		c0.625-1.161,0.603-1.183-0.559-0.559c0.342-3.301,2.478,0.324,3.349-1.116c0.984,0.504,1.729,1.248,2.234,2.232
		c-1.752-0.264-1.475,1.502-2.791,1.674c0.177,1.187,1.728-0.796,2.232-1.116c0.631,0.491-0.133,1.769,1.675,0.558
		c0,0.186,0,0.373,0,0.558c-1.31,0.179-1.25,1.728-2.232,2.234c0.089,0.654,1.018,0.471,1.675,0.557
		c-0.297-0.448-0.583-0.905-0.559-1.674c2.821,0.901-1.41,4.393-2.234,3.349c0.106,0.453,0.56,0.558,0.559,1.117
		c1.024-0.651,1.89-1.459,2.791-2.233c1.544,0.239,0.029,1.755-1.116,1.116c0.507,0.981,1.956,1.022,2.791,1.675
		c-1.506,2.18,2.974,3.668,0,4.465c0.548,0.756,1.49,1.117,2.233,1.675c0,0.186,0,0.373,0,0.559
		c-0.522,0.409-0.846,1.015-1.117,1.675c-0.542-0.016-0.433-0.684-0.558-1.118c-1.696,0.689,0.604,1.92,0,3.35
		c-0.75-0.367-1.04-1.193-1.116-2.231c-1.234,0.069-0.238,2.368-0.559,3.349c-1.218,0.101-1.776-0.457-1.675-1.675
		c-1.254,0.235-0.016,2.962-1.116,3.35c-2.132,0.456-2.163-1.189-2.792-2.233c3.579-0.096,0.17-3.525,2.234-2.234
		c-0.082-1.221-1.407-1.198-2.791-1.116c0.197-0.733,0.983-0.878,1.116-1.675c-0.521,0.597-2.059,0.174-1.674,1.675
		c-0.75-0.367-1.039-1.193-1.116-2.232c-0.475-0.103-0.527,0.216-0.559,0.557c-1.138,0.165-1.095,1.511-2.232,1.675
		c0-0.187,0-0.373,0-0.559c0.86-0.133,2.675-2.075,1.116-2.791c-0.841,0.487,0.153,0.836-0.559,2.234
		c-1.608-2.614,2.132-3.263-1.675-3.35c0-0.186,0-0.373,0-0.559c0.498-0.248,1-0.489,1.117-1.116
		c0.542,0.015,0.434,0.683,0.558,1.116c0.867-0.807,2.176-1.173,3.35-1.675c0.957,2.208,2.039,4.289,2.791,6.699
		c0.544-0.015,0.433-0.683,0.559-1.116c0.453,0.106,0.555,0.56,1.116,0.557c0.356-1.217-1.581-1.775,0.559-1.673
		c-1.711-1.212-1.307-1.301-1.675-3.35c-1.624,0.485-0.629,0.836-0.559,2.232c-1.655-0.949-1.584-3.625-2.791-5.023
		c-0.633,0.106-0.311,0.559,0,0.558c0,0.186,0,0.372,0,0.559c-0.648-0.091-0.993,0.123-1.116,0.557c-0.993-0.409-0.08-1.015,0-1.674
		c-1.679-0.562-0.989,1.244-1.116,2.232c-4.296-0.479,1.551-2.588-0.559-3.907c-1.139,0.35-0.158,2.82-2.233,2.232
		c0.799-0.815,0.821-2.161-1.116-1.675c0-0.186,0-0.372,0-0.557c3.972-1.42,4.563-7.547,1.674-8.933
		c1.781-0.479,1.727,0.88,2.791,1.118c-0.167-1.098,0.754-1.107,1.116-1.675C223.021,225.386,223.206,225.386,223.393,225.386z
		 M225.067,233.758c-1.628-0.139-1.926,1.051-2.791,1.675c1.728-2.553-2.595-3.72,0-5.582c-1.472-0.169-1.44,1.165-1.675,2.232
		c1.996,0.711,1.469,1.821,1.116,3.908c2.081,0.591,1.802-1.174,2.791-1.674c0.276,1.088-1.923,2.854-0.557,1.674
		c0.992-0.496,1.419-1.558,3.35-1.116c0.05-1.523-0.93-1.124,0-2.233c-1.056,0.125-1.232-0.629-2.234-0.559
		C223.96,233.233,223.96,232.609,225.067,233.758z M228.417,238.783c0.133,0.607,0.919,1.34,1.116,0.559
		c-1.132-0.574-2.682-3.601-3.907-2.233C228.241,237.187,226.809,240.088,228.417,238.783z M222.276,241.017
		c-0.435,0.122-0.65,0.466-0.559,1.115c2.641,0.3,1.337-2.975-0.558-2.791C220.993,240.438,221.913,240.449,222.276,241.017z"/>
	<path fill-rule="evenodd" clip-rule="evenodd" fill="#586631" d="M220.043,228.177c-1.366,2.769-0.202,5.348-2.791,6.14
		C217.735,231.42,218.942,228.959,220.043,228.177z"/>
	<path fill-rule="evenodd" clip-rule="evenodd" fill="#3E5523" d="M229.533,230.409c-1.808,1.211-1.043-0.067-1.675-0.558
		c-0.504,0.32-2.055,2.302-2.232,1.116c1.316-0.172,1.039-1.938,2.791-1.674C229.042,229.411,229.286,229.913,229.533,230.409z"/>
	<path fill-rule="evenodd" clip-rule="evenodd" fill="#3E5523" d="M233.441,243.249c-0.744-0.559-1.685-0.919-2.233-1.675
		c2.974-0.796-1.506-2.285,0-4.465c-0.834-0.653-2.284-0.694-2.791-1.675c1.145,0.639,2.66-0.876,1.116-1.116
		c-0.901,0.773-1.767,1.582-2.791,2.233c0.001-0.56-0.453-0.664-0.559-1.117c0.824,1.043,5.055-2.448,2.234-3.349
		c-0.024,0.769,0.262,1.227,0.559,1.674c-0.657-0.086-1.586,0.097-1.675-0.557c0.982-0.506,0.922-2.055,2.232-2.234
		c0.907,0.956,1.69,2.033,1.675,3.909c0.186,0,0.373,0,0.559,0c0.096,0.834-0.2,2.06,0.558,2.232
		C232.355,239.495,233.073,241.196,233.441,243.249z"/>
	<path fill-rule="evenodd" clip-rule="evenodd" fill="#3E5523" d="M217.252,235.433c1.937-0.485,1.915,0.86,1.116,1.675
		c2.076,0.587,1.095-1.883,2.233-2.232c2.109,1.319-3.737,3.428,0.559,3.907c0.127-0.989-0.563-2.795,1.116-2.232
		c-0.08,0.659-0.993,1.265,0,1.674c0.123-0.435,0.468-0.648,1.116-0.557c0,0.186,0,0.373,0,0.557
		c-1.173,0.501-2.482,0.868-3.35,1.675c-0.124-0.433-0.015-1.101-0.558-1.116c-0.118,0.627-0.619,0.869-1.117,1.116
		C217.873,238.534,217.067,237.479,217.252,235.433z"/>
	<path fill-rule="evenodd" clip-rule="evenodd" fill="#3E5523" d="M218.368,240.458c3.807,0.086,0.066,0.736,1.675,3.35
		c0.711-1.398-0.283-1.747,0.559-2.234c1.559,0.716-0.256,2.658-1.116,2.791c-0.964-0.337,0.042-2.647-1.117-2.791
		c0-0.186,0-0.371,0-0.557C218.368,240.83,218.368,240.644,218.368,240.458z"/>
	<path fill-rule="evenodd" clip-rule="evenodd" fill="#3E5523" d="M232.324,245.482c0.271-0.661,0.595-1.267,1.117-1.675
		c0.032,0.341,0.083,0.66,0.558,0.557c0,0.187,0,0.372,0,0.559c0.73,1.317,0.236,3.858,1.118,5.024
		c0.072,1.377,0.083,2.689-0.559,3.35c-0.796,0.134-0.942,0.919-1.675,1.116C234.241,251.53,233,248.017,232.324,245.482z"/>
	<path fill-rule="evenodd" clip-rule="evenodd" fill="#C6D864" d="M221.718,243.249c0.032-0.341,0.083-0.66,0.559-0.557
		c0.077,1.039,0.366,1.865,1.116,2.232c0,0.186,0,0.372,0,0.559c-0.125,1.055,0.63,1.23,0.559,2.231c0.187,0,0.373,0,0.557,0
		c0,0.186,0,0.373,0,0.559c0.63,1.044,0.66,2.689,2.792,2.233c1.101-0.388-0.138-3.115,1.116-3.35
		c-0.102,1.218,0.457,1.775,1.675,1.675c0.32-0.981-0.675-3.279,0.559-3.349c0.076,1.039,0.366,1.865,1.116,2.231
		c0.604-1.43-1.696-2.661,0-3.35c0.125,0.435,0.016,1.102,0.558,1.118c0.677,2.534,1.917,6.048,0.559,8.93
		c-0.032,0.341-0.083,0.661-0.559,0.559c-2.927,1.402-6.407,0.129-7.815-1.675C223.09,250.437,222.634,246.613,221.718,243.249z"/>
	<path fill-rule="evenodd" clip-rule="evenodd" fill="#3E5523" d="M226.183,256.088c-3.797-2.155-5.265-6.643-6.698-11.165
		c1.137-0.164,1.095-1.51,2.232-1.675c0.916,3.365,1.372,7.188,2.791,10.048C225.011,254.282,225.856,254.926,226.183,256.088z"/>
	<path fill-rule="evenodd" clip-rule="evenodd" fill="#586631" d="M224.508,253.297c1.408,1.804,4.888,3.077,7.815,1.675
		c-0.654,1.65-4.459,2.252-6.141,1.116C225.856,254.926,225.011,254.282,224.508,253.297z"/>
	<path fill-rule="evenodd" clip-rule="evenodd" fill="#3E5523" d="M266.712,263.234c0.695,0.543,1.899,0.577,2.321,1.393
		c-0.725,1.198-2.5-1.817-2.785,0.929c0.966-0.52,0.984-0.501,0.464,0.464c0.088,0.375,0.466,0.462,0.464,0.928
		c0.451-0.012,0.36-0.568,0.463-0.928c1.523,0.258,0.709,1.795-0.928,1.392c0.088,0.376,0.466,0.463,0.464,0.929
		c1.519,1.073-2.294-1.366-0.464,0.464c-0.829,1.325-1.297-1.733,0-1.857c-0.164-0.609-0.817-0.73-0.928-1.392
		c-1.303,0.005,1.105,1.266-0.929,0.928c0.205-1.343,0.979-2.116,2.321-2.321C267.089,263.786,266.71,263.7,266.712,263.234z"/>
	<path fill-rule="evenodd" clip-rule="evenodd" fill="#3E5523" d="M266.248,263.234c-0.302,0.472-1.067,0.479-0.929,1.393
		c-0.885-0.198-0.84-1.328-2.321-0.93c2.403,1.153,1.911,6.249-1.393,7.429c-0.451-0.012-0.36-0.569-0.464-0.929
		c0-0.309,0-0.618,0-0.928c0-1.239,0-2.477,0-3.714c-0.002-0.467,0.376-0.554,0.464-0.929
		C262.729,263.833,264.415,261.854,266.248,263.234z M261.605,270.662c2.153-0.659,1.185-2.804,2.321-5.106
		C263.01,266.206,262.007,268.252,261.605,270.662z"/>
	<path fill-rule="evenodd" clip-rule="evenodd" fill="#586631" d="M266.712,263.234c-0.002,0.466,0.376,0.552,0.464,0.928
		c-1.342,0.205-2.117,0.979-2.321,2.321c2.034,0.338-0.374-0.922,0.929-0.928c0.111,0.662,0.765,0.783,0.928,1.392
		c-1.297,0.124-0.829,3.182,0,1.857c-1.83-1.83,1.983,0.609,0.464-0.464c0.001-0.466-0.376-0.553-0.464-0.929
		c1.637,0.404,2.451-1.134,0.928-1.392c-0.103,0.36-0.012,0.916-0.463,0.928c0.001-0.466-0.376-0.553-0.464-0.928
		c0.52-0.966,0.501-0.984-0.464-0.464c0.285-2.746,2.061,0.269,2.785-0.929c0.819,0.419,1.438,1.038,1.858,1.856
		c-1.457-0.219-1.227,1.25-2.321,1.392c0.147,0.987,1.437-0.662,1.856-0.928c0.525,0.408-0.111,1.471,1.393,0.464
		c0,0.155,0,0.31,0,0.464c-1.089,0.149-1.039,1.438-1.856,1.858c0.074,0.544,0.847,0.392,1.393,0.463
		c-0.247-0.373-0.485-0.753-0.465-1.393c2.346,0.749-1.172,3.653-1.858,2.785c0.089,0.377,0.466,0.464,0.465,0.93
		c0.851-0.542,1.571-1.214,2.32-1.857c1.285,0.199,0.024,1.459-0.928,0.928c0.422,0.816,1.627,0.851,2.321,1.394
		c-1.253,1.813,2.474,3.051,0,3.714c0.456,0.628,1.239,0.928,1.857,1.393c0,0.154,0,0.31,0,0.464
		c-0.435,0.34-0.704,0.844-0.929,1.394c-0.451-0.014-0.36-0.569-0.464-0.93c-1.41,0.573,0.503,1.597,0,2.786
		c-0.623-0.305-0.865-0.992-0.928-1.855c-1.026,0.057-0.198,1.969-0.465,2.785c-1.013,0.084-1.478-0.38-1.393-1.393
		c-1.042,0.196-0.013,2.464-0.928,2.787c-1.773,0.379-1.798-0.989-2.323-1.858c2.977-0.08,0.142-2.932,1.858-1.858
		c-0.069-1.015-1.17-0.996-2.322-0.928c0.164-0.61,0.818-0.73,0.928-1.393c-0.433,0.497-1.712,0.145-1.393,1.393
		c-0.624-0.305-0.864-0.993-0.928-1.856c-0.395-0.085-0.438,0.18-0.465,0.463c-0.946,0.137-0.911,1.257-1.856,1.393
		c0-0.155,0-0.31,0-0.465c0.715-0.11,2.225-1.726,0.928-2.321c-0.7,0.405,0.127,0.695-0.465,1.857
		c-1.337-2.174,1.773-2.714-1.393-2.786c0-0.154,0-0.309,0-0.464c0.414-0.206,0.831-0.407,0.929-0.928
		c0.451,0.013,0.36,0.568,0.463,0.928c0.721-0.671,1.81-0.976,2.786-1.393c0.796,1.836,1.696,3.567,2.321,5.572
		c0.453-0.013,0.36-0.568,0.465-0.929c0.376,0.088,0.461,0.466,0.928,0.464c0.296-1.013-1.314-1.477,0.465-1.392
		c-1.423-1.008-1.087-1.082-1.393-2.787c-1.351,0.404-0.523,0.695-0.465,1.857c-1.376-0.79-1.317-3.015-2.321-4.178
		c-0.526,0.088-0.258,0.465,0,0.464c0,0.155,0,0.31,0,0.465c-0.539-0.076-0.826,0.102-0.928,0.463c-0.826-0.34-0.067-0.844,0-1.392
		c-1.397-0.468-0.823,1.034-0.929,1.856c-3.573-0.398,1.29-2.152-0.464-3.25c-0.947,0.291-0.131,2.346-1.857,1.857
		c0.665-0.678,0.682-1.797-0.928-1.394c0-0.155,0-0.31,0-0.463c3.304-1.181,3.795-6.276,1.393-7.429
		c1.481-0.398,1.436,0.732,2.321,0.93c-0.139-0.914,0.627-0.921,0.929-1.393C266.403,263.234,266.557,263.234,266.712,263.234z
		 M268.105,270.197c-1.354-0.116-1.602,0.874-2.321,1.393c1.437-2.123-2.158-3.094,0-4.642c-1.225-0.141-1.198,0.969-1.393,1.857
		c1.66,0.591,1.222,1.515,0.928,3.25c1.73,0.492,1.499-0.977,2.321-1.393c0.23,0.905-1.599,2.374-0.463,1.393
		c0.825-0.413,1.18-1.295,2.786-0.928c0.042-1.267-0.773-0.934,0-1.857c-0.878,0.104-1.025-0.523-1.858-0.465
		C267.185,269.76,267.185,269.241,268.105,270.197z M270.891,274.376c0.111,0.505,0.764,1.114,0.928,0.464
		c-0.941-0.477-2.23-2.995-3.249-1.857C270.745,273.049,269.554,275.461,270.891,274.376z M265.784,276.234
		c-0.362,0.102-0.541,0.388-0.465,0.928c2.196,0.25,1.112-2.475-0.464-2.321C264.716,275.752,265.481,275.762,265.784,276.234z"/>
	<path fill-rule="evenodd" clip-rule="evenodd" fill="#586631" d="M263.926,265.556c-1.136,2.303-0.167,4.448-2.321,5.106
		C262.007,268.252,263.01,266.206,263.926,265.556z"/>
	<path fill-rule="evenodd" clip-rule="evenodd" fill="#3E5523" d="M271.819,267.412c-1.503,1.007-0.868-0.056-1.393-0.464
		c-0.419,0.266-1.709,1.915-1.856,0.928c1.095-0.143,0.864-1.611,2.321-1.392C271.412,266.582,271.614,266.999,271.819,267.412z"/>
	<path fill-rule="evenodd" clip-rule="evenodd" fill="#3E5523" d="M275.07,278.09c-0.619-0.465-1.401-0.765-1.857-1.393
		c2.474-0.663-1.253-1.9,0-3.714c-0.694-0.543-1.899-0.577-2.321-1.394c0.952,0.532,2.213-0.729,0.928-0.928
		c-0.749,0.643-1.469,1.316-2.32,1.857c0.001-0.465-0.376-0.553-0.465-0.93c0.686,0.868,4.204-2.036,1.858-2.785
		c-0.02,0.64,0.218,1.02,0.465,1.393c-0.546-0.072-1.319,0.081-1.393-0.463c0.817-0.421,0.767-1.709,1.856-1.858
		c0.755,0.795,1.406,1.691,1.394,3.251c0.155,0,0.31,0,0.464,0c0.08,0.694-0.166,1.713,0.464,1.857
		C274.167,274.968,274.764,276.384,275.07,278.09z"/>
	<path fill-rule="evenodd" clip-rule="evenodd" fill="#3E5523" d="M261.605,271.59c1.61-0.403,1.593,0.716,0.928,1.394
		c1.727,0.489,0.911-1.566,1.857-1.857c1.754,1.097-3.108,2.852,0.464,3.25c0.106-0.822-0.468-2.325,0.929-1.856
		c-0.067,0.548-0.826,1.052,0,1.392c0.102-0.362,0.389-0.54,0.928-0.463c0,0.154,0,0.31,0,0.463
		c-0.976,0.417-2.065,0.722-2.786,1.393c-0.103-0.36-0.012-0.916-0.463-0.928c-0.098,0.521-0.515,0.723-0.929,0.928
		C262.122,274.169,261.452,273.292,261.605,271.59z"/>
	<path fill-rule="evenodd" clip-rule="evenodd" fill="#3E5523" d="M262.534,275.769c3.166,0.072,0.055,0.612,1.393,2.786
		c0.592-1.162-0.235-1.453,0.465-1.857c1.296,0.596-0.213,2.211-0.928,2.321c-0.803-0.281,0.035-2.202-0.929-2.321
		c0-0.154,0-0.308,0-0.463C262.534,276.079,262.534,275.924,262.534,275.769z"/>
	<path fill-rule="evenodd" clip-rule="evenodd" fill="#3E5523" d="M274.141,279.949c0.226-0.55,0.495-1.054,0.929-1.394
		c0.026,0.284,0.069,0.549,0.464,0.464c0,0.155,0,0.31,0,0.465c0.607,1.095,0.196,3.209,0.93,4.179
		c0.06,1.145,0.069,2.236-0.465,2.786c-0.663,0.111-0.784,0.765-1.394,0.928C275.735,284.979,274.704,282.056,274.141,279.949z"/>
	<path fill-rule="evenodd" clip-rule="evenodd" fill="#C6D864" d="M265.319,278.09c0.026-0.284,0.07-0.549,0.465-0.463
		c0.064,0.864,0.305,1.551,0.928,1.856c0,0.155,0,0.31,0,0.465c-0.104,0.877,0.524,1.023,0.464,1.855c0.155,0,0.31,0,0.463,0
		c0,0.155,0,0.31,0,0.465c0.524,0.869,0.549,2.237,2.323,1.858c0.916-0.323-0.114-2.591,0.928-2.787
		c-0.084,1.013,0.38,1.477,1.393,1.393c0.267-0.815-0.562-2.728,0.465-2.785c0.063,0.864,0.305,1.55,0.928,1.855
		c0.503-1.189-1.41-2.213,0-2.786c0.104,0.361,0.013,0.917,0.464,0.93c0.563,2.107,1.594,5.03,0.464,7.427
		c-0.026,0.283-0.069,0.549-0.464,0.465c-2.435,1.167-5.329,0.107-6.5-1.393C266.46,284.068,266.081,280.889,265.319,278.09z"/>
	<path fill-rule="evenodd" clip-rule="evenodd" fill="#3E5523" d="M269.033,288.769c-3.158-1.792-4.379-5.525-5.57-9.286
		c0.946-0.136,0.91-1.256,1.856-1.393c0.762,2.798,1.141,5.978,2.321,8.357C268.059,287.268,268.762,287.803,269.033,288.769z"/>
	<path fill-rule="evenodd" clip-rule="evenodd" fill="#586631" d="M267.64,286.448c1.171,1.5,4.066,2.56,6.5,1.393
		c-0.544,1.373-3.709,1.873-5.107,0.928C268.762,287.803,268.059,287.268,267.64,286.448z"/>
	<path fill-rule="evenodd" clip-rule="evenodd" fill="#3E5523" d="M222.545,299.883c0.836,0.652,2.284,0.693,2.791,1.675
		c-0.872,1.44-3.007-2.185-3.349,1.116c1.161-0.625,1.184-0.603,0.559,0.559c0.106,0.451,0.56,0.556,0.559,1.115
		c0.542-0.014,0.433-0.683,0.557-1.115c1.831,0.311,0.853,2.159-1.116,1.674c0.106,0.452,0.56,0.557,0.559,1.117
		c1.826,1.289-2.759-1.643-0.559,0.557c-0.997,1.594-1.56-2.084,0-2.232c-0.197-0.732-0.983-0.877-1.116-1.674
		c-1.566,0.008,1.329,1.523-1.116,1.115c0.246-1.613,1.177-2.543,2.791-2.79C222.998,300.546,222.543,300.443,222.545,299.883z"/>
	<path fill-rule="evenodd" clip-rule="evenodd" fill="#3E5523" d="M221.987,299.883c-0.362,0.567-1.283,0.576-1.116,1.675
		c-1.064-0.237-1.01-1.596-2.791-1.118c2.889,1.387,2.297,7.514-1.674,8.934c-0.542-0.016-0.434-0.686-0.558-1.118
		c0-0.371,0-0.743,0-1.116c0-1.488,0-2.977,0-4.465c-0.003-0.561,0.452-0.665,0.558-1.116
		C217.756,300.603,219.784,298.223,221.987,299.883z M216.405,308.814c2.589-0.793,1.425-3.371,2.791-6.141
		C218.095,303.456,216.888,305.917,216.405,308.814z"/>
	<path fill-rule="evenodd" clip-rule="evenodd" fill="#586631" d="M222.545,299.883c-0.002,0.561,0.453,0.663,0.559,1.116
		c-1.614,0.247-2.545,1.177-2.791,2.79c2.445,0.408-0.45-1.107,1.116-1.115c0.133,0.797,0.919,0.941,1.116,1.674
		c-1.56,0.148-0.997,3.826,0,2.232c-2.2-2.199,2.385,0.732,0.559-0.557c0.001-0.561-0.453-0.665-0.559-1.117
		c1.968,0.485,2.946-1.363,1.116-1.674c-0.124,0.433-0.015,1.102-0.557,1.115c0.001-0.56-0.453-0.664-0.559-1.115
		c0.625-1.161,0.603-1.184-0.559-0.559c0.342-3.301,2.478,0.324,3.349-1.116c0.984,0.505,1.729,1.247,2.234,2.231
		c-1.752-0.264-1.475,1.503-2.791,1.675c0.177,1.187,1.728-0.796,2.232-1.116c0.631,0.491-0.133,1.77,1.675,0.559
		c0,0.186,0,0.372,0,0.558c-1.31,0.179-1.25,1.728-2.232,2.233c0.089,0.654,1.018,0.472,1.675,0.558
		c-0.297-0.448-0.583-0.905-0.559-1.675c2.821,0.901-1.41,4.393-2.234,3.35c0.106,0.453,0.56,0.558,0.559,1.117
		c1.024-0.65,1.89-1.459,2.791-2.232c1.544,0.238,0.029,1.754-1.116,1.115c0.507,0.981,1.956,1.022,2.791,1.676
		c-1.506,2.18,2.974,3.668,0,4.465c0.548,0.756,1.49,1.116,2.233,1.675c0,0.186,0,0.372,0,0.559
		c-0.522,0.409-0.846,1.015-1.117,1.675c-0.542-0.016-0.433-0.684-0.558-1.117c-1.696,0.688,0.604,1.92,0,3.35
		c-0.75-0.367-1.04-1.193-1.116-2.232c-1.234,0.07-0.238,2.368-0.559,3.35c-1.218,0.1-1.776-0.457-1.675-1.676
		c-1.254,0.236-0.016,2.963-1.116,3.351c-2.132,0.456-2.163-1.188-2.792-2.233c3.579-0.096,0.17-3.525,2.234-2.234
		c-0.082-1.221-1.407-1.197-2.791-1.115c0.197-0.733,0.983-0.879,1.116-1.675c-0.521,0.597-2.059,0.174-1.674,1.675
		c-0.75-0.367-1.039-1.193-1.116-2.232c-0.475-0.103-0.527,0.217-0.559,0.558c-1.138,0.165-1.095,1.511-2.232,1.675
		c0-0.188,0-0.373,0-0.559c0.86-0.133,2.675-2.075,1.116-2.791c-0.841,0.486,0.153,0.836-0.559,2.233
		c-1.608-2.614,2.132-3.263-1.675-3.35c0-0.187,0-0.372,0-0.559c0.498-0.247,1-0.489,1.117-1.116
		c0.542,0.016,0.434,0.684,0.558,1.116c0.867-0.808,2.176-1.173,3.35-1.675c0.957,2.208,2.039,4.289,2.791,6.699
		c0.544-0.016,0.433-0.684,0.559-1.116c0.453,0.106,0.555,0.56,1.116,0.558c0.356-1.218-1.581-1.775,0.559-1.674
		c-1.711-1.211-1.307-1.301-1.675-3.35c-1.624,0.484-0.629,0.836-0.559,2.232c-1.655-0.949-1.584-3.625-2.791-5.023
		c-0.633,0.106-0.311,0.559,0,0.559c0,0.186,0,0.371,0,0.559c-0.648-0.092-0.993,0.122-1.116,0.557c-0.993-0.408-0.08-1.015,0-1.674
		c-1.679-0.562-0.989,1.244-1.116,2.232c-4.296-0.479,1.551-2.588-0.559-3.906c-1.139,0.35-0.158,2.819-2.233,2.232
		c0.799-0.815,0.821-2.161-1.116-1.676c0-0.186,0-0.372,0-0.557c3.972-1.42,4.563-7.547,1.674-8.934
		c1.781-0.478,1.727,0.881,2.791,1.118c-0.167-1.099,0.754-1.107,1.116-1.675C222.173,299.883,222.359,299.883,222.545,299.883z
		 M224.22,308.255c-1.628-0.14-1.926,1.052-2.791,1.675c1.728-2.553-2.595-3.721,0-5.582c-1.472-0.169-1.44,1.165-1.675,2.232
		c1.996,0.712,1.469,1.822,1.116,3.908c2.081,0.592,1.802-1.174,2.791-1.674c0.276,1.088-1.923,2.854-0.557,1.674
		c0.992-0.496,1.419-1.558,3.35-1.115c0.05-1.523-0.93-1.124,0-2.234c-1.056,0.126-1.232-0.629-2.234-0.559
		C223.113,307.729,223.113,307.105,224.22,308.255z M227.57,313.279c0.133,0.607,0.919,1.34,1.116,0.559
		c-1.132-0.574-2.682-3.602-3.907-2.232C227.394,311.684,225.961,314.584,227.57,313.279z M221.429,315.514
		c-0.435,0.121-0.65,0.466-0.559,1.115c2.641,0.299,1.337-2.976-0.558-2.791C220.146,314.934,221.065,314.945,221.429,315.514z"/>
	<path fill-rule="evenodd" clip-rule="evenodd" fill="#586631" d="M219.196,302.674c-1.366,2.77-0.202,5.348-2.791,6.141
		C216.888,305.917,218.095,303.456,219.196,302.674z"/>
	<path fill-rule="evenodd" clip-rule="evenodd" fill="#3E5523" d="M228.686,304.906c-1.808,1.211-1.043-0.067-1.675-0.559
		c-0.504,0.32-2.055,2.303-2.232,1.116c1.316-0.172,1.039-1.938,2.791-1.675C228.195,303.908,228.438,304.409,228.686,304.906z"/>
	<path fill-rule="evenodd" clip-rule="evenodd" fill="#3E5523" d="M232.594,317.745c-0.744-0.559-1.685-0.919-2.233-1.675
		c2.974-0.797-1.506-2.285,0-4.465c-0.834-0.653-2.284-0.694-2.791-1.676c1.145,0.639,2.66-0.877,1.116-1.115
		c-0.901,0.773-1.767,1.582-2.791,2.232c0.001-0.56-0.453-0.664-0.559-1.117c0.824,1.043,5.055-2.448,2.234-3.35
		c-0.024,0.77,0.262,1.227,0.559,1.675c-0.657-0.086-1.586,0.097-1.675-0.558c0.982-0.506,0.922-2.055,2.232-2.233
		c0.907,0.956,1.69,2.032,1.675,3.909c0.186,0,0.373,0,0.559,0c0.096,0.834-0.2,2.059,0.558,2.232
		C231.508,313.991,232.226,315.693,232.594,317.745z"/>
	<path fill-rule="evenodd" clip-rule="evenodd" fill="#3E5523" d="M216.405,309.93c1.937-0.485,1.915,0.86,1.116,1.676
		c2.076,0.587,1.095-1.883,2.233-2.232c2.109,1.318-3.737,3.428,0.559,3.906c0.127-0.988-0.563-2.795,1.116-2.232
		c-0.08,0.659-0.993,1.266,0,1.674c0.123-0.435,0.468-0.648,1.116-0.557c0,0.186,0,0.372,0,0.557
		c-1.173,0.502-2.482,0.867-3.35,1.675c-0.124-0.433-0.015-1.101-0.558-1.116c-0.118,0.627-0.619,0.869-1.117,1.116
		C217.026,313.031,216.22,311.976,216.405,309.93z"/>
	<path fill-rule="evenodd" clip-rule="evenodd" fill="#3E5523" d="M217.521,314.954c3.807,0.087,0.066,0.735,1.675,3.35
		c0.711-1.397-0.283-1.747,0.559-2.233c1.559,0.716-0.256,2.658-1.116,2.791c-0.964-0.338,0.042-2.647-1.117-2.791
		c0-0.186,0-0.371,0-0.557C217.521,315.326,217.521,315.141,217.521,314.954z"/>
	<path fill-rule="evenodd" clip-rule="evenodd" fill="#3E5523" d="M231.477,319.979c0.271-0.66,0.595-1.266,1.117-1.675
		c0.032,0.341,0.083,0.66,0.558,0.558c0,0.186,0,0.371,0,0.559c0.73,1.316,0.236,3.857,1.118,5.023
		c0.072,1.377,0.083,2.689-0.559,3.35c-0.796,0.135-0.942,0.92-1.675,1.116C233.394,326.027,232.153,322.514,231.477,319.979z"/>
	<path fill-rule="evenodd" clip-rule="evenodd" fill="#C6D864" d="M220.871,317.745c0.032-0.341,0.083-0.66,0.559-0.558
		c0.077,1.039,0.366,1.865,1.116,2.232c0,0.186,0,0.372,0,0.559c-0.125,1.055,0.63,1.23,0.559,2.232c0.187,0,0.373,0,0.557,0
		c0,0.186,0,0.373,0,0.559c0.63,1.045,0.66,2.689,2.792,2.233c1.101-0.388-0.138-3.114,1.116-3.351
		c-0.102,1.219,0.457,1.775,1.675,1.676c0.32-0.981-0.675-3.279,0.559-3.35c0.076,1.039,0.366,1.865,1.116,2.232
		c0.604-1.43-1.696-2.661,0-3.35c0.125,0.434,0.016,1.102,0.558,1.117c0.677,2.535,1.917,6.049,0.559,8.931
		c-0.032,0.341-0.083,0.661-0.559,0.56c-2.927,1.402-6.407,0.129-7.815-1.676C222.243,324.934,221.787,321.109,220.871,317.745z"/>
	<path fill-rule="evenodd" clip-rule="evenodd" fill="#3E5523" d="M225.336,330.584c-3.797-2.154-5.265-6.643-6.698-11.164
		c1.137-0.164,1.095-1.51,2.232-1.675c0.916,3.364,1.372,7.188,2.791,10.048C224.164,328.779,225.009,329.423,225.336,330.584z"/>
	<path fill-rule="evenodd" clip-rule="evenodd" fill="#586631" d="M223.661,327.793c1.408,1.805,4.888,3.078,7.815,1.676
		c-0.654,1.65-4.459,2.252-6.141,1.115C225.009,329.423,224.164,328.779,223.661,327.793z"/>
	<path fill-rule="evenodd" clip-rule="evenodd" fill="#3E5523" d="M251.301,329.98c0.438,0.343,1.197,0.364,1.462,0.878
		c-0.457,0.754-1.576-1.146-1.755,0.585c0.608-0.327,0.621-0.316,0.292,0.292c0.056,0.236,0.294,0.291,0.293,0.585
		c0.284-0.008,0.227-0.358,0.292-0.585c0.959,0.163,0.446,1.132-0.585,0.877c0.056,0.236,0.294,0.292,0.293,0.585
		c0.957,0.676-1.446-0.86-0.293,0.292c-0.522,0.835-0.817-1.092,0-1.169c-0.103-0.384-0.515-0.46-0.584-0.877
		c-0.821,0.004,0.696,0.797-0.585,0.584c0.129-0.846,0.616-1.333,1.462-1.462C251.538,330.327,251.3,330.274,251.301,329.98z"/>
	<path fill-rule="evenodd" clip-rule="evenodd" fill="#3E5523" d="M251.008,329.98c-0.19,0.297-0.672,0.303-0.584,0.878
		c-0.558-0.124-0.53-0.837-1.462-0.586c1.514,0.727,1.204,3.937-0.878,4.681c-0.284-0.009-0.227-0.358-0.292-0.585
		c0-0.195,0-0.39,0-0.586c0-0.779,0-1.561,0-2.339c-0.001-0.294,0.237-0.349,0.292-0.585
		C248.792,330.358,249.854,329.111,251.008,329.98z M248.083,334.66c1.357-0.415,0.747-1.767,1.462-3.217
		C248.969,331.853,248.337,333.143,248.083,334.66z"/>
	<path fill-rule="evenodd" clip-rule="evenodd" fill="#586631" d="M251.301,329.98c0,0.294,0.237,0.347,0.293,0.585
		c-0.846,0.129-1.333,0.616-1.462,1.462c1.281,0.213-0.236-0.58,0.585-0.584c0.07,0.417,0.481,0.493,0.584,0.877
		c-0.817,0.077-0.522,2.004,0,1.169c-1.153-1.152,1.25,0.384,0.293-0.292c0.001-0.293-0.237-0.349-0.293-0.585
		c1.031,0.255,1.544-0.714,0.585-0.877c-0.065,0.227-0.008,0.577-0.292,0.585c0.001-0.294-0.237-0.349-0.293-0.585
		c0.328-0.608,0.316-0.619-0.292-0.292c0.179-1.73,1.298,0.169,1.755-0.585c0.516,0.264,0.906,0.653,1.17,1.169
		c-0.918-0.139-0.773,0.787-1.462,0.877c0.093,0.622,0.905-0.417,1.169-0.584c0.331,0.257-0.07,0.927,0.877,0.292
		c0,0.098,0,0.195,0,0.292c-0.687,0.094-0.655,0.905-1.169,1.171c0.047,0.343,0.533,0.247,0.877,0.293
		c-0.155-0.235-0.305-0.476-0.292-0.879c1.478,0.473-0.739,2.302-1.17,1.755c0.056,0.237,0.293,0.292,0.293,0.586
		c0.536-0.341,0.99-0.765,1.462-1.17c0.809,0.125,0.015,0.92-0.584,0.584c0.266,0.515,1.025,0.536,1.462,0.878
		c-0.789,1.143,1.559,1.922,0,2.34c0.288,0.396,0.781,0.585,1.17,0.878c0,0.097,0,0.195,0,0.293
		c-0.274,0.214-0.443,0.531-0.585,0.877c-0.284-0.008-0.227-0.358-0.292-0.586c-0.888,0.361,0.317,1.007,0,1.756
		c-0.393-0.192-0.544-0.626-0.584-1.17c-0.647,0.037-0.125,1.241-0.293,1.755c-0.638,0.053-0.931-0.24-0.877-0.877
		c-0.657,0.123-0.008,1.552-0.585,1.755c-1.117,0.238-1.133-0.623-1.463-1.17c1.875-0.051,0.089-1.848,1.17-1.171
		c-0.043-0.64-0.737-0.627-1.462-0.585c0.103-0.384,0.515-0.46,0.584-0.877c-0.272,0.312-1.079,0.091-0.877,0.877
		c-0.393-0.191-0.544-0.625-0.584-1.169c-0.249-0.055-0.276,0.113-0.292,0.292c-0.596,0.086-0.574,0.792-1.17,0.877
		c0-0.097,0-0.194,0-0.293c0.451-0.069,1.401-1.087,0.584-1.462c-0.44,0.255,0.081,0.438-0.292,1.171
		c-0.842-1.37,1.117-1.711-0.877-1.755c0-0.099,0-0.196,0-0.293c0.261-0.13,0.524-0.257,0.585-0.585
		c0.284,0.008,0.227,0.357,0.292,0.585c0.455-0.424,1.14-0.615,1.755-0.879c0.501,1.157,1.069,2.248,1.462,3.511
		c0.285-0.008,0.227-0.357,0.293-0.584c0.237,0.055,0.291,0.293,0.584,0.291c0.187-0.638-0.828-0.93,0.293-0.876
		c-0.896-0.636-0.685-0.682-0.877-1.756c-0.851,0.255-0.33,0.438-0.293,1.17c-0.867-0.497-0.83-1.899-1.462-2.632
		c-0.331,0.057-0.163,0.293,0,0.292c0,0.098,0,0.195,0,0.293c-0.339-0.048-0.521,0.064-0.584,0.291c-0.521-0.213-0.042-0.53,0-0.876
		c-0.88-0.295-0.518,0.651-0.585,1.17c-2.251-0.251,0.812-1.356-0.293-2.047c-0.596,0.183-0.083,1.478-1.17,1.169
		c0.419-0.427,0.43-1.132-0.585-0.878c0-0.098,0-0.194,0-0.291c2.082-0.744,2.392-3.954,0.878-4.681
		c0.933-0.251,0.904,0.462,1.462,0.586c-0.088-0.575,0.395-0.581,0.584-0.878C251.106,329.98,251.203,329.98,251.301,329.98z
		 M252.178,334.368c-0.853-0.073-1.009,0.55-1.462,0.876c0.905-1.338-1.36-1.949,0-2.924c-0.771-0.089-0.754,0.61-0.878,1.169
		c1.046,0.373,0.77,0.954,0.585,2.049c1.09,0.309,0.944-0.616,1.462-0.878c0.145,0.57-1.007,1.495-0.292,0.878
		c0.52-0.261,0.744-0.817,1.755-0.585c0.026-0.799-0.487-0.589,0-1.171c-0.553,0.066-0.646-0.329-1.17-0.293
		C251.598,334.093,251.598,333.765,252.178,334.368z M253.934,337c0.069,0.318,0.481,0.702,0.584,0.292
		c-0.593-0.301-1.405-1.887-2.047-1.17C253.841,336.163,253.091,337.684,253.934,337z M250.716,338.17
		c-0.228,0.064-0.341,0.245-0.292,0.585c1.383,0.156,0.701-1.56-0.292-1.463C250.043,337.867,250.525,337.872,250.716,338.17z"/>
	<path fill-rule="evenodd" clip-rule="evenodd" fill="#586631" d="M249.546,331.443c-0.715,1.45-0.105,2.802-1.462,3.217
		C248.337,333.143,248.969,331.853,249.546,331.443z"/>
	<path fill-rule="evenodd" clip-rule="evenodd" fill="#3E5523" d="M254.518,332.612c-0.947,0.635-0.547-0.035-0.877-0.292
		c-0.264,0.167-1.077,1.206-1.169,0.584c0.689-0.09,0.544-1.016,1.462-0.877C254.261,332.09,254.389,332.353,254.518,332.612z"/>
	<path fill-rule="evenodd" clip-rule="evenodd" fill="#3E5523" d="M256.566,339.34c-0.39-0.293-0.883-0.481-1.17-0.878
		c1.559-0.418-0.789-1.197,0-2.34c-0.437-0.342-1.196-0.363-1.462-0.878c0.6,0.336,1.394-0.459,0.584-0.584
		c-0.472,0.405-0.926,0.829-1.462,1.17c0-0.294-0.237-0.349-0.293-0.586c0.432,0.547,2.648-1.282,1.17-1.755
		c-0.013,0.403,0.137,0.644,0.292,0.879c-0.344-0.046-0.831,0.05-0.877-0.293c0.515-0.266,0.483-1.077,1.169-1.171
		c0.476,0.502,0.886,1.065,0.877,2.049c0.098,0,0.195,0,0.292,0c0.05,0.438-0.104,1.079,0.292,1.169
		C255.997,337.373,256.373,338.265,256.566,339.34z"/>
	<path fill-rule="evenodd" clip-rule="evenodd" fill="#3E5523" d="M248.083,335.244c1.015-0.254,1.004,0.451,0.585,0.878
		c1.087,0.309,0.574-0.986,1.17-1.169c1.105,0.69-1.958,1.796,0.293,2.047c0.067-0.519-0.295-1.465,0.585-1.17
		c-0.042,0.346-0.521,0.663,0,0.876c0.064-0.227,0.245-0.339,0.584-0.291c0,0.098,0,0.195,0,0.291
		c-0.615,0.264-1.3,0.455-1.755,0.879c-0.065-0.228-0.008-0.577-0.292-0.585c-0.062,0.328-0.325,0.455-0.585,0.585
		C248.409,336.869,247.987,336.317,248.083,335.244z"/>
	<path fill-rule="evenodd" clip-rule="evenodd" fill="#3E5523" d="M248.668,337.878c1.995,0.044,0.035,0.385,0.877,1.755
		c0.373-0.732-0.148-0.916,0.292-1.171c0.817,0.375-0.134,1.393-0.584,1.462c-0.505-0.177,0.022-1.387-0.585-1.462
		c0-0.097,0-0.194,0-0.292C248.668,338.073,248.668,337.975,248.668,337.878z"/>
	<path fill-rule="evenodd" clip-rule="evenodd" fill="#3E5523" d="M255.98,340.51c0.142-0.346,0.312-0.663,0.585-0.877
		c0.017,0.178,0.044,0.346,0.292,0.291c0,0.099,0,0.196,0,0.293c0.382,0.69,0.124,2.021,0.585,2.633
		c0.038,0.722,0.044,1.409-0.293,1.755c-0.417,0.07-0.493,0.481-0.877,0.585C256.985,343.679,256.335,341.838,255.98,340.51z"/>
	<path fill-rule="evenodd" clip-rule="evenodd" fill="#C6D864" d="M250.424,339.34c0.016-0.179,0.043-0.347,0.292-0.292
		c0.04,0.544,0.191,0.978,0.584,1.169c0,0.098,0,0.195,0,0.293c-0.065,0.554,0.33,0.645,0.293,1.17c0.098,0,0.195,0,0.292,0
		c0,0.097,0,0.195,0,0.293c0.33,0.547,0.346,1.408,1.463,1.17c0.577-0.203-0.072-1.632,0.585-1.755
		c-0.053,0.637,0.239,0.93,0.877,0.877c0.168-0.514-0.354-1.718,0.293-1.755c0.04,0.544,0.191,0.978,0.584,1.17
		c0.317-0.749-0.888-1.395,0-1.756c0.065,0.228,0.009,0.578,0.292,0.586c0.354,1.328,1.004,3.169,0.293,4.68
		c-0.017,0.179-0.044,0.346-0.293,0.293c-1.534,0.734-3.357,0.067-4.095-0.878C251.142,343.105,250.903,341.103,250.424,339.34z"/>
	<path fill-rule="evenodd" clip-rule="evenodd" fill="#3E5523" d="M252.763,346.066c-1.99-1.129-2.759-3.48-3.509-5.85
		c0.596-0.085,0.574-0.791,1.17-0.877c0.479,1.763,0.718,3.766,1.462,5.265C252.149,345.12,252.592,345.458,252.763,346.066z"/>
	<path fill-rule="evenodd" clip-rule="evenodd" fill="#586631" d="M251.886,344.604c0.738,0.945,2.561,1.612,4.095,0.878
		c-0.343,0.864-2.336,1.18-3.217,0.584C252.592,345.458,252.149,345.12,251.886,344.604z"/>
	<path fill-rule="evenodd" clip-rule="evenodd" fill="#7A8539" d="M316.706,272.464c-0.639-4.268-6.091-3.728-9.531-5.199
		c-1.521,0.79-1.584,3.037-2.599,4.333c-1.877,0.146-0.391-3.074-0.865-4.333c0-0.287,0-0.579,0-0.865
		c1.137-0.305,1.363-1.525,2.599-1.731c0.16-0.738-0.338-0.818-0.867-0.867c0.148-3.325-4.479-1.873-4.331-5.198
		c6.001-1.093,4.394,5.423,10.396,4.33c1.763,0.259,2.309,1.737,3.464,2.602c-0.244,2.265,0.318,3.723,2.599,3.464
		c0,1.155,0,2.307,0,3.464C317.281,272.464,316.992,272.464,316.706,272.464z"/>
	<path fill-rule="evenodd" clip-rule="evenodd" fill="#3E3556" d="M304.575,271.599c1.015-1.297,1.078-3.544,2.599-4.333
		c3.44,1.471,8.892,0.931,9.531,5.199c2.333,5.176,7.365,7.649,10.394,12.132c0.073,1.373-0.416,3.3,0.867,3.459
		c0,0.583,0,1.157,0,1.739c-1.436,2.604-2.487,5.593-5.198,6.928c-2.442,0.902-8.105,1.654-10.396,0c-0.289,0-0.578,0-0.865,0
		c-0.486-1.251-1.35-2.115-2.599-2.604c0.142-1.006-0.192-1.542-0.867-1.729c0.141-1.006-0.191-1.542-0.867-1.729
		c-0.433-4.766,0.956-11.355-0.865-14.73C305.938,274.275,304.443,273.749,304.575,271.599z M319.302,295.857
		c8.73,1.269,8.617-12.135,2.599-13.865C324.113,287.002,322.35,293.441,319.302,295.857z"/>
	<path fill-rule="evenodd" clip-rule="evenodd" fill="#9A8D92" d="M321.901,281.992c6.018,1.729,6.131,15.134-2.599,13.865
		C322.35,293.441,324.113,287.002,321.901,281.992z"/>
	<path fill-rule="evenodd" clip-rule="evenodd" fill="#7A8539" d="M355.706,314.69c-0.639-4.268-6.091-3.728-9.531-5.198
		c-1.521,0.789-1.584,3.036-2.599,4.333c-1.877,0.146-0.391-3.074-0.865-4.333c0-0.287,0-0.579,0-0.865
		c1.137-0.305,1.363-1.525,2.599-1.732c0.16-0.737-0.338-0.817-0.867-0.867c0.148-3.324-4.479-1.873-4.331-5.197
		c6.001-1.093,4.394,5.423,10.396,4.33c1.763,0.26,2.309,1.737,3.464,2.602c-0.244,2.266,0.318,3.723,2.599,3.465
		c0,1.155,0,2.307,0,3.464C356.281,314.69,355.992,314.69,355.706,314.69z"/>
	<path fill-rule="evenodd" clip-rule="evenodd" fill="#3E3556" d="M343.575,313.825c1.015-1.297,1.078-3.544,2.599-4.333
		c3.44,1.471,8.892,0.931,9.531,5.198c2.333,5.177,7.365,7.649,10.394,12.132c0.073,1.373-0.416,3.3,0.867,3.459
		c0,0.583,0,1.156,0,1.739c-1.436,2.604-2.487,5.593-5.198,6.929c-2.442,0.901-8.105,1.653-10.396,0c-0.289,0-0.578,0-0.865,0
		c-0.486-1.252-1.35-2.115-2.599-2.605c0.142-1.006-0.192-1.541-0.867-1.729c0.141-1.006-0.191-1.541-0.867-1.729
		c-0.433-4.766,0.956-11.354-0.865-14.729C344.938,316.502,343.443,315.976,343.575,313.825z M358.302,338.084
		c8.73,1.269,8.617-12.136,2.599-13.865C363.113,329.229,361.35,335.668,358.302,338.084z"/>
	<path fill-rule="evenodd" clip-rule="evenodd" fill="#9A8D92" d="M360.901,324.219c6.018,1.729,6.131,15.134-2.599,13.865
		C361.35,335.668,363.113,329.229,360.901,324.219z"/>
	<path fill-rule="evenodd" clip-rule="evenodd" fill="#7A8539" d="M315.89,236.542c-0.536-3.579-5.108-3.126-7.994-4.36
		c-1.276,0.662-1.329,2.547-2.18,3.635c-1.575,0.122-0.328-2.579-0.725-3.635c0-0.24,0-0.485,0-0.726
		c0.954-0.256,1.143-1.279,2.179-1.452c0.134-0.619-0.284-0.686-0.727-0.728c0.125-2.789-3.757-1.571-3.632-4.36
		c5.034-0.917,3.686,4.549,8.719,3.632c1.479,0.218,1.937,1.458,2.905,2.183c-0.205,1.9,0.267,3.123,2.18,2.906
		c0,0.969,0,1.935,0,2.905C316.373,236.542,316.131,236.542,315.89,236.542z"/>
	<path fill-rule="evenodd" clip-rule="evenodd" fill="#3E3556" d="M305.716,235.817c0.852-1.088,0.904-2.973,2.18-3.635
		c2.886,1.234,7.458,0.781,7.994,4.36c1.958,4.342,6.178,6.416,8.718,10.176c0.061,1.151-0.348,2.768,0.728,2.901
		c0,0.489,0,0.97,0,1.459c-1.204,2.184-2.086,4.691-4.36,5.811c-2.048,0.756-6.798,1.387-8.72,0c-0.242,0-0.485,0-0.726,0
		c-0.408-1.049-1.132-1.774-2.18-2.185c0.119-0.844-0.161-1.293-0.727-1.45c0.118-0.844-0.16-1.293-0.727-1.451
		c-0.363-3.997,0.802-9.524-0.726-12.355C306.858,238.062,305.605,237.621,305.716,235.817z M318.068,256.164
		c7.322,1.064,7.228-10.179,2.18-11.629C322.103,248.737,320.625,254.138,318.068,256.164z"/>
	<path fill-rule="evenodd" clip-rule="evenodd" fill="#9A8D92" d="M320.249,244.535c5.047,1.451,5.142,12.694-2.18,11.629
		C320.625,254.138,322.103,248.737,320.249,244.535z"/>
	<path fill-rule="evenodd" clip-rule="evenodd" fill="#7A8539" d="M314.911,317.98c-0.639-4.268-6.091-3.728-9.531-5.199
		c-1.521,0.79-1.584,3.037-2.599,4.334c-1.877,0.146-0.391-3.074-0.865-4.334c0-0.286,0-0.578,0-0.865
		c1.137-0.305,1.363-1.524,2.599-1.73c0.16-0.738-0.338-0.818-0.867-0.867c0.148-3.326-4.479-1.873-4.331-5.198
		c6.001-1.093,4.394,5.423,10.396,4.33c1.763,0.259,2.309,1.737,3.464,2.603c-0.244,2.265,0.318,3.723,2.599,3.464
		c0,1.155,0,2.308,0,3.464C315.486,317.98,315.198,317.98,314.911,317.98z"/>
	<path fill-rule="evenodd" clip-rule="evenodd" fill="#3E3556" d="M302.781,317.115c1.015-1.297,1.078-3.544,2.599-4.334
		c3.44,1.472,8.892,0.932,9.531,5.199c2.333,5.176,7.365,7.648,10.394,12.132c0.073,1.372-0.416,3.3,0.867,3.459
		c0,0.583,0,1.157,0,1.739c-1.436,2.604-2.487,5.594-5.198,6.928c-2.442,0.902-8.105,1.654-10.396,0c-0.289,0-0.578,0-0.865,0
		c-0.486-1.25-1.35-2.115-2.599-2.604c0.142-1.006-0.192-1.542-0.867-1.729c0.141-1.006-0.191-1.542-0.867-1.729
		c-0.433-4.766,0.956-11.355-0.865-14.73C304.143,319.792,302.649,319.266,302.781,317.115z M317.508,341.373
		c8.73,1.27,8.617-12.135,2.599-13.864C322.318,332.519,320.555,338.958,317.508,341.373z"/>
	<path fill-rule="evenodd" clip-rule="evenodd" fill="#9A8D92" d="M320.107,327.509c6.018,1.729,6.131,15.134-2.599,13.864
		C320.555,338.958,322.318,332.519,320.107,327.509z"/>
	<path fill-rule="evenodd" clip-rule="evenodd" fill="#7A8539" d="M347.055,276.742c-0.516-3.441-4.912-3.006-7.687-4.192
		c-1.227,0.637-1.278,2.449-2.096,3.495c-1.514,0.117-0.315-2.479-0.697-3.495c0-0.231,0-0.467,0-0.698
		c0.917-0.246,1.099-1.23,2.096-1.396c0.128-0.595-0.273-0.66-0.7-0.7c0.12-2.682-3.612-1.51-3.492-4.191
		c4.84-0.882,3.543,4.373,8.383,3.492c1.422,0.209,1.862,1.401,2.794,2.099c-0.197,1.827,0.256,3.002,2.096,2.794
		c0,0.932,0,1.861,0,2.793C347.519,276.742,347.286,276.742,347.055,276.742z"/>
	<path fill-rule="evenodd" clip-rule="evenodd" fill="#3E3556" d="M337.272,276.044c0.818-1.046,0.869-2.858,2.096-3.495
		c2.774,1.187,7.171,0.751,7.687,4.192c1.882,4.175,5.939,6.169,8.382,9.784c0.059,1.107-0.335,2.661,0.699,2.79
		c0,0.47,0,0.933,0,1.403c-1.158,2.1-2.005,4.511-4.192,5.587c-1.969,0.727-6.537,1.333-8.384,0c-0.233,0-0.466,0-0.698,0
		c-0.392-1.009-1.088-1.706-2.096-2.101c0.114-0.811-0.155-1.243-0.699-1.395c0.113-0.811-0.154-1.243-0.699-1.395
		c-0.35-3.843,0.771-9.158-0.698-11.879C338.371,278.203,337.166,277.779,337.272,276.044z M349.149,295.608
		c7.041,1.023,6.949-9.787,2.096-11.182C353.028,288.467,351.606,293.66,349.149,295.608z"/>
	<path fill-rule="evenodd" clip-rule="evenodd" fill="#9A8D92" d="M351.245,284.427c4.853,1.395,4.944,12.205-2.096,11.182
		C351.606,293.66,353.028,288.467,351.245,284.427z"/>
	<path fill-rule="evenodd" clip-rule="evenodd" fill="#7A8539" d="M357.905,231.791c-0.393-2.627-3.75-2.295-5.869-3.201
		c-0.937,0.486-0.976,1.87-1.601,2.668c-1.156,0.089-0.241-1.893-0.533-2.668c0-0.176,0-0.356,0-0.533
		c0.7-0.188,0.839-0.94,1.6-1.067c0.099-0.454-0.208-0.503-0.534-0.534c0.092-2.048-2.758-1.153-2.667-3.201
		c3.696-0.673,2.707,3.34,6.402,2.667c1.085,0.16,1.422,1.07,2.133,1.603c-0.15,1.395,0.196,2.293,1.601,2.134
		c0,0.711,0,1.42,0,2.133C358.259,231.791,358.082,231.791,357.905,231.791z"/>
	<path fill-rule="evenodd" clip-rule="evenodd" fill="#3E3556" d="M350.435,231.258c0.625-0.799,0.664-2.183,1.601-2.668
		c2.119,0.906,5.476,0.574,5.869,3.201c1.437,3.188,4.537,4.711,6.401,7.471c0.045,0.846-0.256,2.032,0.534,2.13
		c0,0.359,0,0.712,0,1.071c-0.884,1.604-1.531,3.444-3.201,4.267c-1.504,0.556-4.992,1.019-6.403,0c-0.178,0-0.356,0-0.533,0
		c-0.3-0.77-0.832-1.302-1.601-1.604c0.087-0.62-0.118-0.949-0.533-1.065c0.086-0.619-0.118-0.949-0.534-1.065
		c-0.267-2.935,0.588-6.993-0.533-9.071C351.274,232.906,350.354,232.583,350.435,231.258z M359.504,246.197
		c5.376,0.782,5.307-7.473,1.601-8.538C362.466,240.744,361.381,244.709,359.504,246.197z"/>
	<path fill-rule="evenodd" clip-rule="evenodd" fill="#9A8D92" d="M361.105,237.659c3.706,1.065,3.775,9.32-1.601,8.538
		C361.381,244.709,362.466,240.744,361.105,237.659z"/>
	<path fill-rule="evenodd" clip-rule="evenodd" fill="#7A8539" d="M350.344,252.329c-0.352-2.351-3.356-2.054-5.252-2.865
		c-0.838,0.435-0.873,1.673-1.432,2.388c-1.035,0.08-0.215-1.694-0.477-2.388c0-0.158,0-0.319,0-0.477
		c0.627-0.168,0.751-0.841,1.432-0.955c0.088-0.406-0.187-0.45-0.478-0.478c0.082-1.833-2.468-1.032-2.387-2.865
		c3.308-0.602,2.422,2.989,5.729,2.386c0.972,0.144,1.272,0.958,1.909,1.435c-0.134,1.248,0.175,2.052,1.433,1.909
		c0,0.637,0,1.271,0,1.909C350.661,252.329,350.502,252.329,350.344,252.329z"/>
	<path fill-rule="evenodd" clip-rule="evenodd" fill="#3E3556" d="M343.659,251.852c0.559-0.715,0.594-1.953,1.432-2.388
		c1.896,0.811,4.901,0.514,5.252,2.865c1.286,2.853,4.06,4.216,5.729,6.687c0.04,0.757-0.229,1.818,0.478,1.906
		c0,0.321,0,0.637,0,0.958c-0.791,1.436-1.371,3.083-2.864,3.818c-1.346,0.498-4.467,0.912-5.73,0c-0.159,0-0.319,0-0.477,0
		c-0.268-0.689-0.744-1.166-1.432-1.435c0.078-0.555-0.106-0.85-0.478-0.953c0.078-0.554-0.105-0.85-0.478-0.953
		c-0.239-2.626,0.527-6.258-0.477-8.118C344.41,253.327,343.586,253.038,343.659,251.852z M351.775,265.221
		c4.811,0.7,4.749-6.688,1.433-7.641C354.426,260.341,353.455,263.89,351.775,265.221z"/>
	<path fill-rule="evenodd" clip-rule="evenodd" fill="#9A8D92" d="M353.208,257.581c3.316,0.953,3.378,8.34-1.433,7.641
		C353.455,263.89,354.426,260.341,353.208,257.581z"/>
</g>
</svg>
